<?xml version="1.0" encoding="utf-8"?>
<!-- Generator: Adobe Illustrator 19.1.0, SVG Export Plug-In . SVG Version: 6.00 Build 0)  -->
<svg version="1.1" id="Layer_1" xmlns="http://www.w3.org/2000/svg" xmlns:xlink="http://www.w3.org/1999/xlink" x="0px" y="0px"
	 viewBox="675 11.9 624.4 771.1" style="enable-background:new 675 11.9 624.4 771.1;" xml:space="preserve">
<style type="text/css">
	.st0{fill:#0F231F;}
	.st1{fill:#077F82;}
	.st2{fill:#252D2C;}
	.st3{opacity:0.9;fill:#E8D771;stroke:#F9F5CD;stroke-width:3;stroke-miterlimit:10;enable-background:new    ;}
	.st4{opacity:0.3;fill:#FFFFFF;enable-background:new    ;}
	.st5{fill:#153A33;}
	.st6{fill:#E8D771;}
	.st7{fill:#4C5139;}
	.st8{fill:#527F7E;}
	.st9{fill:#19332E;}
	.st10{fill:#2A2D20;}
	.st11{fill:#385B57;}
	.st12{fill:#EDAB25;}
	.st13{fill:#F3C716;}
	.st14{fill:#3F4948;}
	.st15{opacity:0.4;fill:#F3C716;enable-background:new    ;}
	.st16{fill:#677573;}
	.st17{fill:#606E6B;}
	.st18{fill:#2C3836;}
	.st19{fill:#FFFFFF;}
</style>
<title>CampsiteLOGO</title>
<polygon class="st0" points="675,552.7 675,192.2 987.2,11.9 1299.4,192.2 1299.4,552.7 987.2,733 "/>
<polygon class="st1" points="1282.5,202.6 1282.5,542.3 988.3,712.2 694.1,542.3 694.1,202.6 988.3,32.7 "/>
<polygon class="st2" points="1282.4,476 1282.4,543.9 988.2,713.7 694,543.9 694,476.5 "/>
<path class="st3" d="M1037.2,126.2c-1.7,27.6-25.5,48.5-53.1,46.7c-27.6-1.7-48.5-25.5-46.7-53.1c1.7-27.5,25.5-48.4,53-46.7
	C1018,74.8,1038.9,98.6,1037.2,126.2z"/>
<path class="st0" d="M1282.5,404.8v53.8H694.1v-52c11.9-22.7,24.2-45.7,25.5-50.6l54-36.4l21,7.4l10.4-21.1l21.6-4l22-62l38.5,27.3
	l35-3.1l75.2-155.8l63.1,99.4l40.2,35.1l9.3,38l17.2,24l60.6,7.9l49.9,60l25,12.2C1265.1,391.4,1273.1,398,1282.5,404.8z"/>
<polygon class="st4" points="1236.7,371.3 1183.3,323.3 1130.2,384.1 1099.2,373.6 1120.2,309.4 1015.6,300.3 992.1,283 
	966.4,263.5 1090.9,250.2 1031.1,244.1 1034.4,217.6 1017.3,217.6 997.5,108.2 1060.6,207.6 1100.8,242.7 1110.1,280.6 
	1127.3,304.6 1187.8,312.6 "/>
<polygon class="st5" points="759,249.1 732.1,421.6 775.6,452.4 795.1,399.7 "/>
<polygon class="st5" points="1282.5,210.4 1282.5,477.4 694.1,477.9 694.1,213.2 714.3,373.1 730,228 759,438 782.7,272.2 
	805,421.5 824.2,319.3 836.7,396.7 972.2,458.2 1017.3,339.7 1044.8,440.5 1092.2,298.5 1143.6,435.6 1165.6,274.3 1193,431.2 
	1227.5,219.5 1258.5,431.2 "/>
<path class="st0" d="M1172.1,573.7h0.2c-0.3-2.8-0.8-5.6-1.7-8.3c0,0-18.4-1-35.3-10.2c-5.3-2.9-17.5-11.5-31.5-21.8
	c-0.3-9.8,0.3-18.3,0.3-18.7c-0.4-7.1-11.8-12.1-11.8-12.1c1.2,7.7-1.3,14.9-3.6,19.7c-26.7-19.9-54.2-41-54.2-41l-0.1,0.1l-0.2-0.1
	l-0.3,0.4l-0.4-0.4c-4.3-4.9-22.1-3.8-27.3,13.2c-2.3,7.8-3.5,15.8-3.8,23.9c-4.6,2-8.6,6.6-10.2,15.8c0,0.9,7.4,12.6,17,27.4
	c-20.2-6.8-50.2-16.5-56.2-16.3c-0.3,0-0.5,0-0.8,0c-11.4-1.2-22.3,1.2-29.1,14.4c-10.5,20.2-4.7,28.1-2.2,35
	c2.1,5.8,15.8,12.9,30.5,13.6l0,0c2.7,0.1,5.3,0,7.9-0.3l0.6-0.1l42.1-2l-0.7,0.4l36.3-1.7c8.2,12.1,14.4,21.3,15.5,22.5
	c0.7,0.7,1.4,1.3,2.2,1.8c0.1,1.6,0.8,3.2,1.8,4.5c8.5,10.9,66.5,12,73.6-21c0,0,0-5.5-7.8-9.9c-2.3-2.1-5.1-4.6-8.3-7.3l1.3,0.3
	c-1.6-1.4-3.3-2.8-5-4.3c30.9,5.4,55.8,7.1,55.8,7.1C1171.3,590.8,1173.1,582.2,1172.1,573.7z"/>
<path class="st6" d="M997.2,193.4c0.4,0.4,0.9,0.8,1.5,1.4C998.1,194.5,997.5,194,997.2,193.4z"/>
<path class="st6" d="M1004.5,370.1l0.2,0.2l0,0L1004.5,370.1z"/>
<polygon class="st7" points="763.7,361.3 759,457.9 761.5,458.1 765.6,361.4 "/>
<path class="st8" d="M704.7,489.1c0,0,47.9-36.6,58.2-104.6c37.3-9,124.9-63.1,164.9-164.2c0,0-22,188.4-108.8,262.3
	C819.5,483.3,704.7,489.1,704.7,489.1z"/>
<path class="st7" d="M711,475.2c0,0-1.2,11.4-0.8,11.9c0.4,0.5,2.5,0.9,3.3,0.2c-0.4-4-0.1-8,0.8-11.9L711,475.2z"/>
<path class="st9" d="M927.2,232.5c0,0,18.2,198.6,96.4,248.6c0,0-200.3,2.2-218.6-1.1C814.9,473.1,886.6,430.6,927.2,232.5z"/>
<polygon class="st10" points="927.4,189.8 929.1,189.9 924.6,485.1 920.6,485 "/>
<polygon class="st7" points="928.8,189.8 930.6,189.9 926.1,485.1 922.1,485 "/>
<path class="st11" d="M927.8,220.3c0,0-32,176-94.8,219.6s-87.5,58.6-87.5,58.6s57.5-3.8,71.2-6
	C817.3,492.3,892.9,452.8,927.8,220.3z"/>
<path class="st7" d="M767.4,493.1l-5.9,1c0,0,1.4-11.1,0.6-15.1c1.8-2.8,4.7-2.8,5-2.1C767.2,477.6,765.2,490.6,767.4,493.1z"/>
<path class="st10" d="M1044.8,479l-5.9,1c0,0,1.4-11.1,0.6-15.1c1.8-2.8,4.7-2.8,5-2.1S1042.6,476.5,1044.8,479z"/>
<path class="st11" d="M927.8,220.3c0,0-3.3,170.3,83.9,260.8c1.7,0.7,45.7,3.9,45.7,3.9S938.5,439.8,927.8,220.3z"/>
<path class="st12" d="M1062,427.1c0,0,32.3-15.5,22.9-39.5s-72.7-73.9,4-104.6c-19.6,32.2-5,60.3,18.6,76.4s27.4,82.8,10.6,110.1
	c14.7-0.3,22.7-29,21.2-37.5c11.4,11.1,12.6,59.3,1.7,66.9c14.1,1.7,20.7-23.5,20-32.3c24,10.8,36.4,78.8,3.6,115.6
	c-6.5,10.5-34.2-7.6-34.2-7.6L931.3,566c0,0-9.7,8.2-16.9-10.7s-2.3-36.1,5.4-46.9c5.2,10.4,9.7,18.2,13.5,18.4l10,0.6
	c0,0-6.8-4.2-0.9-13c3.2,8.6,3.5,11.1,18.8,12.9c-17.2-31.6-7.3-69.8,39.9-104c-16.5,16.9-19.2,26.8-14.3,28.8
	c5.7,2,74-21.7,54.6-64.7C1057.5,384.6,1072.7,409,1062,427.1z"/>
<path class="st13" d="M1162.2,574.4c-5.3-0.6-15-5.6-20.1-8.9l-2.6-1.7l-206.6-9l-0.7,0.6c-0.7-1.2-1.2-2.5-1.7-3.7
	c-2.2-5.7-3.1-11.8-2.6-17.9c2.7,2.8,6.4,4.5,10.2,4.8l10,0.6l1.3-4.2c3.8,1.9,8.9,3.1,16,4l21.8,2.5l-10.5-19.2
	c-10.9-20-8.2-41.2,7.4-61.8c1.2,1,2.6,1.8,4,2.4l0.5,0.2c1.2,0.4,2.4,0.7,3.7,0.7l0,0c10.5,0.6,45.3-12.2,61-35
	c2.7-3.9,4.8-8.1,6.3-12.6c-0.3,1.9-0.9,3.8-1.9,5.5l-19.1,32.2l33.8-16.2c14.4-7,39-27.1,28.6-53.8c-2.6-6.6-7.5-13.6-13.2-21.6
	c-10.1-14.1-22.6-31.6-18.7-44.9c1-3.3,2.8-6.3,5.2-8.7c-1.7,22.9,9.5,44.8,32.4,60.4c17.3,11.8,21.9,71.1,7.4,94.9l-10.9,17.7
	l20.8-0.5c4.9-0.1,12.1-1.9,18.8-9.6c-0.2,10.1-2,16.8-3.2,18.7l-23.6,16.6l29.3,3.6c0.5,0.1,0.9,0.1,1.3,0.1
	c4.7,0.3,11.7-0.8,18.3-7.5c3.2-3.4,5.9-7.4,7.8-11.8c1.8,4.3,3.2,8.8,4.1,13.4C1180.9,524.5,1179.6,554.4,1162.2,574.4z"/>
<path class="st14" d="M961.2,535.7c6.5-1.4,75.4,22.6,75.4,22.6l21.6,35.6l-98,4.7C960.2,598.6,954.7,537.1,961.2,535.7z"/>
<path class="st15" d="M1057.8,593.9l-6.4,0.3l-18.5-30.5c0,0-64-22.3-74.5-22.7c0.5-3.1,1.3-5.1,2.4-5.4
	c6.5-1.4,75.4,22.6,75.4,22.6L1057.8,593.9z"/>
<path class="st16" d="M978.9,539.7c-16.4-4.8-36.6-9.8-47,10.4s-4.7,28.2-2.2,35c2.4,6.8,21.2,15.5,38.4,13.3
	c17.2-2.2,29.4-18,27.1-35.2c-0.1-0.9-0.3-1.8-0.5-2.8C990.8,549.2,978.9,539.7,978.9,539.7z"/>
<path class="st17" d="M961.6,597.1c-14.8,0-28.5-7.2-30.2-11.9c-0.3-0.8-0.7-1.7-1-2.6c-2.5-6-5.6-13.5,3.1-30.3
	c4.7-9,11.6-13.3,21.8-13.3c7,0,14.5,2,21.6,4c2,1.7,11.3,9.9,14.5,19c1.8,7.8,0.1,15.9-4.4,22.5c-4.7,6.7-11.9,11.1-20,12.2
	C965.2,596.9,963.4,597.1,961.6,597.1L961.6,597.1z"/>
<path class="st16" d="M963.1,594.9c-14.4,0-26.6-7.2-27.7-10.1c-0.3-0.9-0.7-1.8-1.1-2.7c-2.4-5.8-5.1-12.3,3-28
	c4.2-8.2,10.2-11.8,19.5-11.8c6.6,0,13.9,1.9,20.3,3.8c2.5,2.1,10.4,9.4,13.3,17.3c1.5,7,0.1,14.3-4.1,20.2
	c-4.2,6.1-10.8,10.1-18.1,11.1C966.5,594.8,964.8,594.9,963.1,594.9z"/>
<path class="st17" d="M961.6,590.8c-13.9,0-24.3-6.8-25.2-8.5c-0.3-0.8-0.7-1.8-1.1-2.7c-2.3-5.5-4.6-11.2,2.9-25.8
	c3.8-7.3,8.9-10.4,17.1-10.4c5.9,0,12.6,1.7,19,3.5c2.6,2.3,9.4,8.8,12,15.7c1.3,6.2,0,12.8-3.7,18c-3.8,5.5-9.7,9.1-16.3,10
	C964.8,590.8,963.2,590.9,961.6,590.8z"/>
<path class="st16" d="M961.6,588.7c-11.4,0-20.3-5.1-22.1-6.8c-0.3-0.7-0.6-1.5-0.9-2.2c-2.1-5-4-9.7,2.8-22.8
	c3.1-6.1,7.1-8.5,14-8.5c5.3,0,11.6,1.5,17.2,3.1c2.4,2.2,8.1,7.8,10.4,13.5c1,5.2-0.1,10.6-3.2,14.9c-3.2,4.6-8.2,7.7-13.8,8.5
	C964.5,588.6,963,588.7,961.6,588.7z"/>
<path class="st17" d="M963.9,583.4c-6.5,0-12.9-1.8-18.5-5.1l-0.5-1.2c-1.8-4.3-3.2-7.8,2.6-19c2.4-4.6,4.8-6.1,10-6.1
	c4.6,0,10.3,1.4,15,2.7c2.1,2,6.5,6.5,8.3,10.7c0.7,3.9-0.2,7.9-2.5,11.2c-2.5,3.6-6.4,6-10.8,6.6
	C966.4,583.3,965.1,583.4,963.9,583.4z"/>
<path class="st16" d="M960.3,578.9c-4.9-0.1-9.8-1.2-14.2-3.5c-1.3-3.3-1.9-5.4,2.6-14.1c1.5-2.8,2.1-3.2,5.3-3.2
	c3.7,0,8.5,1.1,12.3,2.1c2.3,2.2,4.3,4.7,5.9,7.5c0.2,2.3-0.4,4.7-1.7,6.6c-1.7,2.4-4.2,4-7.1,4.4
	C962.3,578.9,961.3,578.9,960.3,578.9z"/>
<path class="st14" d="M1030.2,510.1c0,0-24.7-12-29.3,14.5c0,2.6,57.5,88.8,61,92.8s16.6,9.4,38.5,6.2s36.9-12,37.9-24.4
	C1126.6,585.5,1030.2,510.1,1030.2,510.1z"/>
<path class="st14" d="M1042.9,471.6c0,0,83.9,64.6,100.8,73.9s35.3,10.2,35.3,10.2s6.1,17.1-3.4,32.7c0,0-101.2-7.1-148.7-36.6
	C1016.2,517.4,1042.9,471.6,1042.9,471.6z"/>
<path class="st14" d="M1100.9,493c0,0,11.4,5.1,11.8,12.1c0,0.8-2.3,36.5,4.7,45.3c-6.5,4.2-21.7-13.5-24.2-20.7s0.7-11.2,0.7-11.2
	S1102.9,506.5,1100.9,493z"/>
<path class="st18" d="M1124.7,585.7c-15.5-3.6-55.6-10.8-82.2,2.3c-11-16.4-24.1-36.2-32.5-49.3c4.4-3.6,9.4-6.3,14.8-7.8
	c-0.4,7,0.5,14,2.4,20.7c23.6,14.7,60.6,23.8,91.7,29.3C1121,582.6,1122.9,584.2,1124.7,585.7z"/>
<path class="st16" d="M1042.2,471.6c0,0,27.5,24.8,10.5,68.1s-53.3-1.2-37.8-54.9C1020,467.8,1037.8,466.7,1042.2,471.6z"/>
<path class="st17" d="M1033,552c-3,0-6.3-2.2-9.3-6.3c-8-10.7-13.3-33.8-5.9-59.4c2.7-8.8,9.6-11.9,14.7-11.9
	c1.2-0.1,2.5,0.2,3.6,0.8l0.2,0.2l0.2,0.2c1,0.9,24.5,23,9.1,62.3C1042,546.8,1037.4,552,1033,552z"/>
<path class="st16" d="M1034.1,550c-2.3,0-5.1-2-7.8-5.5c-7.7-10.3-12.8-32.7-5.6-57.7c2.4-7.8,8.4-10.5,12.8-10.5
	c0.8,0,1.6,0.1,2.3,0.4l0.1,0.1l0.3,0.3c0.9,0.9,23.5,22,8.6,60.1C1041.7,545.1,1037.6,550,1034.1,550z"/>
<path class="st17" d="M1035.2,547.3c-1.1,0-3.3-1.4-5.6-4.4c-7.4-9.8-12.1-31.2-5.2-55.3c1.9-6.3,6.7-8.5,10.2-8.5
	c0.3,0,0.6,0,0.9,0.1c1.6,1.5,21.8,21.3,7.8,57C1040.1,544.3,1036.6,547.3,1035.2,547.3z"/>
<path class="st16" d="M1036.2,544.5c-1.3-0.8-2.4-1.9-3.3-3.2c-7-9.3-11.4-29.7-4.7-52.9c1.4-4.7,4.8-6.5,7.3-6.6
	c3.5,3.7,18.6,22.2,6.4,53.3C1039.5,541.3,1037.1,543.8,1036.2,544.5z"/>
<path class="st17" d="M1034.9,531.6c-0.8-0.5-1.4-1.1-1.9-1.9c-4.1-5.5-6.7-17.5-2.8-31.2c0.8-2.8,2.8-3.8,4.3-3.9
	c2.1,2.2,11,13.1,3.8,31.5C1036.9,529.7,1035.5,531.3,1034.9,531.6z"/>
<path class="st16" d="M1139.5,602.7c0,0,0-12-24.8-14.7c-35.5-3.9-57.4,24.9-48.9,35.7S1132.4,635.7,1139.5,602.7z"/>
<path class="st17" d="M1091.3,628.9c-12.3,0-21.1-2.9-23.3-5.8c-1.8-2.3-1.7-6.1,0.4-10.5c5-10.2,19.6-21.2,39.7-21.2
	c2.1,0,4.2,0.1,6.3,0.3c20,2.2,22.1,10.4,22.3,11.8C1132.4,622.3,1109.6,628.9,1091.3,628.9L1091.3,628.9z"/>
<path class="st16" d="M1091.3,624c-13.1,0-20-3.2-21.2-4.7c-1.2-1.5-0.8-4.3,0.8-7.6c4.6-9.5,18.3-19.7,37.3-19.7c2,0,4,0.1,6,0.3
	c16.2,1.8,19.3,7.5,19.8,9.1C1129.7,618.1,1108.4,624,1091.3,624L1091.3,624z"/>
<path class="st17" d="M1091.3,623.4c-11.4,0-17.8-2.7-19-3.7c-0.1-0.3-0.3-1.9,1.1-4.7c4.3-8.8,17-18.2,34.8-18.2
	c1.9,0,3.8,0.1,5.7,0.3c11.1,1.2,15.9,4.5,17.2,6.6C1126.6,618.3,1107,623.4,1091.3,623.4L1091.3,623.4z"/>
<path class="st16" d="M1091.3,619.6c-8.8,0-14.1-1.6-16.2-2.5c0.2-0.7,0.4-1.4,0.7-2c3.9-8,15.7-16.6,32.4-16.6
	c1.8,0,3.6,0.1,5.4,0.3c9.1,1,12.9,3.3,14.4,4.5C1123,615.3,1105.4,619.6,1091.3,619.6L1091.3,619.6z"/>
<path class="st17" d="M1095.7,614.9c-6.4,0-10.3-1.2-11.8-1.8c0.1-0.5,0.3-1,0.5-1.4c2.8-5.8,11.4-12.1,23.5-12.1
	c1.3,0,2.6,0.1,3.9,0.2c6.6,0.7,9.4,2.4,10.5,3.3C1118.8,611.8,1105.9,614.9,1095.7,614.9L1095.7,614.9z"/>
<path class="st15" d="M1180.8,564.1c-7.5-0.5-15-1.6-22.3-3.4c-14.8-3.4-71.4-44.9-104-69.4c-2.5-7.1-6.5-13.6-11.7-19l0.3-0.6
	c0,0,83.9,64.6,100.8,73.9s35.3,10.2,35.3,10.2C1180,558.5,1180.6,561.3,1180.8,564.1z"/>
<path class="st18" d="M1005.4,548c4.5,1.5,8.9,2.9,12.9,4.3c8.8,13.5,19.6,29.7,28.2,42.6l-36.4,1.7
	C1034.3,584.6,1014.7,558.4,1005.4,548z"/>
<polygon class="st5" points="1254.1,227.4 1230.1,441 1275.1,441 "/>
<ellipse class="st19" cx="774.8" cy="190.5" rx="3.3" ry="4.2"/>
<path class="st19" d="M767,203.2c0,2.4-1.5,4.3-3.3,4.3c-1.9,0-3.4-1.9-3.4-4.3s1.5-4.2,3.4-4.2C765.5,198.9,767,200.8,767,203.2z"
	/>
<path class="st19" d="M713.5,215.9c0,2.4-1.5,4.3-3.3,4.3c-1.9,0-3.4-1.9-3.4-4.3s1.5-4.2,3.4-4.2
	C712,211.6,713.5,213.5,713.5,215.9z"/>
<path class="st19" d="M819.6,249.1c0,2.4-1.5,4.3-3.3,4.3s-3.3-1.9-3.3-4.3s1.5-4.2,3.3-4.2S819.6,246.8,819.6,249.1z"/>
<path class="st19" d="M887,159.1c0,2.3-1.5,4.2-3.3,4.2c-1.9,0-3.4-1.9-3.4-4.2s1.5-4.2,3.4-4.2C885.5,154.9,887,156.8,887,159.1z"
	/>
<path class="st19" d="M846.8,128.6c0,2.3-1.5,4.2-3.4,4.2s-3.4-1.9-3.4-4.2c0-2.3,1.5-4.2,3.4-4.2S846.8,126.3,846.8,128.6z"/>
<path class="st19" d="M990.1,51.4c0,2.3-1.5,4.2-3.3,4.2c-1.9,0-3.4-1.9-3.4-4.2s1.5-4.2,3.4-4.2C988.6,47.2,990.1,49.1,990.1,51.4z
	"/>
<ellipse class="st19" cx="897.9" cy="207.4" rx="3.4" ry="4.2"/>
<path class="st19" d="M1070.1,103.9c0,2.3-1.5,4.2-3.3,4.2s-3.3-1.9-3.3-4.2s1.5-4.2,3.3-4.2S1070.1,101.6,1070.1,103.9z"/>
<ellipse class="st19" cx="1078.4" cy="190.5" rx="3.4" ry="4.2"/>
<path class="st19" d="M1131.3,275.4c0,2.3-1.5,4.2-3.4,4.2c-1.8,0-3.3-1.9-3.3-4.2s1.5-4.2,3.3-4.2
	C1129.8,271.2,1131.3,273.1,1131.3,275.4z"/>
<ellipse class="st19" cx="1178.7" cy="240.6" rx="3.4" ry="4.2"/>
<ellipse class="st19" cx="1266.3" cy="211.6" rx="3.3" ry="4.2"/>
<ellipse class="st19" cx="1095.5" cy="190.5" rx="3.4" ry="4.2"/>
<path class="st19" d="M1134.7,163.4c0,2.4-1.5,4.3-3.3,4.3c-1.9,0-3.4-1.9-3.4-4.3s1.5-4.2,3.4-4.2
	C1133.2,159.1,1134.7,161,1134.7,163.4z"/>
</svg>
