<svg id="Layer_1" data-name="Layer 1" xmlns="http://www.w3.org/2000/svg" viewBox="0 0 533.27 336.41"><title>Sick Records Logo</title><polygon points="152.73 91.3 224.47 82.38 222.06 0 81.98 10.94 55.37 30.57 56.81 193.99 64.57 204 97.49 200.4 96.34 217.71 137.86 211.52 137.26 220.44 96.3 226.14 92.1 312.82 62.19 310.83 65.9 286.83 57.47 286.8 56 277.21 65.48 277.32 66.64 228.38 0 231.84 13.74 333.95 142.37 333.57 161.64 313.25 156.01 160.56 91.61 169.96 86.41 74.22 88.33 38.93 153.95 41.31 152.48 63.35 198.62 59.05 198.2 65.34 153.6 70.27 152.73 91.3"/><polygon points="181.02 180.67 228.35 174.34 224.29 298.45 193.68 299.04 193.16 306.91 223.87 304.75 222.37 327.31 179.24 326.01 181.02 180.67"/><polygon points="343.72 111.94 396.75 107.05 394.34 48.38 359.19 8.89 268.9 0.17 241.79 36.1 245.73 316.75 266.69 334.48 382.19 325.32 380.62 269.88 366.38 269.98 366.31 263.13 380.48 264.07 379.36 249.24 338.75 249.69 339.27 241.82 381.25 244.62 380.79 227.73 318.91 230.98 320.17 306.95 280.89 304.87 281.84 51.95 336.06 52.93 344.91 62.48 343.72 111.94"/><polygon points="462.7 334.91 406.21 336.41 405.62 317.55 439.01 315.39 439.48 308.58 405.35 308.95 402.65 223.91 364.2 191.84 363.69 215.52 323.56 216.53 322.98 122.68 329.88 122.86 331.8 149.38 335.57 149.38 335.4 123 375.06 124.04 371.11 159.5 415.98 126.77 414.06 14.53 441.88 16.38 441.88 149.25 397.4 176.13 460.02 225.11 462.7 334.91"/><polygon points="477.23 335.08 472.32 296.85 498.37 294.88 501.5 307.32 506.15 295.71 530.71 297.35 530.33 302.93 509.83 301.56 500.3 325.41 494.1 300.82 478.62 301.98 482.12 329.26 528.4 327.22 528.65 332.81 477.23 335.08"/><polygon points="530.32 279.56 529.47 244.14 523.88 244.28 524.59 273.9 508.24 273.7 507.74 263.19 502.15 263.46 502.63 273.63 484.95 273.41 484.26 247.63 494.42 248.31 494.79 242.72 478.5 241.64 479.51 278.94 502.9 279.23 503.18 284.93 508.76 284.66 508.51 279.3 530.32 279.56"/><polygon points="479.12 232.5 481.53 196.38 500.49 197.64 500.11 203.22 486.74 202.33 485.1 226.94 527.34 227.17 526.1 205.6 518.73 206.85 517.79 201.33 531.32 199.05 533.27 232.8 479.12 232.5"/><path d="M560.41,421.81l-.26-2.52-55.51-.16.2,40,3-.2c.13,0,13.27-.86,26.25-1.94,7.66-.64,13.75-1.23,18.15-1.77,7.81-.93,10.53-1.41,10.72-4.24C563.07,448.94,561,428.14,560.41,421.81Zm-50,31.34-.15-28.41,44.83.13c.82,8.4,1.87,19.61,2.17,24C550.9,450.1,527.85,452,510.41,453.15Z" transform="translate(-36.59 -273.24)"/><polygon points="466.06 138.5 468.9 95.88 492.35 97.45 496.44 114.11 507.88 98.48 528.51 99.86 528.14 105.44 510.57 104.27 493.86 127.1 487.89 102.75 474.11 101.83 472.06 132.69 526.17 130.71 526.37 136.3 466.06 138.5"/><path d="M561.21,336.13l-11.32-9.28-32.35-2.17-12.92,34,59.93.07Zm-48.49,17,8.57-22.59,26.43,1.77,8.27,6.77,2.08,14.11Z" transform="translate(-36.59 -273.24)"/><path d="M538,312.67l-26.63-1.77-6-37.49,3.49.23c3.77.25,12.84,1.11,15.58,3.62l-3.77,4.13,0,0c-.85-.63-4.53-1.4-8.7-1.87l4.15,26.07,15.49,1-3.07-27,37.63-.43-2,29.72-17.93-.61.2-5.59,12.51.43,1.22-18.29-25.4.29Z" transform="translate(-36.59 -273.24)"/><path d="M253.31,369.2l-50.85,4-9.73,11.47.17,29,10.75,4.92,1.21,21.17,8.89-.76-2.07-15.55,2.66.17,1.23,15.23,5.61-.48.86-6.1,2,2-.45,3.92,5.5-.48h0c.06-4.07.1-10.14-.08-10.57l3.05.69-.65,9.69,7.41-.63-1.95-10.77,1.45.1,2.39,10.51,2.36-.2,1.64-16.76,12.25-1.81Zm-43.74,29.89,3.16,8.68-2.52-.86-2.35-4.37-4.48,9.07-2.42-.17,4.79-12.83-5.86-10.83,4.46-3,3.24,8.88,4.26-11.43,4.47,3.18Zm15.25,11.22-1,12.31-2.86-12.47,3.17-7.38.35-8.85,5.12,5.37Zm23.57-5.37-5.81-4.89-2.17,8.88-4.49-.3,3.25-11.46-8.84-7.48,2.8-2.16,7.23,5.48,2.45-8.69.58-3.08,3.73.24-3.43,14,6.67,5.05Z" transform="translate(-36.59 -273.24)"/><polygon points="179.21 168.66 177.69 169.7 177.16 165.76 178.97 165.61 179.21 168.66"/><polygon points="186.94 164.93 186.47 168.99 184.2 167.91 184.58 165.13 186.94 164.93"/><path d="M231.37,437.5l-.27,4L229,441.4s0-1.59,0-3.71Z" transform="translate(-36.59 -273.24)"/><polygon points="204.82 166.8 202.73 166.66 202.18 163.63 204.07 163.47 204.82 166.8"/><polygon points="9.68 0 36.29 0 31.86 29.09 43.89 29.09 43.89 57.3 32.49 51.44 33.98 79.99 8.64 79.91 9.05 51.44 0 51.44 0 25.29 13.48 24.02 9.68 0"/></svg>