<svg id="Layer_1" data-name="Layer 1" xmlns="http://www.w3.org/2000/svg" viewBox="0 0 332.85 210.62"><defs><style>.cls-1{fill:#231f20;}</style></defs><title>SparrowLOGO</title><path class="cls-1" d="M46.22,51.26C99.29,2.43,185.07,47,199.93,54.66s71.34,29.73,107.86,10.62c-26.76,46.22-84.93,39.49-84.93,39.49s28.88,6.79,51.81-2.13c-33.13,32.28-79.41,28-96,25.06,7.64,6.79,19.11,8.92,34.39,11.46-5.09,5.1-23.77,9.77-61.57.85,12.56.87,20.39,3.4,34.82-1.27,0,0-31.42-11.89-42-30.15,42,24.2,93.84,6.37,93.84,6.37s-29.26-4.55-46.71-15.71c13.16,1.7,31.42,3.82,57.75-8.49-14.44,3.82-38.64-10.2-62-17.41S100.61,29,72.12,65.7c49.68,39.07,39.06,59.87,84.92,85.35,76,37.79,165.18-8.07,175-111.67-21.66,18.25-57.75,31.42-99.36,17.4,91.29,2.55,106.58-46.7,106.58-46.7S365,75.4,288.51,146.72v0s-53.85,55.76-73.81,62.55c18.82-.11,29.47,2.35,42.64,9.57-23.78-3.83-46.78-10.91-95.19,1.83,25.05-12.31,42.65-11.62,42.65-11.62s37.1-18.33,62.44-47.52C174.28,212.19,109.9,130,85.71,101,60.23,70.37,46.22,64.85,10.55,59.76,20.74,53.39,46.22,51.69,46.22,51.26Z" transform="translate(-10.55 -10.08)"/></svg>