<svg id="Layer_1" data-name="Layer 1" xmlns="http://www.w3.org/2000/svg" viewBox="0 0 277.04 280.25"><defs><style>.cls-1{fill:#c49a6c;}.cls-2{fill:#f15a29;}.cls-3{fill:#603913;}.cls-4{fill:#231f20;}</style></defs><title>taxidermy logo</title><path class="cls-1" d="M137.64,215.17a59.94,59.94,0,1,1,59.94-59.93,60,60,0,0,1-59.94,59.93"/><path class="cls-2" d="M194.74,155.23a57.1,57.1,0,1,1-57.1-57.09,57.1,57.1,0,0,1,57.1,57.09"/><path class="cls-2" d="M188,147.81a10.25,10.25,0,0,0-1.53-.12,4.94,4.94,0,0,0-3.69,1.25,2.6,2.6,0,0,0-1.24-1.16,58.69,58.69,0,0,0-5.87-1.72l2.19-1.88a1.24,1.24,0,0,1,.48-.1.88.88,0,0,1,.24,0l.52.08a10.15,10.15,0,0,1,4.1,1.64l1.52-2.4c-8.57-5.89-28.38-19.2-28.57-19.33l-.66-.46c.84-.71,1.59-1.4,2.27-2,1.48-1.35,2.75-2.52,3.51-2.52h.12l5.08.84-3.93-3.33a38.94,38.94,0,0,0-12.25-7.41c3.24-1.6,6.86-3.28,9.09-4.31l1.87-.87c2.51-1.19,12.82-7.94,14.4-10a14,14,0,0,0,2.1-5.16c.18-.69.37-1.4.59-2.07a8.42,8.42,0,0,1,1.13-2.17,11.72,11.72,0,0,0,1.94-4.34c.64-2.84-.31-6.31-1.07-9.09-.22-.82-.43-1.59-.56-2.22-.31-1.43-.95-2.15-1.92-2.15a1.71,1.71,0,0,0-1.37.72,6.67,6.67,0,0,0-.61,4.84,17.36,17.36,0,0,1,.07,6.81l-2-4.31a1.59,1.59,0,0,0-1.48-1.05,1.48,1.48,0,0,0-1.08.46c-.47.5-.81.86-.43,8.33.05,1,.1,1.79.14,2.52.14,2.3.23,3.69,0,4a100.7,100.7,0,0,1-10.92,6,4.29,4.29,0,0,1-.87.09,1.39,1.39,0,0,1-1-.28,1.82,1.82,0,0,1-.19-1.31c.14-1.28.24-3.62.36-6.33.18-3.86.47-10.29.91-11.46,1.19-1.66,3.53-7.87,4.54-12.08.8-3.35,2.62-18.4-.27-23a3.41,3.41,0,0,0-2.16-1.62l-.16,0h-.15a1.47,1.47,0,0,0-1.07.47c-.52.56-.48,1.12-.37,2.78a33.48,33.48,0,0,1-.59,10.43c-1.87,7.4-5.78,17.08-7,18.06s-1.82,1-2,1-.17,0-.34-.3c-1.9-3.47-6.71-13.18-6.78-15.48-.07-2.68-1.62-2.89-2.09-2.89a2.28,2.28,0,0,0-1.83,1,3.78,3.78,0,0,0-.56,3.28l.24.75c5.14,16.29,6.68,19.45,7.39,20.42a4,4,0,0,1,1,2.69,14.67,14.67,0,0,0,.35,2.4c.16.69.4,1.44.66,2.24.78,2.36,1.75,5.3,1.14,8.58-.56,3-4.71,5.73-7.45,7.54l-.52.34c-.08-.34-.13-.55-.14-.57l-.67-2.6-1.77,2a8.41,8.41,0,0,0-1.79,5.31c-1.12,1.35-2.37,3-3.42,4.4h-.74a26.13,26.13,0,0,0-8.7,1.49l-.38-.28c-1-1.21-2.46-3.46-2.47-4.76,0-1.46,1.55-4.93,2.53-6.76l1-1.82-2-.26a2.22,2.22,0,0,0-.37,0c-2.4,0-5.06,3.23-6.57,5.38a47.1,47.1,0,0,1-6.17-6.63c.74-.63,2.09-1.64,3.33-2.55a87.41,87.41,0,0,0,9-7.32c5.06-5,7.74-11.26,8.32-14.29a3.88,3.88,0,0,0-.47-3.16,1.91,1.91,0,0,0-1.44-.69c-.69,0-2,.38-2.72,2.93a3,3,0,0,1-.68,1.18,35.41,35.41,0,0,1,1.26-4.79c.86-2.36.84-5.77,0-7a1.72,1.72,0,0,0-1.4-.76c-1.51,0-2,1.84-2.15,2.62-.74,3-3.6,9-5.69,13.41-.62,1.29-1.2,2.51-1.65,3.49-1.31,2.86-5.14,5.83-7.43,7.61a21.87,21.87,0,0,0-2.11,1.75,1.62,1.62,0,0,1-1.18.41,3,3,0,0,1-.51,0c-4.6-4.55-7.14-12.67-7-14.93.19-2.69,2.37-23.33,3.12-26.81a23.32,23.32,0,0,1,2-6.21c2-4.29,2-5.39,1.5-6.25a1.63,1.63,0,0,0-1.38-.75,2.3,2.3,0,0,0-1.26.43C98.89,37,95.84,41.8,95,43.82c-.66,1.53-2.4,10.06-3.5,15.65-1.24-3.28-2.4-6.75-2.43-8.11-.08-2.94,1.45-7.27.4-8.86s-2.5-.1-2.5-.1a42.27,42.27,0,0,0-3.62,9.14c-.82,3.42.37,7.61,1.24,10.67A27.38,27.38,0,0,1,85.28,65c.22,1.42,1,4,1.81,6.78A70.29,70.29,0,0,1,89,79c.46,3.23,5.76,14.16,9.15,18.87,1.38,1.91,4.85,5.83,8.59,9.91l-.05,0a40,40,0,0,0-12.24-3c-2.07-.22-3.87-.42-4.27-1.07l-2.72-4.37.09,5.14c.26,16,6.78,25,18.39,25.43-.34.75-.66,1.52-1,2.29a53,53,0,0,0-6.75,18.26,74.75,74.75,0,0,0-1.16,9.95c-.06,1.29-.09,2.58-.09,3.83,0,14.39,3.94,27.67,10.54,35.52l3.17,3.77-.67-4.88a49.65,49.65,0,0,1-.45-6.74c0-1.63.07-3.27.23-4.88a74.53,74.53,0,0,0,23.5,17.9l1.79-2.09a42.77,42.77,0,0,1-5.27-10.12,107.82,107.82,0,0,0,33.39,7.92l.56-2.77A44.25,44.25,0,0,1,146.64,188a55.39,55.39,0,0,0,11.22-2.15l-.26-2.77a41.29,41.29,0,0,1-14.83-4.48,32.45,32.45,0,0,1-3.34-2.07,73,73,0,0,0,9.32.82c.69,0,1.37,0,1.88,0h1.22l.43-2.77c-.73-.24-1.39-.49-2-.74a34.77,34.77,0,0,1-17.78-15.41l-.2-.36,7,.8,24,2.43,3.27.33,14.23,1.43.44-.31c.31-.23,7.54-5.55,8-13.51l.07-1.3Z"/><path class="cls-3" d="M139.8,102.1a23.33,23.33,0,0,1,.49,2.74l.12-.12c1.79-1.63,9.38-5.23,10.27-10s-1.21-8.79-1.82-11.41.12-3.37-1.54-5.61-6.86-19-7.42-20.75,1.62-4,1.7-1,6.06,14.49,7,16.13,2.54,1.17,4.42-.28S158.9,59.36,160.51,53s.18-12.71.67-12.61c4.16.88,2.36,18.59,1.34,22.85s-3.39,10.4-4.34,11.63-1.11,14.76-1.5,18.43,2.83,3.24,3.81,3,10.66-5.4,11.57-6.3.61-2.29.34-7.58-.22-8.15.27-7.07l2.73,5.93s.56.58,1.55-1,.83-6.49.29-8.43.55-5.51,1.14-2.73,2.37,7.42,1.63,10.71-2.24,3.94-3,6.38-1.13,5.1-2.46,6.79-11.36,8.36-13.89,9.56-15.13,6.86-17.66,8.9-5.09,6.8-5.09,6.8-6.21-1-5.72-2.6c.37-1.21,3.73-5.74,6.18-8.67a7.72,7.72,0,0,1,1.46-4.91"/><path class="cls-3" d="M84.69,51.7a26.46,26.46,0,0,1,3.18-7.55s-.36,4-.27,7.08,4.33,13.08,4.33,13.08,3.42-18,4.32-20.09,3.84-6.45,5.57-7.58,0,2.87-.93,4.79a24.28,24.28,0,0,0-2.1,6.5c-.79,3.62-3,24.33-3.16,27s2.51,11.32,7.58,16.21a3.3,3.3,0,0,0,3.55-.56c1.29-1.36,7.83-5.43,9.8-9.75s6.43-13,7.43-17.15,2.1.94.87,4.34a44.39,44.39,0,0,0-1.81,7.89s3.09-.62,3.92-3.39,2.37-2.4,1.87.24-3,8.75-7.91,13.54S108.48,95.71,107.84,97c1.22,2.86,8.19,9,8.19,9s4-6.42,6.48-6.1c0,0-2.71,5.06-2.7,7.43s2.9,5.79,2.9,5.79l2.46,1.84s-.37,2.83-2.07,3.8a5.26,5.26,0,0,1-3.69.37s-16.74-17.55-20.1-22.21-8.49-15.31-8.9-18.24-3.31-11.26-3.74-14-3-8.68-2-13"/><path class="cls-3" d="M120.5,115.52a25.17,25.17,0,0,1,12.28-3.23,24.14,24.14,0,0,1,3.72.28l.54.09,3.41,2.32,14.89,10.12s19.9,13.37,28.57,19.33a11.42,11.42,0,0,0-5-1.89,2.66,2.66,0,0,0-1.82.28l-4.4,3.77s7,1.73,8.28,2.31.47,2.06.08,2.47a7.83,7.83,0,0,1-7,3.77c4.4,2,6.85-.74,6.85-.74s1.42-2.53,2.66-4.35c.86-1.27,3-1.18,4.25-1-.41,7.38-7.39,12.43-7.39,12.43l-13.7-1.38-3.26-.33-3.57-.36-20.45-2.06-18.88-2.16a6.65,6.65,0,0,1-5.84-7.36l1.5-13.15L113.59,149a6.65,6.65,0,0,0,5.34,7.74L131.19,159a36.16,36.16,0,0,0,18.51,16c.69.28,1.39.54,2.11.78h-1.2q-.92,0-1.83,0A68.7,68.7,0,0,1,134.4,174a28.26,28.26,0,0,0,3.59,3.16,32.3,32.3,0,0,0,4.09,2.59,42,42,0,0,0,15.35,4.65,54.42,54.42,0,0,1-13.94,2.28c4.7,5.43,11.6,9.8,19.84,12.49A103.82,103.82,0,0,1,127.47,190a45.15,45.15,0,0,0,6.47,13.56,71.63,71.63,0,0,1-25.13-20.09,51.69,51.69,0,0,0-.66,8.34,50.73,50.73,0,0,0,.46,6.93c-6.14-7.3-10.21-20.07-10.21-34.6,0-1.27,0-2.53.1-3.76a71.48,71.48,0,0,1,1.13-9.76,51.34,51.34,0,0,1,6.63-17.88,36.38,36.38,0,0,1,4.46-8.37Z"/><path class="cls-1" d="M155.23,136c-4.3-.83-12.35,3.88-15.11,4.5-2.47.56-9.21-.38-10.61-.58a5.21,5.21,0,0,0,2.59-4.47,5.32,5.32,0,0,0-5.4-5.22,5.42,5.42,0,0,0-1.52.21h0s.27-5.15,7.69-7c1-1.59-.56-4.15-.56-4.15s16.34,1.94,22.93,16.69"/><path class="cls-3" d="M148.09,133.5a24.62,24.62,0,0,0-2.18-2.87,5.64,5.64,0,0,1-5.08,2.87c-3.06,0-5.54-2.14-5.54-4.76a3.66,3.66,0,0,1,.05-.57l-3-.7a16.74,16.74,0,0,1,3.57-.88c.26,0,.53-.07.82-.09a1.68,1.68,0,0,0,3.36.11h0a9.64,9.64,0,0,1,6.06,3.45,12.61,12.61,0,0,1,2,3.44"/><path class="cls-3" d="M90.61,240.63l0,0h0l0,0"/><path class="cls-3" d="M118.53,123.22c-.18-.36-3.24-10.33-12.4-14.28S90.59,107,89,104.36c.09,5.48.81,28.29,24,23.35-.09.09,5.57-4.49,5.57-4.49"/><path class="cls-1" d="M41.11,198.75a9.06,9.06,0,0,1-.68-3.08,3.51,3.51,0,0,1,.08-.71,7.12,7.12,0,0,1-2.2-3.35,7.87,7.87,0,0,1,.81-7.51,8.86,8.86,0,0,1,4.41-3.34,8.33,8.33,0,0,1,2.79-.49,7.72,7.72,0,0,1,3.18.69,9,9,0,0,1,5.44-4.36,10.85,10.85,0,0,1,3.61-.65,9.67,9.67,0,0,1,4.23,1A8.1,8.1,0,0,1,67,181.71a6.62,6.62,0,0,1,.3,3.88,7.73,7.73,0,0,1,1.93,3.25l1,2.68-5.29,1.86L64.42,192a6.55,6.55,0,0,0-.36-.87l0,0-.08-.18-.55.17-6.76,2.38L55.11,196l-2.75-1-5.28,1.87a3.6,3.6,0,0,0-.53.21,8.47,8.47,0,0,0,.32,1.17l.44,1.32-5.26,1.86Zm2.63-9.52c0,.05,0,.1,0,.17s.06.16.08.21a2.57,2.57,0,0,0,.49-.14l4.53-1.6a2.87,2.87,0,0,0-.2-.31,5.63,5.63,0,0,0-1.52.38l-2.11.74a10,10,0,0,0-1.32.55M55,185.39a1.23,1.23,0,0,0,0,.35l6-2.1a1.6,1.6,0,0,0,.47-.23l0-.12c0-.08,0-.14-.07-.18a11.55,11.55,0,0,0-2.08.59l-2.2.78a7.44,7.44,0,0,0-2,.91"/><path class="cls-4" d="M55.41,177.94a8.55,8.55,0,0,1,6.76.27,6.68,6.68,0,0,1,3.49,4,4.53,4.53,0,0,1-.13,4c.94.29,1.73,1.34,2.36,3.14l.47,1.34-2.6.92a7.49,7.49,0,0,0-.45-1.07,2.13,2.13,0,0,0-.71-1c-.25-.13-.8,0-1.67.26l-7.23,2.55-1.2,2-2.12-.79-5.78,2c-1,.33-1.45.69-1.5,1.07a5.87,5.87,0,0,0,.42,2.1l-2.6.92-.47-1.34a8.3,8.3,0,0,1-.6-2.58,2.5,2.5,0,0,1,.47-1.35q-1.76-.6-2.67-3.21a6.53,6.53,0,0,1,.63-6.23A7.52,7.52,0,0,1,44,182.1a6.54,6.54,0,0,1,6.3,1c.45-2.37,2.15-4.07,5.11-5.12m-8.71,8.65-2.11.75a5.3,5.3,0,0,0-2.13,1.08,1.5,1.5,0,0,0,0,1.45q.34,1,.87,1.14a2.71,2.71,0,0,0,1.52-.2l5.92-2.09-.11-.31c-.43-1.22-.87-1.94-1.33-2.16a4,4,0,0,0-2.62.34m12-4.23-2.2.78c-1.64.57-2.56,1.09-2.78,1.53a3.48,3.48,0,0,0,.1,2.66l.1.28L61.38,185c1.22-.43,1.65-1.15,1.29-2.17-.27-.78-.71-1.16-1.31-1.14a10.62,10.62,0,0,0-2.65.69"/><path class="cls-1" d="M58.49,175.32A4.57,4.57,0,0,0,58.2,174a5,5,0,0,0-1.44-.34L50,172.75l-1.94,1.58-2.76-2.21-5.92-.79.17,1.74-5.58.54-.31-3.15a7.82,7.82,0,0,1,.45-4,7.63,7.63,0,0,1-1.2-3.69L32.68,160l5.58-.54.19,1.95,5.9-1.62,2.1-2.41,2.28,1.21,7.67-2.1a.66.66,0,0,0,.25-.11,1.08,1.08,0,0,1,0-.16l-.19-1.9,5.58-.55.22,2.24a8.32,8.32,0,0,1-.34,4A6.94,6.94,0,0,1,63,163.28l.44,4.56a5.4,5.4,0,0,1-.28,2.51l.08.12a6.9,6.9,0,0,1,.73,2.83l.28,2.86-5.56.54Zm-3.64-8.38c1.51.16,2.36.24,2.84.27,0-.07,0-.16,0-.27l0-.49h0L57.49,165a3,3,0,0,0-.09-.57l-.28.06-2.45.63Z"/><path class="cls-4" d="M60.76,155.37l.08.81c.2,2.06-.05,3.39-.74,4,.8.52,1.28,1.59,1.44,3.23l.12,1.21-2.75.27c-.13-1.33-.53-2-1.21-1.9a6,6,0,0,0-.91.15l-3.65.93.41,4.15c2.91.31,4.5.46,4.77.43q.91-.09.78-1.83l2.75-.26L62,168a2.88,2.88,0,0,1-.73,2.62,1.62,1.62,0,0,1,.72.59,6,6,0,0,1,.55,2.26l.14,1.44-2.75.27a3.81,3.81,0,0,0-.73-2.21,4.54,4.54,0,0,0-2.23-.71l-7.33-1-1.54,1.24-2-1.58,0-.13L39,169.84a3.35,3.35,0,0,0-.67,0c-.35,0-.49.44-.41,1.23l.07.75-2.75.27-.17-1.74c-.18-1.87.1-3.21.84-4-.88-.64-1.41-1.86-1.58-3.65l-.13-1.34,2.75-.27.05.56c.1,1,.43,1.48,1,1.42l.42-.11,6.69-1.83,1.64-1.89,1.78,1,8.21-2.25a1.54,1.54,0,0,0,1.28-1.78l0-.49ZM50,164.92l-7.51,2,7.79.91Z"/><path class="cls-1" d="M44.16,152.3a21.45,21.45,0,0,1-6.83-3.06c-2.93-2.06-4.22-4.58-3.82-7.48a6.5,6.5,0,0,1,2.78-4.15,8.52,8.52,0,0,1,5.11-2,6.77,6.77,0,0,1,.89.06,4,4,0,0,1,2.8,1.73,4.33,4.33,0,0,1,.76,3.16,4,4,0,0,1-1.61,2.71,4,4,0,0,1-1.33.66l2.46.34,2.53-1.57,2,2.2,5.75.8a10.53,10.53,0,0,0,1.39.12,1.68,1.68,0,0,0,.38,0c.23-.05.25-.08.28-.3s0-.27-.39-.54a8,8,0,0,0-3.19-.91l-3-.42.88-6.33,3.5.48a13.56,13.56,0,0,1,5.09,1.55,6.3,6.3,0,0,1,2.57,3,7.25,7.25,0,0,1,.51,3.88,7.14,7.14,0,0,1-5,6,20.87,20.87,0,0,1-7.13,1.18c-.89,0-1.82-.05-2.76-.14l-2.58,1.53Z"/><path class="cls-4" d="M42.07,137.06a2.61,2.61,0,0,1,1.85,1.14,2.88,2.88,0,0,1,.52,2.14,2.55,2.55,0,0,1-1,1.77,2.64,2.64,0,0,1-2,.5A4.89,4.89,0,0,1,39,141.38a1.62,1.62,0,0,0-1.11,1.31c-.18,1.28.78,2.07,2.86,2.36l5,.68,2-1.22,1.56,1.71,6.26.87a7.3,7.3,0,0,0,2.24.07,1.64,1.64,0,0,0,1.41-1.5c.21-1.56-1.38-2.58-4.8-3l-1.59-.22.49-3.52,2.08.29a12.16,12.16,0,0,1,4.56,1.36,4.91,4.91,0,0,1,2,2.32,5.77,5.77,0,0,1,.41,3.13,5.69,5.69,0,0,1-4.08,4.81,21.14,21.14,0,0,1-9.73.91l-2,1.16L45,151a20.4,20.4,0,0,1-6.79-3q-3.73-2.61-3.24-6.13a5.13,5.13,0,0,1,2.24-3.21,6.53,6.53,0,0,1,4.91-1.68"/><path class="cls-1" d="M58.66,139.25l.5-1.32a6.59,6.59,0,0,0,.29-.9V137l0-.19-.53-.23L52.29,134l-2.81,1L48,132.4l-5.21-2a4.83,4.83,0,0,0-.57-.18c-.1.2-.26.54-.47,1.08l-.5,1.33-5.25-2L37,128a7.63,7.63,0,0,1,2-3.23,7.54,7.54,0,0,1,.6-3.75l.91-2.41,0-.08a6.32,6.32,0,0,1,1.52-2.49,4.11,4.11,0,0,1,.23-2.13l1-2.56,5.24,2-.51,1.33a2.26,2.26,0,0,0-.19.77,2,2,0,0,0,.43.65l3.82,4.63,1.12-.84,1-.74,2.24,2.17,8.12.69h.55a4.14,4.14,0,0,0,.29-.58l.53-1.28,5.2,2-.89,2.34a7,7,0,0,1-1.6,2.64,4.66,4.66,0,0,1-.17,2l-.34,1.12h-.08l-.52,1.35a7.49,7.49,0,0,1-2,3.2,7.79,7.79,0,0,1-.61,3.78l-1,2.65ZM45,122.79a3.48,3.48,0,0,0,.57.27l.92.35-1.19-1.47-.18.46-.12.39"/><path class="cls-4" d="M46.75,114.18a2.8,2.8,0,0,0-.26,1.56,3.23,3.23,0,0,0,.73,1.28l4.42,5.34h.69l0-.09A15.34,15.34,0,0,0,54.11,121l1.72,1.67,8.63.74a2.4,2.4,0,0,0,1.45-.21,2.67,2.67,0,0,0,.82-1.25l2.59,1-.39,1A4.19,4.19,0,0,1,67,126.52a3,3,0,0,1,.1,2.22l-11.76-1.1.77.94,5.14,1.95c.86.32,1.46.38,1.78.18a3.56,3.56,0,0,0,1-1.66l2.58,1-.4,1.07q-1,2.66-2.43,3.06c.53.83.45,2.14-.22,3.93l-.51,1.32-2.58-1a8.21,8.21,0,0,0,.35-1.1,2.07,2.07,0,0,0,.09-1.22c-.1-.25-.58-.55-1.44-.88l-7.17-2.72-2.19.76-1.13-2-5.7-2.16c-.94-.35-1.55-.42-1.84-.19a5.21,5.21,0,0,0-1,1.92l-2.58-1,.5-1.32c.68-1.79,1.49-2.82,2.44-3.09q-.8-1.25.21-3.9l.41-1.07,2.58,1a3.25,3.25,0,0,0-.39,1.78c.09.44.59.83,1.49,1.17l5.84,2.22-4.86-6a2.5,2.5,0,0,0-.85-.75q-.55-.21-1,.87l-2.58-1,.26-.71c.53-1.39,1.16-2.18,1.88-2.35a2.75,2.75,0,0,1-.13-2.26l.47-1.23Z"/><path class="cls-1" d="M74,108.62l.91-1.06a9.08,9.08,0,0,0,.74-1,4.9,4.9,0,0,0-.4-.4l-4.19-3.73-2.92-.1-.47-2.92L65,97a4.88,4.88,0,0,1,.35,1.4,4.1,4.1,0,0,1-1,3.24,4.32,4.32,0,0,1-3.07,1.44H61a4.22,4.22,0,0,1-3-1.17,9.14,9.14,0,0,1-2.41-6v-.17a8.68,8.68,0,0,1,2-5.58,6.64,6.64,0,0,1,3.2-2.13,6.65,6.65,0,0,1,1.75-3.42A8.59,8.59,0,0,1,67.88,82h.67a8.78,8.78,0,0,1,5.7,1.7,4.43,4.43,0,0,1,.45,6.27,4.07,4.07,0,0,1-3.1,1.4h-.06a5,5,0,0,1-1.29-.17l2.69,2.4,3,.13.43,2.89,4.19,3.73a5.12,5.12,0,0,0,.44.36,10,10,0,0,0,.87-.85l1-1,4.16,3.71-1.89,2.12A7.52,7.52,0,0,1,82,106.92a7.51,7.51,0,0,1-1.9,3.29l-1.89,2.12ZM61.79,94.37l.22.07a1.3,1.3,0,0,0-.19-.13l0,.06"/><path class="cls-4" d="M73.35,84.78a2.82,2.82,0,0,1,1,2A2.88,2.88,0,0,1,73.64,89a2.67,2.67,0,0,1-2.06.92,3.09,3.09,0,0,1-2.15-.79,4.33,4.33,0,0,1-1.24-2.47,2.69,2.69,0,0,0-2.15.78,1.18,1.18,0,0,0-.3,1.27,5,5,0,0,0,1.35,1.55L72.37,95l2.29.1L75,97.31l4.57,4.07c.76.67,1.31.94,1.67.8a5.61,5.61,0,0,0,1.63-1.38l2.06,1.84-.94,1c-1.27,1.43-2.39,2.1-3.38,2q.3,1.45-1.59,3.57l-.94,1L76,108.49a4.15,4.15,0,0,0,1.18-1.92c0-.37-.32-.84-1-1.43l-4.57-4.07L69.39,101,69,98.73,63.74,94a5.06,5.06,0,0,0-1.69-1.16,1.2,1.2,0,0,0-1.24.44,2.73,2.73,0,0,0-.54,2.25,4.29,4.29,0,0,1,2.59.94,3.09,3.09,0,0,1,1,2.05,2.66,2.66,0,0,1-.68,2.15,2.83,2.83,0,0,1-2.08,1,2.8,2.8,0,0,1-2.15-.77,7.71,7.71,0,0,1-2-5.06,7.23,7.23,0,0,1,1.66-4.69,4.55,4.55,0,0,1,3.56-1.81,4.52,4.52,0,0,1,1.39-3.74A7.26,7.26,0,0,1,68.1,83.4a7.72,7.72,0,0,1,5.25,1.38"/><path class="cls-1" d="M91.65,97.61a9.36,9.36,0,0,1-2.8-.48c-3.06-1-6-3.39-8.77-7.12l-2.89-.87.38-3.07c-2.33-4.3-3.06-8.1-2.18-11.31A6.57,6.57,0,0,1,78,70.92a6.34,6.34,0,0,1,3.64-1.09,9.17,9.17,0,0,1,2.82.48c2.62.84,5.22,2.8,7.74,5.83l3,.77L95,80c3,4.86,4,9.14,3,12.72a6.55,6.55,0,0,1-2.66,3.83,6.46,6.46,0,0,1-3.68,1.11m-1.73-8a14.57,14.57,0,0,0,1.18,1.59c.23.25.41.33.49.33a.78.78,0,0,0,.34-.14c.26-.18.37-.26.11-.83a14.25,14.25,0,0,0-1-1.68l-2.92-4.32-1-.28-.1,1ZM85.4,81.81l.12-1-2-3a13.88,13.88,0,0,0-1.16-1.57c-.23-.25-.41-.34-.49-.34a.61.61,0,0,0-.31.14c-.28.18-.4.27-.14.84a14.48,14.48,0,0,0,1,1.66l2,3Z"/><path class="cls-4" d="M93.74,78l-.23,2.3q4.48,7,3.11,12a5.22,5.22,0,0,1-2.08,3,5.83,5.83,0,0,1-5.26.46q-4.32-1.41-8.34-7l-2.19-.66L79,85.78q-3.48-6.21-2.27-10.65a5.15,5.15,0,0,1,2.08-3,5.74,5.74,0,0,1,5.22-.44q3.7,1.19,7.38,5.74ZM92.18,88.13,89,83.38l-2.25-.63L87,80.46,84.65,77a16.56,16.56,0,0,0-1.3-1.74,1.86,1.86,0,0,0-2.64-.41,1.88,1.88,0,0,0-.63,2.62,17.07,17.07,0,0,0,1.13,1.85l2.33,3.44,2.22.65-.23,2.3,3.21,4.75a15.86,15.86,0,0,0,1.32,1.78,1.88,1.88,0,0,0,2.67.38,1.86,1.86,0,0,0,.6-2.59,15.49,15.49,0,0,0-1.15-1.89"/><path class="cls-1" d="M108.53,82.8l1.39-.34a5.61,5.61,0,0,0,.89-.27l0,0,.19-.07c0-.14-.06-.32-.11-.56l-1.72-7-2.36-1.78,1.27-2.63-1.34-5.45c-.06-.24-.12-.42-.16-.54a9.8,9.8,0,0,0-1.2.21l-1.36.3-1.33-5.41,2.75-.68a10.18,10.18,0,0,1,2.4-.33,5.26,5.26,0,0,1,1.42.18,7.58,7.58,0,0,1,3.43-1.64l2.76-.68,1.33,5.42-1.35.36a11.41,11.41,0,0,0-1.15.37c0,.13,0,.31.11.56l1.34,5.44L118.13,70l-1.26,2.67.88,3.57a4.68,4.68,0,0,1,.49-1.35,4.13,4.13,0,0,1,2.69-2.09,4.71,4.71,0,0,1,1-.13,4.33,4.33,0,0,1,2.3.68,4.28,4.28,0,0,1,2,2.76,9.13,9.13,0,0,1-1.39,6.29l-.05.08,0,.07A8.62,8.62,0,0,1,120,86a8.19,8.19,0,0,1-2,.26,5.62,5.62,0,0,1-2-.33,7.74,7.74,0,0,1-3.42,1.61l-2.75.67Zm10.2-2.75c0,.09.06.16.08.21l.06,0-.14-.18"/><path class="cls-4" d="M124.87,76.44a7.76,7.76,0,0,1-1.24,5.29,7.17,7.17,0,0,1-4,2.92,4.51,4.51,0,0,1-4-.51c-.39.91-1.51,1.59-3.36,2l-1.37.34-.66-2.69a7.78,7.78,0,0,0,1.1-.34,2.07,2.07,0,0,0,1-.61c.16-.23.13-.8-.09-1.69l-1.84-7.45-1.83-1.37,1-2-1.47-6c-.24-1-.55-1.51-.92-1.6a5.83,5.83,0,0,0-2.13.22l-.66-2.68,1.37-.34c1.85-.46,3.16-.37,3.93.25.38-.91,1.49-1.59,3.32-2l1.38-.34.66,2.69a4.16,4.16,0,0,0-2.06.91,2.33,2.33,0,0,0,0,1.73l1.47,5.94,1.82,1.35-1,2.07,1.69,6.87a5.14,5.14,0,0,0,.75,1.92,1.18,1.18,0,0,0,1.26.33,2.72,2.72,0,0,0,1.72-1.55,4.33,4.33,0,0,1-1.6-2.24,3.08,3.08,0,0,1,.3-2.28,2.71,2.71,0,0,1,1.78-1.39,3,3,0,0,1,3.6,2.23"/><path class="cls-1" d="M125.57,78.75l1.42-.09a6.74,6.74,0,0,0,.93-.1h0l.2,0c0-.14,0-.33,0-.58l-.42-7.15-2-2.17,1.72-2.38-.32-5.58a4.79,4.79,0,0,0-.07-.59h-.42l-.76,0-1.42.09-.33-5.6L127,54.4l.79,0a6.83,6.83,0,0,1,3,.57,7.5,7.5,0,0,1,3.67-1l2.83-.17.33,5.6-1.42.08a11,11,0,0,0-1.18.13c0,.13,0,.33,0,.59l.33,5.58,2,2.16-1.73,2.39.42,7.15a4.15,4.15,0,0,0,.07.57l.62,0h.59l1.39-.06.33,5.57-2.83.17c-.27,0-.53,0-.78,0a6.6,6.6,0,0,1-3-.57,7.7,7.7,0,0,1-3.7,1l-2.83.16Z"/><path class="cls-4" d="M137.52,82.24l-1.42.08q-2.82.17-3.78-1c-.54.82-1.77,1.29-3.67,1.4l-1.41.08-.17-2.76a8.41,8.41,0,0,0,1.15-.13,2.15,2.15,0,0,0,1.15-.41q.28-.3.21-1.68l-.45-7.66-1.55-1.68,1.34-1.86-.35-6.08c-.06-1-.26-1.59-.59-1.76a5,5,0,0,0-2.16-.15l-.17-2.76,1.42-.09c1.9-.11,3.17.21,3.81,1,.55-.83,1.76-1.29,3.64-1.4l1.42-.09.16,2.76a4,4,0,0,0-2.21.5,2.45,2.45,0,0,0-.3,1.73l.36,6.07,1.55,1.69-1.34,1.86.45,7.65c0,.9.21,1.46.49,1.67a4.24,4.24,0,0,0,2.25.25Z"/><path class="cls-1" d="M147,84.52a7.59,7.59,0,0,1-3.61-1.2,6.3,6.3,0,0,1-2.38.41,12.33,12.33,0,0,1-1.43-.09l-2.81-.34.66-5.56,1.41.17a6.23,6.23,0,0,0,.85.07H140c0-.14.06-.32.09-.56l.84-7.08-1.59-2.49,2.12-2,.67-5.6a4,4,0,0,0,0-.6,8.55,8.55,0,0,0-1.16-.2l-1.42-.17.67-5.58,2.82.33a9.15,9.15,0,0,1,3.06.76,3.19,3.19,0,0,1,.6.38,6.28,6.28,0,0,1,2.77-.57,10.37,10.37,0,0,1,1.21.08,8.46,8.46,0,0,1,5.33,2.52,7.57,7.57,0,0,1,1.53,2.63,7.29,7.29,0,0,1,.42,3.31,4.37,4.37,0,0,1-3.59,3.94l-1.38,5.48L148.7,72l-.75,6.3a5.67,5.67,0,0,0,0,.6,5.51,5.51,0,0,0,.84.15l2.52.3L150.61,85Zm3.89-18.47a3.73,3.73,0,0,1-.45-.51,4.11,4.11,0,0,1-.78-1.68l-.24,2Zm-.75-5.51a2.34,2.34,0,0,0-.15.56c.09-.19.18-.38.28-.57h-.13"/><path class="cls-4" d="M155.74,64.88a2.9,2.9,0,0,1-2.38.81,2.58,2.58,0,0,1-1.79-1,2.68,2.68,0,0,1-.54-2,5.17,5.17,0,0,1,1.42-2.72,3.08,3.08,0,0,0-1.73-.8,1.77,1.77,0,0,0-1.56.35,2.79,2.79,0,0,0-.59,1.62l-.72,6,5,.59L152,71l-4.54-.54-.92,7.71a2.48,2.48,0,0,0,.19,1.75,3.2,3.2,0,0,0,1.85.58l1.11.13-.32,2.75-2.19-.26c-1.88-.23-3.06-.76-3.55-1.62-.69.72-2,1-3.87.74l-1.41-.17.33-2.74a7.71,7.71,0,0,0,1.15.08,2.07,2.07,0,0,0,1.2-.21c.23-.16.4-.69.51-1.6l.9-7.59-1.23-1.92,1.64-1.56.73-6.11a4.93,4.93,0,0,0,0-1,1.08,1.08,0,0,0-.29-.87,4.94,4.94,0,0,0-2.13-.55l.33-2.76,1.41.16a8.33,8.33,0,0,1,2.58.61,2.49,2.49,0,0,1,1,1,4.75,4.75,0,0,1,4.06-1,7,7,0,0,1,4.46,2.09A6.48,6.48,0,0,1,156.63,63a3,3,0,0,1-.89,1.92"/><path class="cls-1" d="M164.14,88.81a7.69,7.69,0,0,1-2.49-.41,6.67,6.67,0,0,1-3.24-2.19,5.49,5.49,0,0,1-.83.06,8.71,8.71,0,0,1-2.93-.57L152,84.77l1.83-5.3,1.34.47a6.43,6.43,0,0,0,.9.25h.06l.19,0a4.84,4.84,0,0,0,.21-.53L158.81,73l-1-2.77,2.5-1.51,1.84-5.34a4.92,4.92,0,0,0,.17-.56,9.41,9.41,0,0,0-1.12-.48l-1.31-.48,1.82-5.27,2.68.92A9.07,9.07,0,0,1,167.31,59l.07.05.33.37a5.28,5.28,0,0,1,1.28-.15,8.61,8.61,0,0,1,2.75.52,9.87,9.87,0,0,1,4.54,3.49c1.35,1.77,1.59,4,.72,6.6a4.07,4.07,0,0,1-2.26,2.43,4.57,4.57,0,0,1-1.82.4h-.25l-2.5,5L166,76.29l-1.23,3.55a4.57,4.57,0,0,1,1.49-1.41,3.83,3.83,0,0,1,2-.56,4.16,4.16,0,0,1,1.37.24,4.4,4.4,0,0,1,2.75,2.77,4.12,4.12,0,0,1,0,2.93,7.62,7.62,0,0,1-4.84,4.34,10,10,0,0,1-3.44.66m-.34-5.89.16,0h0a5.58,5.58,0,0,1,0-.82,4.63,4.63,0,0,0-.2.8m5.69-12a4.79,4.79,0,0,1-.34-.59,4,4,0,0,1-.39-2L168,70.43Zm.37-5.56a3.1,3.1,0,0,0-.32.68l0,.1a5.43,5.43,0,0,1,.57-.74l-.22,0"/><path class="cls-4" d="M171.1,83.3a6.29,6.29,0,0,1-4,3.52,7.32,7.32,0,0,1-5,.23,4.6,4.6,0,0,1-3.05-2.59c-.82.56-2.14.52-3.95-.1l-1.34-.47.9-2.61a7.57,7.57,0,0,0,1.11.31,2,2,0,0,0,1.22.06c.25-.11.53-.6.83-1.46L160.32,73l-.79-2.15,1.93-1.16,2-5.84c.33-1,.36-1.58.1-1.86a5.89,5.89,0,0,0-1.91-1l.9-2.61,1.34.46a8,8,0,0,1,2.47,1.2,2.81,2.81,0,0,1,.69,1.14q1.56-1,4.2-.08a8.32,8.32,0,0,1,3.87,3c1.06,1.38,1.22,3.15.51,5.29A2.62,2.62,0,0,1,174.17,71a3,3,0,0,1-2.2.11,2.52,2.52,0,0,1-1.53-1.36,2.66,2.66,0,0,1-.1-2.09,5,5,0,0,1,1.94-2.29,3.16,3.16,0,0,0-1.56-1.24,1.79,1.79,0,0,0-1.6,0,2.8,2.8,0,0,0-.92,1.46l-2,5.72L171,72.94l-1.5,3-4.32-1.49-2.34,6.78a5,5,0,0,0-.42,2,1.18,1.18,0,0,0,.88,1,2.72,2.72,0,0,0,2.29-.36,4.57,4.57,0,0,1,.05-2.48A3.2,3.2,0,0,1,167,79.65a2.46,2.46,0,0,1,2.15-.19,3,3,0,0,1,1.89,1.9,2.84,2.84,0,0,1,.06,1.94"/><path class="cls-1" d="M187.78,104a7.64,7.64,0,0,1-2.41-3A7.53,7.53,0,0,1,182,99.23l-2.19-1.79,3.54-4.32,1.1.87a7.26,7.26,0,0,0,1,.69,2.7,2.7,0,0,0,.38-.41l3.56-4.34V87l2.89-.58,2.34-2.85a4.72,4.72,0,0,1-1.38.42,4.89,4.89,0,0,1-.66,0,4,4,0,0,1-2.62-1,4.32,4.32,0,0,1-1.57-3,4.25,4.25,0,0,1,1-3.24,9,9,0,0,1,5.87-2.65l.09,0h.09A8.64,8.64,0,0,1,201.1,76a6.64,6.64,0,0,1,2.26,3.11,6.73,6.73,0,0,1,3.49,1.61,8.63,8.63,0,0,1,2.86,5.2l0,.08v.09a9.12,9.12,0,0,1-1.45,6.26,4.28,4.28,0,0,1-3,1.66l-.52,0a4.2,4.2,0,0,1-2.73-1,4.09,4.09,0,0,1-1.53-3,5.11,5.11,0,0,1,.12-1.36l-2.29,2.79v3l-2.87.55-3.56,4.34a3.48,3.48,0,0,0-.34.46c.16.16.43.43.89.83l1.06.9L190,105.77Zm9.32-23.66-.06.23.12-.2-.06,0"/><path class="cls-4" d="M207.16,91.47a2.8,2.8,0,0,1-2,1.1,2.86,2.86,0,0,1-2.2-.63,2.68,2.68,0,0,1-1-2,3.13,3.13,0,0,1,.71-2.19,4.35,4.35,0,0,1,2.42-1.33,2.67,2.67,0,0,0-.88-2.12,1.17,1.17,0,0,0-1.27-.25,5.22,5.22,0,0,0-1.5,1.42l-4.49,5.46V93.2l-2.22.43-3.89,4.73c-.64.79-.88,1.35-.73,1.7a5.82,5.82,0,0,0,1.45,1.58l-1.75,2.13-1.09-.89c-1.48-1.22-2.19-2.31-2.15-3.3q-1.44.35-3.63-1.44l-1.09-.9,1.75-2.14a4.22,4.22,0,0,0,2,1.11c.37,0,.83-.36,1.38-1l3.89-4.73V88.17l2.24-.45,4.49-5.47a5.17,5.17,0,0,0,1.09-1.74,1.2,1.2,0,0,0-.49-1.22,2.72,2.72,0,0,0-2.27-.45,4.27,4.27,0,0,1-.84,2.63,3,3,0,0,1-2,1.12,2.7,2.7,0,0,1-2.18-.59,2.84,2.84,0,0,1-1.05-2,2.79,2.79,0,0,1,.68-2.18,7.72,7.72,0,0,1,5-2.17,7.18,7.18,0,0,1,4.75,1.47,4.52,4.52,0,0,1,2,3.48A4.52,4.52,0,0,1,206,81.8a7.24,7.24,0,0,1,2.37,4.37,7.77,7.77,0,0,1-1.16,5.3"/><path class="cls-1" d="M202,121.78a8.4,8.4,0,0,1-1.71-3.59,6.82,6.82,0,0,1-2.55-2.3l-2.68-3.71a5.19,5.19,0,0,1-1-2.31l-.14-.07a6.86,6.86,0,0,1-2.06-2.07l-1.68-2.33,4.52-3.26.84,1.11a4,4,0,0,0,.93,1,5.2,5.2,0,0,0,1.42-.43l6.25-2.62.89-2.35,3.49.52,5.51-2.31-1-1.41,4.54-3.29,1.85,2.57A7.77,7.77,0,0,1,221,98.59a7.46,7.46,0,0,1,2.89,2.58l1.63,2.24L221,106.69l-1.15-1.58-4.28,4.37-.59,3.14-2.58.11-5.56,5.68a.86.86,0,0,0-.16.22l.08.14,1.13,1.55-4.55,3.28Zm-.43-10.16c.15.2.27.34.36.44a2.09,2.09,0,0,0,.22-.2l1.79-1.77-1-1.45-2.59,1.2.15.23.28.4h0Z"/><path class="cls-4" d="M203.67,121.62l-.48-.67q-1.81-2.51-1.39-3.83c-1,0-1.91-.73-2.87-2.06l-.71-1,2.24-1.62c.78,1.08,1.45,1.43,2,1a6.17,6.17,0,0,0,.71-.59l2.68-2.64-2.44-3.38c-2.68,1.2-4.12,1.88-4.34,2-.49.36-.41,1,.25,2l-2.24,1.62-.83-1.15a2.86,2.86,0,0,1-.68-2.63,1.59,1.59,0,0,1-.92-.15A5.69,5.69,0,0,1,193,106.9l-.85-1.18,2.24-1.61a3.84,3.84,0,0,0,1.75,1.54,4.59,4.59,0,0,0,2.28-.52l6.82-2.85.7-1.85,2.51.37.08.1,6.57-2.75a2.85,2.85,0,0,0,.59-.3c.29-.21.2-.63-.26-1.27L215,96l2.24-1.62,1,1.42c1.11,1.53,1.54,2.82,1.31,3.89,1.08.11,2.15.89,3.2,2.35l.79,1.09-2.24,1.62-.32-.45c-.6-.82-1.12-1.06-1.58-.73a3.77,3.77,0,0,0-.31.31l-4.85,5-.47,2.46-2,.08-6,6.09a1.54,1.54,0,0,0-.21,2.18l.29.4Zm4.51-13.71,5.5-5.48-7.18,3.15Z"/><path class="cls-1" d="M208.4,137.78a6.62,6.62,0,0,1-.54-3.23,6.28,6.28,0,0,1-1.77-2.65l-1.19-3a6,6,0,0,1-.48-3,5.37,5.37,0,0,1-1.63-2.35l-.87-2.21,5.24-2.06.51,1.35a1.06,1.06,0,0,0,1.15.86l8.07-.21,1.13-1.8,1.81.4,4.89-4.47a2.73,2.73,0,0,0,.52-.58,3.68,3.68,0,0,0-.28-1.06l-.47-1.3,5.19-2,1,2.61a6.49,6.49,0,0,1,.52,3.13,4.91,4.91,0,0,1,1.59,2.23l1.44,3.68a4.78,4.78,0,0,1,.38,2.3,4.9,4.9,0,0,1,1.29,2l1,2.49-5.25,2.06-.5-1.36c-.31-.85-.58-1-.58-1a3,3,0,0,0-1.29-.18H229l-5.5.18-1.12,1.9-2.12-.63-6.13,5.66c-.31.28-.36.43-.36.44a3.66,3.66,0,0,0,.28,1l.52,1.32-5.22,2Zm2.3-9.44.58-.53-.77,0Z"/><path class="cls-4" d="M210.14,138.3l-.41-1c-.59-1.49-.64-2.62-.17-3.4-.86-.2-1.57-1-2.14-2.48l-.41-1,2.57-1c.32.7.67,1,1.06.82a3.89,3.89,0,0,0,.89-.65l3.58-3.24-5.57.18a2,2,0,0,0-.61.07.31.31,0,0,0-.23.27,5.86,5.86,0,0,0,.38,1.26l-2.58,1-.27-.7c-.56-1.41-.57-2.48-.06-3.2a3.26,3.26,0,0,1-2.06-2.19l-.35-.89,2.57-1a2.49,2.49,0,0,0,2.58,1.78l8.78-.23,1-1.6,1.55.35,5.44-5a2.68,2.68,0,0,0,1-1.39,4.11,4.11,0,0,0-.35-1.79l2.57-1,.51,1.29a3.76,3.76,0,0,1,.11,3.35,2.86,2.86,0,0,1,2,2l.64,1.62-2.57,1-.48-1.22c-.11-.27-.23-.37-.37-.32a1.45,1.45,0,0,0-.41.31l-3.35,3.11,4.5-.18h.49c.16-.06.14-.37-.08-.92l2.57-1,.51,1.29a2.69,2.69,0,0,1,0,2.42,2.86,2.86,0,0,1,1.64,1.83l.46,1.17-2.58,1a3.08,3.08,0,0,0-1.23-1.76,4.78,4.78,0,0,0-2.31-.35l-6.29.21-1,1.61-1.83-.55-6.73,6.22a2.14,2.14,0,0,0-.81,1.36,4.09,4.09,0,0,0,.38,1.59Z"/><path class="cls-1" d="M210.22,148.13a7.5,7.5,0,0,1,.08-3.79,7.7,7.7,0,0,1-1.43-3.55l-.51-2.79,5.52-1,.25,1.4a5.33,5.33,0,0,0,.22.9l0,.06,0,.19.57-.08,7-1.29,1.9-2.24,2.59,1.41,5.48-1a5.89,5.89,0,0,0,.59-.14c0-.23-.06-.6-.16-1.17l-.26-1.4,5.52-1,.51,2.79a7.65,7.65,0,0,1-.08,3.83,7.47,7.47,0,0,1,1.42,3.52l.52,2.79-5.52,1-.26-1.4A8,8,0,0,0,234,144a5.49,5.49,0,0,0-.59.08l-5.48,1L226,147.33l-2.57-1.41-7.05,1.29a3.47,3.47,0,0,0-.55.13,7.83,7.83,0,0,0,.13,1.2l.23,1.38-5.49,1Z"/><path class="cls-4" d="M211.87,149.27l-.25-1.39c-.34-1.86-.18-3.15.49-3.87-.88-.44-1.49-1.6-1.84-3.48l-.25-1.39,2.71-.5a7.53,7.53,0,0,0,.28,1.12,2,2,0,0,0,.55,1.09c.22.17.78.17,1.69,0l7.54-1.39,1.48-1.74,2,1.1,6-1.09c1-.19,1.55-.45,1.68-.8a5.08,5.08,0,0,0-.11-2.17l2.71-.49.26,1.39c.34,1.87.18,3.18-.49,3.9.88.44,1.5,1.59,1.84,3.44l.25,1.4-2.72.49c-.22-1.21-.47-1.92-.76-2.13a2.44,2.44,0,0,0-1.75-.08l-6,1.1-1.48,1.74-2-1.1-7.54,1.38c-.89.16-1.42.39-1.6.69a4.33,4.33,0,0,0,0,2.27Z"/><path class="cls-1" d="M224.11,168.49a28.48,28.48,0,0,1-5.94-1.14c-2.83-.85-4.77-2-5.94-3.39a7.78,7.78,0,0,1-1.73-5.2,6.54,6.54,0,0,1,1.05-3.72,7.84,7.84,0,0,1-.68-3.71l0-2.84,5.61.09,0,1.42a6,6,0,0,0,0,.94V151s0,.16,0,.2a4.14,4.14,0,0,0,.57,0l7.16.11,2.32-1.83,2.22,1.9,5.72.09.46,0a9.26,9.26,0,0,0,.1-1.21l0-1.4,5.58.09,0,2.84a9.55,9.55,0,0,1-.44,3.12,3.23,3.23,0,0,1-.33.64,6.86,6.86,0,0,1,.91,3.84c0,2.92-1.38,6.74-7.49,8.33a26,26,0,0,1-4.8.76l-2.24,1.63Zm8-8.19h.6a9,9,0,0,0,1.67-.09c.51-.12.59-.28.6-.72v-.09a5.71,5.71,0,0,0-.65,0l-5.61-.08-.57.46.59.51Zm-15.74-1.15c0,.55,1.3.93,3.34,1l4.45.07.6-.49-.58-.48-7.3-.11-.51,0v0"/><path class="cls-4" d="M226.32,168.35l-1.69-1.24a27.39,27.39,0,0,1-6-1.12c-2.54-.76-4.29-1.74-5.26-2.92a6.38,6.38,0,0,1-1.41-4.29,4.42,4.42,0,0,1,1.5-3.66c-.78-.6-1.15-1.86-1.12-3.77l0-1.41,2.76,0a7.42,7.42,0,0,0,0,1.15,2,2,0,0,0,.33,1.18q.27.31,1.65.33l7.67.12,1.8-1.42,1.72,1.47,6.12.1c1,0,1.6-.15,1.78-.49a5.7,5.7,0,0,0,.33-2.11l2.77,0,0,1.41a8.5,8.5,0,0,1-.33,2.63,2.49,2.49,0,0,1-.91,1.11,4.68,4.68,0,0,1,1.39,3.87c0,3.55-2.2,5.88-6.42,7a24.88,24.88,0,0,1-4.95.75Zm-6.64-6.82,5,.08,1.8-1.45,1.76,1.5,3.88.06a13.35,13.35,0,0,0,2.63-.12,2,2,0,0,0,1.68-2.08,1.34,1.34,0,0,0-.57-1.33,3.35,3.35,0,0,0-1.48-.25l-6.12-.09-1.76,1.42-1.76-1.48-7.66-.11a3.57,3.57,0,0,0-1.45.17,1.32,1.32,0,0,0-.65,1.28c0,1.55,1.56,2.36,4.74,2.4"/><path class="cls-1" d="M230.05,190.88a9.88,9.88,0,0,1-2.27-.29,4.07,4.07,0,0,1-2.61-2.05,4.59,4.59,0,0,1-.56-2l-5.23-2.07,1.08-4.27-3.65-.92a4.49,4.49,0,0,1,1.54,1.37,3.89,3.89,0,0,1,.59,3.3,4.37,4.37,0,0,1-2.52,3,4.63,4.63,0,0,1-1.9.44,3.86,3.86,0,0,1-1-.14,7.67,7.67,0,0,1-4.73-4.47,8.67,8.67,0,0,1-.74-5.88,6.57,6.57,0,0,1,1.91-3.41,7.77,7.77,0,0,1,.19-3.8l.7-2.75,5.43,1.38-.35,1.37a9.21,9.21,0,0,0-.18.92v.06s0,.15,0,.2l.55.15,6.9,1.76,2.67-1.25,1.72,2.36,5.48,1.39a4.55,4.55,0,0,0,.57.12,9.07,9.07,0,0,0,.38-1.16l.37-1.34,5.41,1.37L239,177a9.06,9.06,0,0,1-1.22,3.05l0,0,0,0a3.89,3.89,0,0,1-.34.36,7.23,7.23,0,0,1,0,4.05,9.69,9.69,0,0,1-3.1,4.81,6.13,6.13,0,0,1-4.25,1.57m.81-8.07a5.77,5.77,0,0,1,.78.51c0-.1,0-.17,0-.22a2.41,2.41,0,0,0-.7-.26Zm-4.77.39a4.63,4.63,0,0,1,.56-.39,4,4,0,0,1,2-.56l-2.17-.55Zm-12.43-4.67v.18a6.93,6.93,0,0,1,.77-.05h0a5.2,5.2,0,0,0-.81-.13"/><path class="cls-4" d="M213.9,185.83a6.31,6.31,0,0,1-3.85-3.7,7.31,7.31,0,0,1-.64-4.93,4.61,4.61,0,0,1,2.32-3.27c-.62-.77-.69-2.08-.22-3.94l.35-1.38,2.68.68a6.91,6.91,0,0,0-.22,1.14,2,2,0,0,0,0,1.21c.13.25.64.49,1.53.71l7.39,1.88,2.07-1,1.33,1.83,6,1.52q1.47.38,1.86-.06a5.75,5.75,0,0,0,.81-2l2.68.68-.35,1.37a7.91,7.91,0,0,1-1,2.57,2.79,2.79,0,0,1-1.08.78c.75,1,.89,2.37.43,4.18a8.32,8.32,0,0,1-2.67,4.11c-1.29,1.16-3,1.48-5.23,1a2.63,2.63,0,0,1-1.7-1.35,2.94,2.94,0,0,1-.29-2.18,2.53,2.53,0,0,1,1.23-1.64,2.66,2.66,0,0,1,2.07-.27,5,5,0,0,1,2.45,1.74,3.09,3.09,0,0,0,1.09-1.66,1.79,1.79,0,0,0-.13-1.59,2.81,2.81,0,0,0-1.53-.8L225.44,180l-1.23,4.85-3.15-1.24,1.13-4.43-7-1.77a5.15,5.15,0,0,0-2-.25,1.21,1.21,0,0,0-.89,1,2.73,2.73,0,0,0,.55,2.24,4.7,4.7,0,0,1,2.49-.15,3.17,3.17,0,0,1,1.85,1.25,2.47,2.47,0,0,1,.37,2.13,2.93,2.93,0,0,1-1.73,2,2.75,2.75,0,0,1-1.93.22"/><path class="cls-1" d="M222.13,211.12A9.11,9.11,0,0,1,218,210a8.58,8.58,0,0,1-4-4.16,4.89,4.89,0,0,1-2,.45,5.65,5.65,0,0,1-2.65-.7l-5.06-2.67a7.59,7.59,0,0,0-.92-.42l-.05.09-.88,1.67-5-2.62,5.09-9.67a7.51,7.51,0,0,1,2.41-2.93,7.69,7.69,0,0,1,1.07-3.68l1.32-2.51,5,2.61-.66,1.26a5.59,5.59,0,0,0-.39.86l0,0-.08.19c.12.07.28.17.5.28l6.29,3.31,2.92-.63,1.1,2.75,5,2.63a5.6,5.6,0,0,0,.56.26,9.51,9.51,0,0,0,.6-1l.66-1.26,5,2.62-1.32,2.5a9.39,9.39,0,0,1-1.8,2.6,3.88,3.88,0,0,1-.66.46,8.67,8.67,0,0,1-1.18,4.43,7.76,7.76,0,0,1-4.61,4.12,6.58,6.58,0,0,1-1.93.28m-3.24-9.7s.19.36,1.31,1l1.9,1a3,3,0,0,0,1.31.45h0c.13,0,.15,0,.25-.18l.08-.18A5.45,5.45,0,0,0,223,203l-4-2.1a1.11,1.11,0,0,0-.11.52M212,198.15a8.65,8.65,0,0,0,1.12.52,6.8,6.8,0,0,0,.4-.67l-5.62-2.95a4.51,4.51,0,0,0-.52-.25c-.1.15-.24.36-.44.69Z"/><path class="cls-4" d="M199.27,201l3.28-6.23,8.76,4.61a4.43,4.43,0,0,0,2.19.76c.35-.08.77-.58,1.26-1.51l.66-1.25-6.87-3.62a2.54,2.54,0,0,0-1.68-.46c-.32.12-.78.73-1.38,1.82L203,193.86l.66-1.25c.88-1.67,1.8-2.58,2.78-2.73-.42-.9-.19-2.19.7-3.88l.66-1.25,2.44,1.29a10.27,10.27,0,0,0-.48,1.05,2.15,2.15,0,0,0-.24,1.19q.1.41,1.32,1.05l6.75,3.55,2.26-.48.84,2.12,5.46,2.87c.9.47,1.51.61,1.82.42a5.1,5.1,0,0,0,1.26-1.78l2.44,1.29-.66,1.25a8.34,8.34,0,0,1-1.48,2.19,2.41,2.41,0,0,1-1.34.56q.68,1.89-.82,4.74a6.32,6.32,0,0,1-3.75,3.42,6.65,6.65,0,0,1-5-.76,7,7,0,0,1-3.9-5.18,3.79,3.79,0,0,1-4.82.77l-5.07-2.67a4,4,0,0,0-1.89-.64c-.37,0-.7.34-1,.91l-.21.41Zm20.27,2.6,1.89,1q2.59,1.37,3.48-.33a1.59,1.59,0,0,0,.22-1.39,3.4,3.4,0,0,0-1.47-1.17L218.39,199l-.46.87a2.57,2.57,0,0,0-.36,2.12,4.12,4.12,0,0,0,2,1.67"/><path class="cls-1" d="M198.45,235.42l1-1a9.14,9.14,0,0,0,.79-.92,3.41,3.41,0,0,0-.4-.43l-4-3.86-3-.2-.33-3-5.17-4.94a3.48,3.48,0,0,0-.43-.37,10.57,10.57,0,0,0-.92.84l-1,1-4-3.86,2-2.05a7.68,7.68,0,0,1,3.15-2.18,7.55,7.55,0,0,1,2-3.22l2-2,2.44,2.35,1.09-1.13-2.45-2.35,1.53-1.59a7.58,7.58,0,0,1,3.07-2.15,3.57,3.57,0,0,1,.19-.68,8.87,8.87,0,0,1,1.9-2.57l1.55-1.62,4.06,3.88-1,1a7.82,7.82,0,0,0-.61.71l0,0-.13.15a5,5,0,0,0,.41.42l5.16,4.94,3,.21.33,3,4,3.85a3.75,3.75,0,0,0,.45.39,9.57,9.57,0,0,0,.86-.81l1-1,4,3.88-1.55,1.62a9.06,9.06,0,0,1-2.46,2,3.42,3.42,0,0,1-.61.22,3.89,3.89,0,0,1-.21.66,9.31,9.31,0,0,1-1.89,2.52l-1.53,1.6-4-3.86.55-.6-6.51-3.31,3.47,6.46c.12-.11.24-.25.38-.4l1-1.05,4.06,3.89-2,2A7.47,7.47,0,0,1,206.5,234a7.52,7.52,0,0,1-2,3.24l-2,2.05Z"/><path class="cls-4" d="M183,218.63l1-1q2-2.07,3.45-1.89c-.16-1,.41-2.14,1.71-3.5l1-1,2,1.92c-.84.9-1.26,1.52-1.28,1.87s.3.84.95,1.46l6.18,5.92-5-9.25,2.3-2.4,9.12,4.5-6-5.71c-.68-.65-1.23-.94-1.65-.85a4.25,4.25,0,0,0-1.62,1.27l-2-1.91.54-.57q2-2.06,3.45-1.89a3,3,0,0,1,.11-1.4,8,8,0,0,1,1.61-2.11l.57-.59,2,1.91a7.32,7.32,0,0,0-.74.88,2,2,0,0,0-.56,1.08c0,.28.32.74,1,1.37l5.54,5.3,2.31.16.26,2.3,4.4,4.21c.72.7,1.27,1,1.62.9a5.21,5.21,0,0,0,1.69-1.37l2,1.91-.57.6a8.17,8.17,0,0,1-2,1.7,2.71,2.71,0,0,1-1.4.17,2.46,2.46,0,0,1-.13,1.42,7.94,7.94,0,0,1-1.6,2.1l-.55.57-2-1.91c.55-.6.8-.92.75-1a2.09,2.09,0,0,0-.28-.19l-11.81-6,6.1,11.36a1.9,1.9,0,0,0,.29.41c.21.2.84-.27,1.9-1.41l2,1.91-1,1c-1.3,1.37-2.44,2-3.42,1.87.16,1-.42,2.15-1.74,3.53l-1,1-2-1.91c.87-.9,1.3-1.53,1.31-1.89s-.31-.85-1-1.47l-4.4-4.21-2.31-.16-.26-2.3-5.53-5.3c-.73-.69-1.28-1-1.64-.86a6,6,0,0,0-1.7,1.35Z"/><path class="cls-1" d="M178.28,247.66l1.11-.76a2.41,2.41,0,0,0,.71-.62,2.76,2.76,0,0,0,0-1l-.8-6.27-2.23-.83.75-3.1-3.68-6c-.14-.22-.24-.37-.32-.47a8.88,8.88,0,0,0-1.08.56l-1.2.71-2.91-4.77,2.42-1.48a7.68,7.68,0,0,1,3.57-1.28,7.64,7.64,0,0,1,2.81-2.61l2.42-1.47,2.92,4.78-1.22.74a8,8,0,0,0-.77.53l0,0,0,0-.14.1a3.81,3.81,0,0,0,.27.5l3.68,6,3.09.71-.19,2.16,2.5,1.88a29.6,29.6,0,0,0,3.51,2.37,2.61,2.61,0,0,0,.89-.33l1.18-.61,2.87,4.7-2.06,1.26a7.09,7.09,0,0,1-3.52,1.17,5.19,5.19,0,0,1-2.09,2.26l-2.62,1.6-.53.32a5.38,5.38,0,0,1-2.66.87,5,5,0,0,1-1.89,1.9l-1.8,1.1Zm7.65-4.76.45-.27-.56-.42Z"/><path class="cls-4" d="M180.19,248.07a3.22,3.22,0,0,0,1.23-1.25,3.7,3.7,0,0,0,.06-1.69l-.91-7.12-1.85-.68.59-2.44-4-6.55c-.47-.77-.88-1.18-1.22-1.24a4.32,4.32,0,0,0-2.11.84l-1.44-2.36,1.21-.73c1.61-1,2.87-1.29,3.79-.93.1-1,1-2,2.59-3l1.2-.74,1.44,2.36a8.49,8.49,0,0,0-.94.65,2.14,2.14,0,0,0-.81.84c-.1.34.09.9.56,1.66l4,6.54,2.47.57-.15,1.71,3.14,2.36a24.48,24.48,0,0,0,4,2.6,2.76,2.76,0,0,0,1.95-.44l1.44,2.36-.85.52a4.84,4.84,0,0,1-3.79.85,3.55,3.55,0,0,1-1.82,2.57l-1.41.86-1.44-2.36.56-.34c.68-.41.92-.77.74-1.07a1.93,1.93,0,0,0-.48-.47l-4-3,.78,5a4.8,4.8,0,0,0,.09.5,1.66,1.66,0,0,0,.11.34c.13.2.39.19.78-.05l.65-.4,1.44,2.36-1,.58a3.16,3.16,0,0,1-2.9.5,3,3,0,0,1-1.65,2.28l-.59.36Z"/><path class="cls-1" d="M72.4,214a1.79,1.79,0,0,1-1.37.54,1.88,1.88,0,0,1-1.36-.59,1.75,1.75,0,0,1-.49-1.37,2,2,0,0,1,.62-1.34,2.52,2.52,0,0,1,1.42-.6,1.24,1.24,0,0,0-.3-1,.49.49,0,0,0-.51-.16,2.58,2.58,0,0,0-.87.63l-2.89,2.77-.17,1.4-1.41.1-2.5,2.39c-.33.32-.5.55-.49.69a3.36,3.36,0,0,0,.81,1.09l-1.44,1.38-.7-.74a3.06,3.06,0,0,1-1.08-1.95,3,3,0,0,1-1.88-1.15l-.7-.74L58.53,214a4.72,4.72,0,0,0,1.12.83,1.4,1.4,0,0,0,.64-.42L62.8,212l.16-1.4,1.41-.1,2.9-2.77a2.52,2.52,0,0,0,.67-.84.48.48,0,0,0-.14-.52,1.28,1.28,0,0,0-1-.36,2.59,2.59,0,0,1-.67,1.39,2,2,0,0,1-1.37.56,1.71,1.71,0,0,1-1.34-.55,1.84,1.84,0,0,1-.52-1.39,1.76,1.76,0,0,1,.6-1.34,4.61,4.61,0,0,1,3.15-.95A4.39,4.39,0,0,1,69.45,205a2.92,2.92,0,0,1,.94,2.05,2.9,2.9,0,0,1,2,1,4.43,4.43,0,0,1,1.11,2.81A4.6,4.6,0,0,1,72.4,214"/><path class="cls-1" d="M79.48,224l-1.41.26q-3.18,3.67-6.18,3.74a3.19,3.19,0,0,1-2.16-.69,3.55,3.55,0,0,1-1.22-3A10.31,10.31,0,0,1,71,218.49v-1.42l1.44-.26c1.92-2,3.78-3,5.58-3a3.23,3.23,0,0,1,2.16.68,3.53,3.53,0,0,1,1.2,3,9.6,9.6,0,0,1-1.94,5.09Zm-6.22.51,2-2.5,0-1.42,1.41-.26,1.46-1.8a11.49,11.49,0,0,0,.74-1,.92.92,0,0,0-1.37-1.21,5.69,5.69,0,0,0-.9,1l-1.46,1.8,0,1.42-1.4.26-2,2.5a8.55,8.55,0,0,0-.74,1,.93.93,0,0,0,1.37,1.24,7.73,7.73,0,0,0,.89-1"/><path class="cls-1" d="M90.05,230.77l-1.36.43q-2.72,4-5.7,4.45a3.15,3.15,0,0,1-2.22-.43,3.49,3.49,0,0,1-1.56-2.8A10.28,10.28,0,0,1,81,226.33l-.17-1.4,1.39-.43q2.5-3.3,5.18-3.68a3.23,3.23,0,0,1,2.23.42,3.52,3.52,0,0,1,1.54,2.8,9.52,9.52,0,0,1-1.32,5.28ZM83.94,232l1.72-2.72-.2-1.41,1.36-.43,1.24-2a10.1,10.1,0,0,0,.61-1.06.92.92,0,0,0-1.5-1,5.46,5.46,0,0,0-.78,1l-1.23,2,.2,1.42-1.37.42L82.28,231a9.6,9.6,0,0,0-.62,1.07.89.89,0,0,0,.34,1.24.87.87,0,0,0,1.17-.18,7.12,7.12,0,0,0,.77-1.08"/><path class="cls-1" d="M98,240.15A3.84,3.84,0,0,1,95.33,242a4.37,4.37,0,0,1-3-.2,2.92,2.92,0,0,1-1.6-1.59,3.06,3.06,0,0,1-2.21-.43l-.9-.43.86-1.79a3.91,3.91,0,0,0,1.3.46c.12,0,.29-.26.5-.7l1.88-3.91L91.85,232l1.28-.59,1.49-3.1c.21-.42.28-.7.23-.82a3.66,3.66,0,0,0-1.16-.73l.86-1.79.9.43c1,.47,1.55,1,1.71,1.45a3.06,3.06,0,0,1,2.36.33,5,5,0,0,1,2.08,2.05,3.33,3.33,0,0,1-.07,3.25,1.7,1.7,0,0,1-1.06.92,1.86,1.86,0,0,1-1.41-.11,1.65,1.65,0,0,1-.89-1,1.71,1.71,0,0,1,.08-1.35,2.87,2.87,0,0,1,1.2-1.13,1.57,1.57,0,0,0-.62-.56.86.86,0,0,0-.76-.11,1.52,1.52,0,0,0-.51.68l-1.43,3,2.62,1.26-1.29,2-2.35-1.13-1.7,3.52a3,3,0,0,0-.37,1c0,.17.12.31.35.42a1.31,1.31,0,0,0,1,0,2.59,2.59,0,0,1,.19-1.38,2,2,0,0,1,1-1,1.57,1.57,0,0,1,1.4,0,1.9,1.9,0,0,1,1.06,1.35,1.75,1.75,0,0,1-.13,1.25"/><path class="cls-1" d="M109,244a4.55,4.55,0,0,1-2.39,2.27,4.39,4.39,0,0,1-3,.14,3,3,0,0,1-1.76-1.41,3,3,0,0,1-2.22-.19l-1-.34.67-1.87a3.69,3.69,0,0,0,1.34.31c.12-.05.26-.3.42-.74l1.45-4.09-.48-1.32,1.21-.73,1.16-3.26q.24-.64.12-.84a3.25,3.25,0,0,0-1.21-.6l.66-1.88,1,.34a3,3,0,0,1,1.84,1.26,2.93,2.93,0,0,1,2.2.18l1,.34-.66,1.87a5,5,0,0,0-1.38-.23,1.31,1.31,0,0,0-.38.66l-1.16,3.26.48,1.33-1.21.73L104.27,243A2.67,2.67,0,0,0,104,244a.49.49,0,0,0,.36.4,1.3,1.3,0,0,0,1-.11,2.6,2.6,0,0,1,0-1.54,1.94,1.94,0,0,1,1-1.11,1.7,1.7,0,0,1,1.44-.12,1.88,1.88,0,0,1,1.09,1A1.8,1.8,0,0,1,109,244"/><path class="cls-1" d="M120.3,247a3.85,3.85,0,0,1-2.19,2.38,4.45,4.45,0,0,1-3,.44,2.94,2.94,0,0,1-1.9-1.21,3.11,3.11,0,0,1-2.25,0l-1-.23.46-1.94a3.69,3.69,0,0,0,1.37.18c.11-.05.22-.32.33-.8l1-4.21-.62-1.27,1.12-.85.8-3.34c.11-.47.13-.75,0-.86a3.7,3.7,0,0,0-1.29-.46l.46-1.94,1,.23a3,3,0,0,1,2,1.06A3,3,0,0,1,119,234a5,5,0,0,1,2.47,1.56,3.33,3.33,0,0,1,.63,3.19,1.69,1.69,0,0,1-.84,1.12,1.86,1.86,0,0,1-1.4.2,1.67,1.67,0,0,1-1.09-.79,1.71,1.71,0,0,1-.2-1.34,2.81,2.81,0,0,1,.93-1.36,1.56,1.56,0,0,0-.73-.42.86.86,0,0,0-.77.06,1.53,1.53,0,0,0-.35.77l-.77,3.2,2.84.68-.84,2.21-2.54-.61-.91,3.81a3.19,3.19,0,0,0-.14,1.09.53.53,0,0,0,.44.34,1.3,1.3,0,0,0,1-.23,2.63,2.63,0,0,1-.11-1.39,2.06,2.06,0,0,1,.8-1.21,1.64,1.64,0,0,1,1.38-.26,1.88,1.88,0,0,1,1.32,1.09,1.74,1.74,0,0,1,.14,1.25"/><path class="cls-1" d="M126.54,250.16c-.31,2-1.87,3.51-4.69,4.39l-.52-1.16a7.48,7.48,0,0,0,1.2-.87,2.6,2.6,0,0,0,.57-1.33,2.25,2.25,0,0,1-1.09-2.32,2.18,2.18,0,0,1,.9-1.46,2.14,2.14,0,0,1,1.67-.43,2.12,2.12,0,0,1,1.63,1.1,3.18,3.18,0,0,1,.33,2.08"/><path class="cls-1" d="M147.57,238.31c-.59,0-.93.09-1,.2a1.49,1.49,0,0,0-.14.81l0,3.46.91,1.05-.89,1.12,0,2.78c0,2.08-.49,3.47-1.51,4.16a5,5,0,0,1-2.74.73,4.77,4.77,0,0,1-2.71-.69,3.27,3.27,0,0,1-1.46-2.26,10.76,10.76,0,0,1-.14-1.82l0-2.82-.91-1.11.89-1.07,0-3.46c0-.46-.05-.74-.15-.83a2.71,2.71,0,0,0-1.21-.16v-2h.85a3,3,0,0,1,2.14.55,3.06,3.06,0,0,1,2.17-.59h.69v2a2.1,2.1,0,0,0-1,.18,1.15,1.15,0,0,0-.18.82l0,3.46.88,1.06-.86,1.12,0,3.74c0,1.06.44,1.58,1.29,1.58s1.3-.54,1.29-1.6l0-3.74-.89-1.11.87-1.07,0-3.46c0-.44-.07-.72-.19-.82a2,2,0,0,0-1-.17l0-2h.5a2.73,2.73,0,0,1,2,.55,2.77,2.77,0,0,1,2-.58h.52Z"/><path class="cls-1" d="M161.18,238.8a1.78,1.78,0,0,1-.36,1.43,1.91,1.91,0,0,1-1.28.76,1.74,1.74,0,0,1-1.39-.41,2,2,0,0,1-.73-1.29,2.6,2.6,0,0,1,.35-1.51,1.31,1.31,0,0,0-1-.32.49.49,0,0,0-.43.32,2.65,2.65,0,0,0,0,1.08l.54,4,1,1-.74,1.21.46,3.42c.07.46.16.72.28.8a3.37,3.37,0,0,0,1.36,0l.27,2-1,.13a3,3,0,0,1-2.21-.27,3,3,0,0,1-2,.85l-1,.14-.27-2a4.94,4.94,0,0,0,1.33-.42,1.36,1.36,0,0,0,0-.77l-.46-3.43-1-1,.74-1.2-.54-4a2.55,2.55,0,0,0-.28-1,.52.52,0,0,0-.51-.19,1.3,1.3,0,0,0-.85.57,2.58,2.58,0,0,1,.73,1.36,2,2,0,0,1-.35,1.44,1.77,1.77,0,0,1-1.24.76,1.85,1.85,0,0,1-1.42-.39,1.76,1.76,0,0,1-.74-1.28,4.58,4.58,0,0,1,1.08-3.11,4.41,4.41,0,0,1,2.62-1.5,2.86,2.86,0,0,1,2.21.44,2.91,2.91,0,0,1,2-1,4.47,4.47,0,0,1,2.93.75,4.65,4.65,0,0,1,1.87,2.71"/></svg>