<svg id="Layer_1" data-name="Layer 1" xmlns="http://www.w3.org/2000/svg" viewBox="0 0 375.65 329.06"><defs><style>.cls-1{fill:#00aeef;}.cls-2{fill:#4dc6e2;}.cls-3{fill:#3c2415;}.cls-4{fill:#a97c50;}.cls-5{fill:#754c29;}.cls-6{fill:none;stroke:#231f20;stroke-miterlimit:10;}.cls-7,.cls-9{fill:#fff;}.cls-8{fill:#231f20;}.cls-9{font-size:14.1px;font-family:PoorRichard-Regular, Poor Richard;}</style></defs><title>taxidermy logo</title><path class="cls-1" d="M233.27,275.26a15.72,15.72,0,0,1-1.7-.09c-3.32-.34-8.37-2-12-3.37-1.93-.71-3.82-1.47-5.32-2.12-2.59-1.13-3.66-1.76-4.52-3l-.06-.08c-.72-1-2.92-4.09-2.05-7.75a7.42,7.42,0,0,1,.9-2.15,7.69,7.69,0,0,0-2.18-3c-.38.23-.8.48-1.08.67l-4.49.84-1.44-6.53a9.71,9.71,0,0,0-2.1-2.34L187.46,254l.84-6.18-.9-2.24a38.79,38.79,0,0,1-9.38,2.81H178l-.88.18a2.53,2.53,0,0,0-1,.36.87.87,0,0,0,0,.1l0,.64-4.32,4.35-1.33-1.9-4,7L165.24,263l-2.19.35c-1.28,4.09-2.2,5.35-4.08,6.18a11.1,11.1,0,0,1-3.62.69,32.32,32.32,0,0,0-7,1.22,15.92,15.92,0,0,1-5.13.79c-4.85,0-11-1.8-14-5.83l-.68-.94-.21-1.14c-.82-4.4,2.83-8.45,6.1-11.49a62.35,62.35,0,0,1,5-4.16c.27-1.21.78-4,1.66-10.12.14-1,.23-1.61.29-1.94a11.73,11.73,0,0,1,.36-1.5l-.25.05,1.52-8.27.13-.32c.22-.6,1.13-3.74,1.8-6,2.26-7.79,4.07-13.92,5.2-16.34a16.54,16.54,0,0,1,3.71-5.25c.4-1.79,1-4.38,1.49-6.4-1.64-1.7-2.61-4.54-2.87-8.48-.06-.91-.3-5.5.92-7.94a2,2,0,0,1-.1-.21,5.15,5.15,0,0,1-2.54-2c-1.59-2.39-.66-4.6,0-6.06.1-.25.22-.52.33-.81l-1-.43,1.35-5v-.29h.08l0-.15.56.15h.38l-1.88-1.07-.11.23a47,47,0,0,0,1.58-7.51c.27-1.65.71-3.67,1.3-6l.06-.21C156,136.5,161,122.58,161.22,122l.05-.14,0-.12a9.38,9.38,0,0,0,.75-2.21l-3.93-6.38,7.51-1.31a6.09,6.09,0,0,0,1.76-1.33c.27-.24.54-.5.83-.75s.58-.7,1.19-1.53l-3.05-4.3,6.24-2.36a3.08,3.08,0,0,0,1.27-.86,7.38,7.38,0,0,1-.57-1.46l-1.4-5.11,5.22-1.29c.13-.23.33-.63.51-1,.4-.77.94-1.84,1.7-3,2.22-3.47,6.39-6.95,8-8.21a1.09,1.09,0,0,0,0-.18c.29-6.44,5.09-9.38,9.43-9.38h.4a6.15,6.15,0,0,1,2.43.63,28.76,28.76,0,0,1,8.79-2c.23-.16.56-.41.71-.53A7.3,7.3,0,0,1,211,68a5.52,5.52,0,0,1,2.07-.39c.41,0,1.61,0,8.39,1.31,1-.69,1.65-1.15,2-1.38A8.5,8.5,0,0,1,228.19,66a6.71,6.71,0,0,1,2.44.43l.58.22.52.36a22.42,22.42,0,0,1,5.43,5,7.52,7.52,0,0,1,1.2,5.76,17.6,17.6,0,0,1-1.15,3.78c-.82,2.31-1.35,3.86-1.56,4.61l.15,1.17c.47,3.86.67,5.18.76,5.6.71,2.3,0,5.78-.67,8.34,0,.15-.08.29-.13.43l-1.15,3.56a6.56,6.56,0,0,1-.67,2.66c-.65,1.31-2.91,6.37-3.85,8.75a31.64,31.64,0,0,0,2.14,2.82l0,0a5.66,5.66,0,0,1,.83,5.86,24.12,24.12,0,0,0,1.79,3.75c1.26,2,1.54,4.62,1,18.22,0,.76-.06,1.54-.07,1.93.17.9,1,4,1.51,5.86,1,3.64,2.2,8.16,2.88,11.64.13.62.23,1.23.32,1.8,1.41,9-7.22,20-10,22.13a20.21,20.21,0,0,1-4.47,2.34c.35,1.43.62,2.44.74,2.78s1.12,2,1.72,3.06c2.83,5,4.22,7.51,4.69,8.9a21.08,21.08,0,0,1,.55,5.66v.05c0,.77,0,1.65.08,2.53v0c.17,4.09.55,6.9,1.15,8.35,1.74,4.22,1.88,13.86,1.55,27,0,.43,0,1,0,1.42a6.18,6.18,0,0,0,1.59,1.22,33.28,33.28,0,0,1,5.83,4.12c3.54,3.07,4.91,5.22,4.92,7.66a6.28,6.28,0,0,1-2,4.5c-2.69,2.7-8.77,4.89-13.56,4.89Z"/><path class="cls-1" d="M337.75,127l-75.83.17a85.37,85.37,0,0,0-139.19,0L45.2,127,79,211.92l37.92.1a85.23,85.23,0,0,0,150.85,0l36.21-.1Z"/><polygon class="cls-2" points="64.77 166.89 318.18 166.89 319.4 163.82 63.55 163.82 64.77 166.89"/><path class="cls-2" d="M122.81,215.49h139c.62-1,1.22-2,1.79-3.07H121c.57,1,1.17,2.06,1.79,3.07"/><polygon class="cls-2" points="56.49 146.07 326.46 146.07 327.68 143 55.27 143 56.49 146.07"/><polygon class="cls-2" points="53.73 139.13 329.22 139.13 330.44 136.05 52.51 136.05 53.73 139.13"/><path class="cls-2" d="M149.31,242c.7.43,1.4.85,2.12,1.26h81.79q1.08-.62,2.13-1.26c.94-.59,1.88-1.19,2.8-1.82H146.5c.92.63,1.86,1.23,2.81,1.82"/><path class="cls-2" d="M125.54,129.14l-1,1.46-74.24-.16.7,1.74H332l.7-1.74-72.55.16-1-1.47v0H125.56l0,0"/><path class="cls-2" d="M133.58,229.37H251.07c1-1,1.91-2,2.82-3.07H130.76c.91,1,1.85,2.07,2.82,3.07"/><path class="cls-2" d="M141.23,236.31H243.42c1.24-1,2.45-2,3.63-3.07H137.6c1.18,1.06,2.39,2.09,3.63,3.07"/><polygon class="cls-2" points="75.82 194.66 307.13 194.66 308.35 191.59 74.6 191.59 75.82 194.66"/><polygon class="cls-2" points="62.01 159.95 320.94 159.95 322.16 156.88 60.79 156.88 62.01 159.95"/><polygon class="cls-2" points="73.06 187.72 309.89 187.72 311.11 184.65 71.84 184.65 73.06 187.72"/><polygon class="cls-2" points="70.3 180.78 312.65 180.78 313.87 177.71 69.08 177.71 70.3 180.78"/><polygon class="cls-2" points="67.54 173.84 315.41 173.84 316.63 170.76 66.31 170.76 67.54 173.84"/><polygon class="cls-2" points="81.32 208.48 103.74 208.55 279.2 208.55 301.63 208.48 302.83 205.47 80.12 205.47 81.32 208.48"/><polygon class="cls-2" points="78.58 201.6 304.37 201.6 305.59 198.53 77.36 198.53 78.58 201.6"/><path class="cls-2" d="M167.14,250.2h50.37a83.83,83.83,0,0,0,8.08-3.07H159.06a83.83,83.83,0,0,0,8.08,3.07"/><polygon class="cls-2" points="59.25 153.01 323.7 153.01 324.92 149.94 58.03 149.94 59.25 153.01"/><path class="cls-2" d="M127.58,222.43H257.07c.77-1,1.52-2,2.24-3.07h-134c.72,1,1.47,2.06,2.24,3.07"/><path class="cls-2" d="M134.7,118.3H250q-1.59-1.59-3.27-3.07H138q-1.68,1.48-3.27,3.07"/><path class="cls-2" d="M153.48,104.42h77.69c-2.08-1.12-4.21-2.14-6.38-3.08H159.86c-2.17.94-4.3,2-6.38,3.08"/><path class="cls-2" d="M142.68,111.36H242c-1.41-1.07-2.85-2.1-4.32-3.07H147c-1.47,1-2.91,2-4.32,3.07"/><path class="cls-2" d="M128.46,125.24H256.19c-.84-1-1.7-2.07-2.58-3.07H131c-.88,1-1.74,2-2.58,3.07"/><path class="cls-2" d="M192.33,94.67a82.17,82.17,0,0,0-21.3,2.8h42.59a82.15,82.15,0,0,0-21.29-2.8"/><path class="cls-2" d="M192.33,254.12c1,0,2,0,2.94-.05h-5.88c1,0,2,.05,2.94.05"/><path class="cls-3" d="M233.91,271.82a11.66,11.66,0,0,1-1.34-.07c-3.13-.32-8.35-2.13-11.19-3.18-1.88-.69-3.7-1.42-5.14-2-2.42-1.07-2.77-1.4-3.06-1.81,0,0-.06-.08-.09-.13-.55-.77-2-2.82-1.51-5a4,4,0,0,1,1.3-2.08c-.58-4.44-4.24-7.05-5.79-8-.16.2-3.52,2.06-3.77,2.43l.06-3c.26-1-.22-3.21-5.78-7.28a7.64,7.64,0,0,1-1.6,1.66l-3.35,2.64.58-4.22a3.82,3.82,0,0,0-.62-2.24c-.1.21-2.18,2.3-2.26,2.54l-.89-2.21-.13.23c-1.6,2.7-6.5,3.9-11.37,4.9l-1,.2c-2.14.47-3.52,1.55-3.68,3.56l-1,2.1c0-.17-2.11-3.48-2.15-3.63a23.76,23.76,0,0,1-.65,2.36l-2.46,3.52-.35-2.27c-.19.53-.35.93-.42,1.13l-.21.51h-.82c-.06.11.32.65.35,1.34l-.83,1.47-1.24-.57.05,3.48L162,256.65c-.24.94-.68,2.42-.77,2.74-1.75,6.38-2.31,6.63-3,6.94a8.72,8.72,0,0,1-2.55.42,34.43,34.43,0,0,0-7.85,1.39,12.32,12.32,0,0,1-4,.6c-4,0-9.09-1.51-11.18-4.4l-.22-.32-.07-.38c-.4-2.12,1.21-4.77,5.06-8.34a55.2,55.2,0,0,1,5.65-4.59c.43-1.16,1.13-5.09,2.07-11.72q.19-1.41.27-1.83a7.05,7.05,0,0,1,2.37-4.32,4.81,4.81,0,0,0,.44-1c.17-.46.32-1,.45-1.48l-2.25.43.55-2.95c.2-.48,1.08-3.5,1.92-6.41,1.74-6,3.91-13.46,5-15.83a12,12,0,0,1,3.69-4.81c.43-1.94,1.63-7.28,2.24-9.42-.27-.27-.66-.63-1.2-1.1-2.58-2.23-2.49-10.84-1.51-12.69a3.27,3.27,0,0,0,0-3,5,5,0,0,1-.5-2.07l-.05,0a1.85,1.85,0,0,1-.86.21,1.75,1.75,0,0,1-1.46-.78c-.56-.86-.25-1.6.27-2.83a26.24,26.24,0,0,0,1.46-4.21,4.72,4.72,0,0,1-1.21-.33l.7-2.55v-.74a1.49,1.49,0,0,0-1.27.63c.06-.12.7-1.38,1.87-8.43.25-1.56.67-3.47,1.24-5.7l.06-.21c2.62-10.24,7.68-24.3,7.73-24.44l0,0,0,0c1-2.43,1.4-3.91.57-5.24l-1.33-2.16,2.5-.44a7.24,7.24,0,0,0,3.52-2.2c.28-.25.53-.49.79-.71a36.3,36.3,0,0,0,3.22-4.26,2.55,2.55,0,0,1-.72-.67l-1.28-1.82,2.08-.78a6.62,6.62,0,0,0,4.07-4.5,3.64,3.64,0,0,1-1.28-2l-.46-1.71,1.71-.42c1.63-.4,1.93-1,2.84-2.79a28.75,28.75,0,0,1,1.52-2.74c2.34-3.65,7.52-7.6,7.74-7.77l.73-.55c0-.55,0-1.14.05-1.77.2-4.49,3.36-6.09,6-6.09h.24a3.41,3.41,0,0,1,2.27,1.18A24.23,24.23,0,0,1,209.66,73h.07a5.42,5.42,0,0,0,2.11-1.21,4.31,4.31,0,0,1,1.06-.69,2.22,2.22,0,0,1,.79-.14c1.23,0,6.58,1,8.19,1.33l1,.19c1.39-1,2.62-1.84,3.12-2.17a5.09,5.09,0,0,1,2.84-.93,3.31,3.31,0,0,1,1.2.2l.2.07.17.12c.58.41,3.51,2.5,4.52,4.06a4,4,0,0,1,.69,3.34.64.64,0,0,0,0,.07,13.16,13.16,0,0,1-1,3.1A57.93,57.93,0,0,0,232.8,86c0,.35.12,1,.22,1.76.2,1.63.67,5.45.87,6.13.62,1.68-.54,6-.68,6.47,0,.1-.06.2-.09.3l-.38,1.19h-.17a7.31,7.31,0,0,1-.75,1c.15,2.6-.2,3.29-.32,3.53-.61,1.23-4.16,9-4.5,10.59a19.28,19.28,0,0,0,3.23,4.72l0,0a2.56,2.56,0,0,1,.15,2.75,2.14,2.14,0,0,0-.24.93,23,23,0,0,0,2.45,5.58c.71,1.12,1,3.84.5,16.25,0,1.09-.07,2-.07,2.26,0,.63.88,3.78,1.62,6.55,1,3.59,2.17,8.05,2.84,11.41.11.59.21,1.15.29,1.68,1.09,7-6.19,16.95-8.71,18.84a24.91,24.91,0,0,1-6.45,2.88,62.29,62.29,0,0,0,1.65,6.4c.17.36,1,1.88,1.86,3.34a82.46,82.46,0,0,1,4.42,8.3,19.52,19.52,0,0,1,.37,4.66c0,.8,0,1.7.09,2.62v0c.12,2.92.4,7.07,1.41,9.53,1.61,3.89,1.55,15.14,1.29,25.63,0,1.17-.06,2.27-.05,2.49.1.58,1.7,2.45,3.55,3.34a28.73,28.73,0,0,1,5.07,3.62c3.28,2.85,3.72,4.16,3.73,5.07a2.92,2.92,0,0,1-1,2.06c-1.83,1.84-6.85,3.88-11.12,3.88Z"/><path class="cls-3" d="M159,148c-.83,2.38-1.53,4.58-2,6.4Z"/><path class="cls-4" d="M229.31,216.06c-.65-2.59-1.47-5.77-1.87-7.13-.73-2.47-5.12-8.69-6.13-10.15-.66-1-1.88-5.18-2.63-7.94,1.19-.2,2.15-.45,2.15-.45s1.35,6.21,1.91,7.4,5.65,9.8,6.21,11.47a53.72,53.72,0,0,1,.36,6.8"/><path class="cls-5" d="M244.31,265.71c0,1.51-6.53,4.69-11.54,4.16s-17.68-5.6-18.16-6.3-2.94-3.76.08-5.34c-.23-7.4-7.56-10.76-7.56-10.76s-.32-.79-2.07,1.83c1-4-5.49-8.52-8.2-10.35a4.43,4.43,0,0,1-1.91,3c.24-1.75-.72-3-2.07-5.89a10.65,10.65,0,0,0-2.15,3.5,12.82,12.82,0,0,0-1.41-4.14s.06,1.2-1.46,3.74-8.67,3.74-11.22,4.3-4.38,2-4.62,5.08c-.24-1.46-.64-2.37-2.47-4.36a8.44,8.44,0,0,1-1.43,4.36c-.16-1.05-.72-3.57-1.91-3.49.16,2.07-1.51,6.21-1.51,6.21s-.88.56-.8,2.56a4.18,4.18,0,0,1-.64-2.32,5.56,5.56,0,0,0-.71,4.15s-1.12-.8-1.44-3.91c0,2-2.86,12.58-3.58,12.9s-6.13.32-10.27,1.75S136.11,266,134,263.16c-.63-3.43,9.32-10.83,10.27-11.39s2.55-13.14,2.79-14.49a5.41,5.41,0,0,1,1.83-3.34,4.33,4.33,0,0,0,.91-1.69,19.58,19.58,0,0,0,3.61-5.76,31.91,31.91,0,0,0-3.38.82c-.21-.93,5.67-18.19,6.49-20.12s3.75-4.66,4.21-5.39c.32-.51,2-5.73,3.06-8.91,3.19,1.52,7.93,3.61,9.58,3.66a7.75,7.75,0,0,0,2.23-.44,9.48,9.48,0,0,0,5.69-4.82c2-4-.14-9.29-1.49-10.17s-10.24-8.1-3.33-20.94c3.73-6.93,7.85-8,16.94-9.52-3.22-.54-7.34.94-10.76,1.7-6.84,1.53-10.9,16.76-10.74,18.57.4,4.64,4.93,8.87,6.12,10.07s2.47,2,2.39,4.61a10.54,10.54,0,0,1-4.73,9.42,4.79,4.79,0,0,1-2.12.69c-2.86.16-11.78-4.85-11.78-4.85a11,11,0,0,0-2.07-2.07c-1.75-1.52-1.83-9.24-1.12-10.59a5,5,0,0,0,0-4.62c-.77-1.48.12-4.71.16-4.85a17.14,17.14,0,0,1-3,2.09c-.64.34,2-3.85,2.23-8a3.38,3.38,0,0,1-2.54,0c.08,0,.8-.17,2.3-9.23.27-1.66.72-3.63,1.27-5.76h0c3.4-9.72,9.09-22.5,10.11-25.12,1.28-3.27,2.47-4,4.22-4.78.24-1.35,5.66-8.68,5.66-8.68l-.72,3.35,1.59-.72s1.52,2.23.8,7.08c2.87-4.45,3.1-7.48,3.1-7.48a6.18,6.18,0,0,1-1.59-3.42c-.08-1.83,2.47-10,5.33-12.34-1,1.19-1.35,3.74-1.67,5.73a4.18,4.18,0,0,1,2.79-2s-1.83,3.26-.8,5c.56-2.79,4.62-6.06,4.62-6.06a1.72,1.72,0,0,0,1.67,2.23c-.16-2.94.24-6.6,4-9.63a13.74,13.74,0,0,1,1.68,8.44c1.59-1.67,1.19-4.46,1-7.16s4.7-6.49,4.85-6.61c0,.11-.81,2.74,0,7.68a7.8,7.8,0,0,1,.31-.72,6.88,6.88,0,0,1,.35-.66l.16-.28.19-.27a2.2,2.2,0,0,1,.17-.25A1.56,1.56,0,0,1,207,91a1.34,1.34,0,0,1,.11-.14l.14-.16.17-.19.18-.18.14-.13.17-.14.16-.14.21-.16.25-.17.18-.11.17-.1.27-.14.18-.08.06,0,.2-.08.22-.08a3.09,3.09,0,0,1,.43-.14l.21,0,.21,0,.21,0,.41-.06h.18l.39,0a7.07,7.07,0,0,1,2.25.28s1.33-4.42,1-2.78c.72-2,2.87-8.21,2.87-8.21s7.48-5.33,8.91-6.29a2.86,2.86,0,0,1,2.47-.55s3.19,2.23,4.06,3.58a2.6,2.6,0,0,1,.4,2.39c0,.48-2.95,7.88-2.78,8.92s.87,7.56,1.19,8.35-.32,4-.72,5.42a2,2,0,0,1-.07.23h0c-4,3.75-15.61,14.68-16.73,15.93-1.31,1.47-3.14,8.31-3.25,8.74a55.4,55.4,0,0,1,5.08-8.1c2.63-3.27,11.55-10.19,11.55-10.19l-6,14.89a5.1,5.1,0,0,1,1.83.39c-.24,1.83-1.43,8.2-1,10.51,2-4,2.92-3.5,3.57-3.1a5,5,0,0,1,1.77,3.42c.24,1.75,1.27,16.24,2.07,19.59.59,2.47,3.7,10.17,5.44,15.58.12.58.21,1.11.29,1.61,1,6.13-5.81,15.53-8,17.2s-8,3.36-9.62,3.56l-.17,0c-.6,0-1.51.16-2.31.14s-1.71-.21-1.75-.94c-2.55-6.36,1.91-14.88,2.78-16.48s1.68-1.75,2.07-5.25-3.34-11.31-8.84-15c7.81,6.21,7.41,12.18,8.05,14s-1,4.06-1.52,5.18c-9.13,14.18-4.7,18-3.18,19.25.37.29,1.68,0,2.35.1a13.45,13.45,0,0,0,2.75-.19c.75,2.76,2,7,2.63,7.94,1,1.46,5.4,7.68,6.13,10.15.4,1.36,1.22,4.54,1.87,7.13h0c.15,3.51.47,7.54,1.55,10.15,2.06,5,1,26.12,1.11,27.56s2.47,3.81,4.53,4.8,7.81,5.62,7.81,7.14"/><path class="cls-4" d="M235.82,167.6c-1.74-5.41-4.85-13.11-5.44-15.58-.8-3.35-1.83-17.84-2.07-19.59a5,5,0,0,0-1.77-3.42c-.65-.4-1.58-.88-3.57,3.1-.39-2.31.8-8.68,1-10.51a5,5,0,0,0-1.83-.4l6-14.88s-8.92,6.92-11.55,10.19a55.4,55.4,0,0,0-5.08,8.1c.11-.43,1.94-7.27,3.25-8.74,1.12-1.25,12.73-12.18,16.73-15.93a5,5,0,0,1-1.44,2.08,12.59,12.59,0,0,1-.08,3.42c-.32.64-4.62,9.87-4.7,11.31s3.27,5.41,3.67,5.89-.64,1.43-.48,2.78a23.18,23.18,0,0,0,2.7,6.29c1,1.52.16,15.92.16,17.6,0,1.53,3.23,11.87,4.49,18.29"/><path class="cls-4" d="M220.92,73.72S219,75.25,219,75.3c-1-.66-3.75,0-4.86.21s-1.28,2.3-1.28,2.3a10.26,10.26,0,0,0,2.39,1.28c1,.25.93,2,.91,2.36-.13.57-.42,1.65-.5,2.33a17.33,17.33,0,0,0,.7,8.39,46,46,0,0,1,2.45,9.62c-1.45.71-4.37,2.29-5.55,4.53-.64-2.39.16-6.21.16-6.21s-1-.24-1.95,1.75c-.76-2.55,0-3.34,0-3.34s-4.1.55-5.69,2.62c1.27-4.22,5.33-6.61,5.73-7.16.28-.39.36-3.52.38-5.38l-.39,0h-.18l-.41.06-.21,0-.21,0-.21,0a3.09,3.09,0,0,0-.43.14l-.22.08-.2.08-.06,0-.18.08-.27.14-.17.1-.18.11-.25.17-.21.16-.16.14-.17.14-.14.13-.18.18a1.63,1.63,0,0,0-.17.2,1.07,1.07,0,0,0-.14.16A.69.69,0,0,0,207,91a1.56,1.56,0,0,0-.16.2,2.2,2.2,0,0,0-.17.25,2.75,2.75,0,0,0-.19.28c-.05.08-.11.17-.16.27a6.88,6.88,0,0,0-.35.66,7.8,7.8,0,0,0-.31.72c-.82-4.94,0-7.57,0-7.68-.15.12-5,3.94-4.85,6.61s.56,5.49-1,7.16A13.9,13.9,0,0,0,198.14,91c-3.75,3-4.15,6.69-4,9.63a1.72,1.72,0,0,1-1.67-2.23s-4.06,3.27-4.62,6.06c-1-1.76.8-5,.8-5a4.18,4.18,0,0,0-2.79,2c.32-2,.64-4.54,1.67-5.73-2.86,2.31-5.41,10.51-5.33,12.34a6.18,6.18,0,0,0,1.59,3.42s-.23,3-3.1,7.48c.72-4.85-.8-7.08-.8-7.08l-1.59.72.72-3.35s-5.42,7.33-5.66,8.68c-1.75.8-2.94,1.51-4.22,4.78-1,2.62-6.71,15.4-10.11,25.12,2.64-10.28,7.69-24.28,7.69-24.28,1-2.38,1.78-4.67.45-6.82,2.38-.41,3.94-2.29,5.13-3.29s4.9-6.64,4.9-6.64-1.67,0-2.11-.6a8.53,8.53,0,0,0,5.4-7.09A1.84,1.84,0,0,1,179,97.7c3.34-.83,3.2-2.84,5.4-6.27s7.32-7.33,7.32-7.33,1.24,1.24,2.06,1.28,2.89-2.38,3.35-2.93.69-.86.69-.86,1.18-1.7,1.23-1.7c-.18-1.78-1.6-1.88-2.89-1s-1.67,3.25-1.67,3.25-.42,1.35-.79,1.21-.52-.13-.51-2.85a4.08,4.08,0,0,1,4.44-4.44c1,0,2,1.87,2,1.78,3.48-2.7,8.74-3.11,10.34-3.25s3.21-1.83,3.67-2,7.36,1.15,7.36,1.15"/><path class="cls-4" d="M215.82,81.45c0,.23,0,.48,0,.75h0l-.28,1.13q.13-1,.33-1.89"/><path class="cls-4" d="M163.83,192.89c-1,3.18-2.74,8.4-3.06,8.91-.46.73-3.38,3.47-4.21,5.39s-6.7,19.19-6.49,20.12a31.84,31.84,0,0,1,3.39-.82,19.75,19.75,0,0,1-3.62,5.76,30.84,30.84,0,0,0,1-3.89,4.27,4.27,0,0,0-2.31,0c.64-1.43,5.26-18.63,6.93-22.21s3.66-4.45,3.66-4.45,1.67-7.65,2.39-10.12a14.92,14.92,0,0,0,2.32,1.31"/><path class="cls-5" d="M224.9,97.48c-.11.14-.65,5-1.44,6.24-3-.2-5.65-.45-6.17-1.81s-2-10.84-2-10.84L216,89l2.19,6.32,3,2.65Z"/><line class="cls-6" x1="205.7" y1="85.7" x2="205.69" y2="85.7"/><path class="cls-6" d="M211.51,124.62h0"/><path class="cls-6" d="M211.52,124.61h0"/><path class="cls-4" d="M219.49,166.22c.64,1.84-4.52,7.37-5.07,8.48-4,8.1-3.89,14.62-1.11,15.94.5.63.72.38.7.68-.46,6.92-4.16,17.14-6.42,19a5.41,5.41,0,0,0,0-2.39,20.18,20.18,0,0,0-2.22,3.34c-1,1.84-1.79,4.79-1.63,9.08a7.72,7.72,0,0,0-1-2.87c-.08,1.68-.8,4.15.64,7,0,0-2.23-.16-3.11-3.18,0,2.07-1.67,8.75-3.74,10.9,1.43-4.93-2.95-10.58-2.95-10.82s-.63,5.17-2.54,7.4a16.17,16.17,0,0,0-1.76-6.21s-1-.16-1.27,2.71c0-.24-1.75-2-2.15-7.17s-4.06-9.47-4.06-9.47-.54,0-1,2.39a53.75,53.75,0,0,0-4.14-10.91c-.64-1.2-1.17-1.9-2.1-3.56.57-.08,4.69-1.8,6-4.4,2-4.05,1.11-9.82-.24-10.7s-11.65-8.79-4.75-21.62c3-5.5,4.2-6.87,9.94-8.15,1-.18,4.43-1,5.54-1.19-.06,0,.42.48.37.47a16.24,16.24,0,0,0-2.35-.17A34,34,0,0,0,181,152c1.31-2.38,3.87-6.9,4-7a2.71,2.71,0,0,1-2.86,0c1.31-1.78,2.77-7.59,2.86-7.95-.06.14-.54,1.16-2.54.86,2.63-1.91,6.45-10.19,8.36-11.62s6.92-.08,8.28,0a4.06,4.06,0,0,0,2.94-1.52c.55-.54-1.1-2-1.19-2.06a17.79,17.79,0,0,0,3.1,1.43c1.36.4,3.74,2.71,3.74,2.71,5,.63,5,5.17,6.21,8.35s4.7,5.34,4.7,5.34a5.12,5.12,0,0,1-4.93-2.07c.71,1,2,8.52,5.33,9.39-.88.32-1.67.32-4.54-.79,1.12,1.59,1.51,4.14,1.75,7.56A19.18,19.18,0,0,0,213,151c1.67,2,1.59,4,1.67,5.49,0,.08,0,.18,0,.27s.57.74.65.95c.3.74,1.41,1.59,2.13,2.66a36.87,36.87,0,0,1,2,5.89"/><path class="cls-6" d="M132.28,132.29h0"/><path class="cls-6" d="M132.29,132.28h0"/><path class="cls-3" d="M231.35,82.31l-4.78,8.36s-1.06,4.55-.85,5.74-2.26,1.59-3.85-1-2-10-2-10a15.78,15.78,0,0,1,3-7.09,5.84,5.84,0,0,1,5-2.62c1.44.06,4.12,1.19,4.12,3.23a9.39,9.39,0,0,1-.61,3.45"/><path class="cls-4" d="M225.84,77.31a1.21,1.21,0,0,0-1.29,0c-.67.44-.79,2-.48,2.84.46-.52,1.06-2,1.54-2.22a.45.45,0,0,0,.23-.65"/><path class="cls-4" d="M227.24,76.4s-.66.23-.67,1.52a1.42,1.42,0,0,1,.83-.38,8.19,8.19,0,0,1,2,1,1.19,1.19,0,0,1,0,1,1.48,1.48,0,0,0,1-1.16,3.3,3.3,0,0,0-3.23-2"/><path class="cls-4" d="M230.57,79.38a.84.84,0,0,0-.77.66c-.19.67.3,1.92-.08,2.46.67.07,1.49-1.88,1.45-2.32s0-.63-.6-.8"/><path class="cls-4" d="M221.63,92.27a6.23,6.23,0,0,1,2.76.54c.81.57,1,.75,1.32.78s1-.9.86-1.11a1.58,1.58,0,0,1-.81.18s-.42-1.39-4-1.29a2.43,2.43,0,0,1,1-.21,2.39,2.39,0,0,1-.57-1.41c0-.71-1.08-.44-1.08,0a4.39,4.39,0,0,0,.54,2.52"/><path class="cls-3" d="M228.05,70.46v2.66l4.66,3.28,2.32-.78s-4.64-5.23-7-5.16"/><path class="cls-7" d="M80.46,169.45a7.49,7.49,0,0,1-4.2-1.11,9,9,0,0,1-4.16.79H68.83v-6.44l1.26,0c.83,0,1.35,0,1.68-.08,0-.14,0-.33,0-.57v-8l-2.13-2.59,2.13-2.59v-6.23c0-.24,0-.43,0-.57-.32,0-.84-.06-1.68-.08l-1.26,0v-6.43H72.1a8.94,8.94,0,0,1,4.17.79,8,8,0,0,1,4.42-1.11,9,9,0,0,1,7.74,3.67,10,10,0,0,1,1.91,6A8.82,8.82,0,0,1,88,151.14c1.68,1.74,2.53,4.21,2.53,7.37a11.19,11.19,0,0,1-3.29,8.21,9.19,9.19,0,0,1-6.73,2.73m.37-6.78h.26a16,16,0,0,0,.11-2.3v-2.63a9.47,9.47,0,0,0-.18-2.41.86.86,0,0,0-.24-.13v7a1.67,1.67,0,0,0,0,.46m0-20.64c0,.11,0,.26,0,.46v5.32l.26-.06a6.06,6.06,0,0,0,.16-1.7v-2.5a10.86,10.86,0,0,0-.08-1.52H80.8"/><path class="cls-8" d="M89.19,158.51a9.9,9.9,0,0,1-2.91,7.3,7.9,7.9,0,0,1-5.82,2.35,5.71,5.71,0,0,1-4.15-1.43c-.74.74-2.15,1.11-4.21,1.11h-2V164a7.53,7.53,0,0,0,2.68-.28c.18-.15.27-.71.27-1.66v-8.45l-1.75-2.12,1.75-2.13v-6.69c0-.92-.1-1.47-.3-1.64a7,7,0,0,0-2.65-.3v-3.88h2c2.1,0,3.5.37,4.21,1.11a6.06,6.06,0,0,1,4.38-1.43,7.74,7.74,0,0,1,6.7,3.14,8.77,8.77,0,0,1,1.66,5.22,7.59,7.59,0,0,1-3,6.32c2.12,1.48,3.19,3.93,3.19,7.34m-6.7-12.46v-2.5a5.88,5.88,0,0,0-.32-2.49c-.13-.22-.51-.32-1.16-.32s-1.1.12-1.26.37a2.57,2.57,0,0,0-.26,1.38v6.7a3.9,3.9,0,0,0,2.49-.51c.34-.34.51-1.22.51-2.63m0,14.31v-2.63c0-1.85-.15-2.93-.46-3.23a3.36,3.36,0,0,0-2.54-.79v8.5c0,1.17.48,1.75,1.43,1.75.77,0,1.23-.24,1.36-.71a12.56,12.56,0,0,0,.21-2.89"/><path class="cls-7" d="M113,169.13a9.83,9.83,0,0,1-4.37-.75,8,8,0,0,1-3.75.75H99.67a6.18,6.18,0,0,1-2.77-.56,8,8,0,0,1-3.37.56H90.2V162.7l1.27,0a7.28,7.28,0,0,0,1.85-.2,5.24,5.24,0,0,0,.52-1.5l1.72-7.34L94,151.24l2.78-2.83,1.5-6.43h-2v-6.5H100a8.85,8.85,0,0,1,4.38,1,8.36,8.36,0,0,1,4.25-1h3.23V142h-2.23l1.18,6.65,2.46,2.63-1.62,2.46,1.49,8.78a.71.71,0,0,0,0,.16h2.42v6.46Zm-11.89-6.5c.16,0,.38,0,.66,0h1.35a6.28,6.28,0,0,0,.91,0c0-.09,0-.15,0-.19l-.4-2.72h-1.92c-.35,1.5-.52,2.4-.59,2.92"/><path class="cls-8" d="M114.3,167.84H113q-3.31,0-4.38-1a5.49,5.49,0,0,1-3.74,1h-1.76V164c1.48,0,2.22-.25,2.22-.74a7.52,7.52,0,0,0,0-1l-.55-3.83h-4.06a29.31,29.31,0,0,0-.93,4.85c0,.43.66.66,2,.69v3.88h-2A3.92,3.92,0,0,1,96.9,167c-.5.55-1.62.83-3.37.83h-2V164a5.57,5.57,0,0,0,2.59-.43,4.22,4.22,0,0,0,1-2.25l1.84-7.9-1.29-2,2.3-2.35,1.76-7.53a3.45,3.45,0,0,0,.1-.65q0-.18-.93-.18H97.59v-3.92H100a6.57,6.57,0,0,1,4.39,1.24,6.17,6.17,0,0,1,4.24-1.24h1.94v3.92H109.5c-.86,0-1.29.18-1.29.55a2.61,2.61,0,0,0,0,.42l1.34,7.57,2,2.17-1.33,2,1.57,9.28a1.36,1.36,0,0,0,1.47,1.25h1Zm-10.32-14-1-6.1-1.28,6.1Z"/><path class="cls-7" d="M127.18,169.13c-3.68,0-6.44-2-8.2-6.09a26.86,26.86,0,0,1-1.93-9.45L114.93,151l2.34-2.68a23.65,23.65,0,0,1,2.4-8.14c1.86-3.54,4.49-5.35,7.79-5.35a7.36,7.36,0,0,1,5.06,2.45c2.13,2.1,3.19,4.26,3.16,6.44a4.58,4.58,0,0,1-1.49,3.42,4.89,4.89,0,0,1-3.5,1.4,4.46,4.46,0,0,1-3.33-1.41,4.65,4.65,0,0,1-.78-1.07v2.38l2.2,2.6-2.2,2.59v6.5c0,1.82.4,2.17.41,2.17H127c.19,0,.31,0,.46-.32a9.11,9.11,0,0,0,.52-3.79v-3.5h7.33v4.06a15.35,15.35,0,0,1-.93,5.9c-1.24,3-3.75,4.53-7.24,4.53"/><path class="cls-8" d="M134.39,143.65a3.36,3.36,0,0,1-1.09,2.51,3.64,3.64,0,0,1-2.61,1,3.19,3.19,0,0,1-2.4-1,3.42,3.42,0,0,1-1-2.44,5.53,5.53,0,0,1,.93-2.86,1.37,1.37,0,0,0-1.16-.65c-1.2,0-1.8,1-1.8,3.14v5.49l1.8,2.13-1.8,2.12v7c0,2.31.59,3.46,1.76,3.46a1.68,1.68,0,0,0,1.61-1.06,10.47,10.47,0,0,0,.65-4.34v-2.21h4.75v2.77a14.16,14.16,0,0,1-.83,5.4q-1.56,3.74-6,3.74-4.71,0-7-5.31a25.75,25.75,0,0,1-1.85-9.42L116.61,151l1.89-2.17a22.52,22.52,0,0,1,2.31-8.08q2.44-4.67,6.65-4.67a6.15,6.15,0,0,1,4.16,2.08c1.87,1.85,2.8,3.68,2.77,5.5"/><path class="cls-7" d="M149.25,169.13H147a8.46,8.46,0,0,1-4.16-.85,8.61,8.61,0,0,1-4.2.85H135.4v-6.44l1.27,0c.83,0,1.35,0,1.67-.08,0-.14,0-.33,0-.57v-8l-2.2-2.6,2.2-2.6v-6.23c0-.26,0-.46,0-.61-.31,0-.82,0-1.65,0H135.4v-6.45h3.28a8.91,8.91,0,0,1,4.2.8,8.76,8.76,0,0,1,4.16-.8h3.31a7.55,7.55,0,0,1,3.21.56,4.8,4.8,0,0,1,2.3-.56H159v6.45H157.7a5.11,5.11,0,0,0-1.24.1,3.14,3.14,0,0,0-.44.67l0,0-3.65,5.95c.44.19.94.42,1.51.69l1.14.54-1.45,3.35,3.07,8.73v0a2.69,2.69,0,0,0,.2.51,4.63,4.63,0,0,0,1.1.12l1.25,0v6.42h-2.91a7.72,7.72,0,0,1-3.45-.65,6.6,6.6,0,0,1-2.48.64l-1.07.09ZM147.39,142a4.4,4.4,0,0,0,0,.61v1.07l1.08-1.72h-.55a4.58,4.58,0,0,0-.5,0"/><path class="cls-8" d="M157.89,167.84h-1.62a5.35,5.35,0,0,1-3.45-.88,4.64,4.64,0,0,1-2.59.88l-1.06-3.93-2.95-8.26-.15.27V162c0,.9.17,1.45.5,1.67a4.14,4.14,0,0,0,1.94.27l.23.05v3.88H147c-2,0-3.39-.39-4.16-1.16-.77.77-2.17,1.16-4.2,1.16h-2V164a7.49,7.49,0,0,0,2.68-.28c.19-.15.28-.71.28-1.66v-8.47l-1.8-2.13,1.8-2.12v-6.71c0-1-.1-1.52-.3-1.69a6.82,6.82,0,0,0-2.66-.26v-3.87h2c2.09,0,3.49.37,4.2,1.1.71-.73,2.09-1.1,4.16-1.1h1.7v3.87a4.73,4.73,0,0,0-2.26.26c-.27.2-.41.76-.41,1.68v5.54l3.92-6.23a2.2,2.2,0,0,0,.37-1c0-.18-.41-.28-1.25-.28v-3.87h1.24c1.6,0,2.67.27,3.22.83a3.37,3.37,0,0,1,2.3-.83h1.83v3.87a4.8,4.8,0,0,0-1.77.22,2.55,2.55,0,0,0-1.05,1.24l-4,6.61-.05.74c.58.21,1.43.58,2.54,1.1l-1.16,2.67,3.23,9.17a2.18,2.18,0,0,0,.72,1.25,4.08,4.08,0,0,0,1.78.32Z"/><path class="cls-7" d="M190.07,169.13a8.87,8.87,0,0,1-4.2-.81,8.74,8.74,0,0,1-4.16.81h-3.28v-6.46h1.3a7.35,7.35,0,0,0,1.64-.22c0-.11,0-.25,0-.43v-6.28l-2.14-2.58,2.14-2.59v-3.72a6.14,6.14,0,0,1-.76,1,4.65,4.65,0,0,1-3.54,1.57,4.9,4.9,0,0,1-3.56-1.51,4.71,4.71,0,0,1-1.47-3.61c.08-2.16,1.17-4.37,3.27-6.57l0-.06.06,0a9.78,9.78,0,0,1,6.27-2.52,7.5,7.5,0,0,1,4.16,1.08,7.45,7.45,0,0,1,4.15-1.08,9.78,9.78,0,0,1,6.27,2.52l.06,0,.05.06c2.1,2.2,3.19,4.41,3.27,6.57a4.74,4.74,0,0,1-1.46,3.61,4.93,4.93,0,0,1-3.57,1.51,4.7,4.7,0,0,1-3.54-1.57,5.65,5.65,0,0,1-.71-1v3.64l2.14,2.59-2.14,2.58V162c0,.24,0,.42,0,.56.3,0,.81.07,1.67.09l1.26,0v6.43Z"/><path class="cls-8" d="M198.38,144.38a3.48,3.48,0,0,1-1.09,2.66,3.64,3.64,0,0,1-2.65,1.13,3.38,3.38,0,0,1-2.59-1.15,3.84,3.84,0,0,1-1.06-2.68,5,5,0,0,1,1.06-2.82,2.53,2.53,0,0,0-1.77-.88.94.94,0,0,0-.91.51,5.17,5.17,0,0,0-.27,2.08V151l1.75,2.13-1.75,2.12V162c0,.89.1,1.43.32,1.62a6.65,6.65,0,0,0,2.63.32v3.88h-2q-3.15,0-4.2-1.11c-.71.74-2.1,1.11-4.16,1.11h-2V164a9,9,0,0,0,2.68-.46,2.65,2.65,0,0,0,.28-1.48v-6.74l-1.75-2.12,1.75-2.13v-7.8a4.94,4.94,0,0,0-.28-2.08,1,1,0,0,0-.92-.51,2.57,2.57,0,0,0-1.8.88,5,5,0,0,1,1.06,2.82,3.84,3.84,0,0,1-1.06,2.68,3.38,3.38,0,0,1-2.59,1.15,3.64,3.64,0,0,1-2.65-1.13,3.48,3.48,0,0,1-1.09-2.66q.09-2.76,2.91-5.72a8.51,8.51,0,0,1,5.45-2.22,5.66,5.66,0,0,1,4.16,1.43,5.62,5.62,0,0,1,4.15-1.43,8.51,8.51,0,0,1,5.45,2.22q2.82,3,2.91,5.72"/><path class="cls-7" d="M210.66,169.13a8.12,8.12,0,0,1-6.51-3.5c-2.23-2.83-3.46-6.93-3.68-12.17l-2.16-2.62,2.28-2.69c.54-5.47,2.26-9.47,5.12-11.9a7.49,7.49,0,0,1,4.95-1.93,8.08,8.08,0,0,1,6.46,3.5c1.94,2.45,3.13,5.92,3.56,10.33l2.35,2.69-2.23,2.62c-.26,6.43-2,11-5.2,13.75a7.48,7.48,0,0,1-4.94,1.92m-.65-9.87a18.11,18.11,0,0,0,.07,2.18c.11.63.27.63.58.63s.37,0,.5-.52a15.24,15.24,0,0,0,.1-2.29v-5.79l-.63-.74-.62.74Zm.62-10.24.63-.74v-4a18.56,18.56,0,0,0-.07-2.19c-.1-.58-.24-.58-.53-.58s-.37,0-.5.54v.07a9.47,9.47,0,0,0-.13,2.16v4Z"/><path class="cls-8" d="M221.32,150.85l-1.8,2.12q-.27,9.47-4.75,13.25a6.19,6.19,0,0,1-4.11,1.62,6.87,6.87,0,0,1-5.5-3Q202,160.77,201.75,153L200,150.85l1.85-2.17q.69-8,4.71-11.45a6.19,6.19,0,0,1,4.11-1.62,6.84,6.84,0,0,1,5.45,3q2.76,3.51,3.32,10.07Zm-8.77,8.41V153l-1.8-2.12,1.8-2.12v-4.51a19.38,19.38,0,0,0-.09-2.4,1.79,1.79,0,0,0-3.56-.14,11.08,11.08,0,0,0-.18,2.54v4.51l1.8,2.12-1.8,2.12v6.27a19.38,19.38,0,0,0,.09,2.4,1.75,1.75,0,0,0,1.85,1.7,1.71,1.71,0,0,0,1.75-1.52,14.29,14.29,0,0,0,.14-2.58"/><path class="cls-7" d="M247.83,169.45a7.54,7.54,0,0,1-4.21-1.11,8.93,8.93,0,0,1-4.15.79h-3.28V162.7l1.27,0c.84,0,1.36,0,1.67-.08,0-.14,0-.33,0-.57v-8L237,151.45l2.14-2.59v-6.28c0-.24,0-.42,0-.55a16.6,16.6,0,0,0-1.67-.1l-1.27,0v-6.43h3.28a8.91,8.91,0,0,1,4.2.8,8.76,8.76,0,0,1,4.16-.8h3.27v6.45h-1.29a6.94,6.94,0,0,0-1.65.23c0,.11,0,.25,0,.42v6.28l2.13,2.59L248.15,154v3.79a5.08,5.08,0,0,1,.77-1.1,4.62,4.62,0,0,1,3.52-1.59,4.9,4.9,0,0,1,3.57,1.51,4.77,4.77,0,0,1,1.46,3.61c-.07,2.17-1.17,4.38-3.26,6.58l-.06,0-.05.05a9.8,9.8,0,0,1-6.27,2.51"/><path class="cls-8" d="M256.18,160.22q-.09,2.78-2.91,5.73a8.53,8.53,0,0,1-5.44,2.21,5.76,5.76,0,0,1-4.16-1.43q-1.11,1.11-4.2,1.11h-2V164a7.07,7.07,0,0,0,2.66-.3c.2-.17.3-.72.3-1.64v-8.45l-1.76-2.12,1.76-2.13v-6.74c0-.89-.11-1.43-.32-1.61a6.62,6.62,0,0,0-2.64-.33v-3.87h2c2.09,0,3.49.37,4.2,1.1.71-.73,2.09-1.1,4.16-1.1h2v3.87a9.07,9.07,0,0,0-2.68.47,2.69,2.69,0,0,0-.27,1.47v6.74l1.75,2.13-1.75,2.12v7.8a5.17,5.17,0,0,0,.27,2.08,1,1,0,0,0,.93.51,2.57,2.57,0,0,0,1.8-.88,5,5,0,0,1-1-2.81,3.89,3.89,0,0,1,1-2.68,3.32,3.32,0,0,1,2.56-1.16,3.63,3.63,0,0,1,2.66,1.14,3.47,3.47,0,0,1,1.08,2.65"/><path class="cls-7" d="M268.83,169.13a8.75,8.75,0,0,1-4.15-.81,9,9,0,0,1-4.2.81H257.2v-6.44l1.27,0c.82,0,1.35,0,1.67-.08,0-.14,0-.33,0-.57v-8L258,151.45l2.14-2.59v-6.23c0-.26,0-.45,0-.6-.32,0-.83-.05-1.65-.05H257.2v-6.46h3.28a8.92,8.92,0,0,1,4.2.81,8.7,8.7,0,0,1,4.15-.81h3.28V142h-1.29c-.84,0-1.34,0-1.65.06,0,.14,0,.33,0,.59v6.23l2.14,2.59L269.15,154v8c0,.24,0,.43,0,.57.31,0,.83.06,1.67.08l1.27,0v6.43Z"/><path class="cls-8" d="M270.82,167.84h-2c-2,0-3.41-.37-4.15-1.11q-1.11,1.11-4.2,1.11h-2V164a7.53,7.53,0,0,0,2.68-.28c.18-.15.28-.7.28-1.66v-8.45l-1.76-2.12,1.76-2.13v-6.69c0-.95-.1-1.52-.3-1.69a7.16,7.16,0,0,0-2.66-.25v-3.88h2q3.13,0,4.2,1.11c.71-.74,2.09-1.11,4.15-1.11h2v3.88a6.19,6.19,0,0,0-2.63.28c-.22.18-.33.74-.33,1.66v6.69l1.76,2.13-1.76,2.12V162c0,.92.1,1.47.3,1.64a7.07,7.07,0,0,0,2.66.3Z"/><path class="cls-7" d="M283.47,169.13a8.49,8.49,0,0,1-4.16-.85,8.61,8.61,0,0,1-4.2.85h-3.27v-6.44l1.26,0c.84,0,1.36,0,1.67-.08,0-.14,0-.33,0-.57v-8l-2.14-2.59,2.14-2.59v-6.23c0-.25,0-.45,0-.59-.3,0-.81-.06-1.64-.06h-1.29v-6.45h3.27a8.9,8.9,0,0,1,4.16.78,8,8,0,0,1,4.43-1.11,9.47,9.47,0,0,1,6.33,2.16,8.13,8.13,0,0,1,3,6.43,5.06,5.06,0,0,1-1.12,3.31,4.81,4.81,0,0,1-2.36,1.59l-.83,6.36h-4.92v7c0,.24,0,.43,0,.56a8.64,8.64,0,0,0,.9,0h2.91v6.5Zm1.67-21.28a3.32,3.32,0,0,1-.43-.41,4.72,4.72,0,0,1-.92-1.34v1.75Z"/><path class="cls-8" d="M290.9,146.23a3.55,3.55,0,0,1-2.86,1.34,3.17,3.17,0,0,1-2.4-1,3.38,3.38,0,0,1-1-2.44,5.82,5.82,0,0,1,1.06-3.1,3,3,0,0,0-1.48-.37,1.69,1.69,0,0,0-1.43.47,3,3,0,0,0-.32,1.61v6.42h5.68l-.6,4.57H282.5V162c0,.89.11,1.43.32,1.61a3.8,3.8,0,0,0,1.89.27h1.62v3.93h-2.86c-2,0-3.39-.39-4.16-1.16-.77.77-2.17,1.16-4.2,1.16h-2V164a7,7,0,0,0,2.65-.3c.2-.17.3-.72.3-1.64v-8.49l-1.75-2.13,1.75-2.12v-6.7c0-.92-.11-1.47-.32-1.66a6.45,6.45,0,0,0-2.63-.28v-3.87h2c2.1,0,3.5.36,4.2,1.1a6,6,0,0,1,4.39-1.43,8.16,8.16,0,0,1,5.49,1.85,6.85,6.85,0,0,1,2.54,5.45,3.78,3.78,0,0,1-.83,2.49"/><path class="cls-7" d="M303.46,169.45a7.49,7.49,0,0,1-4.2-1.11,9.13,9.13,0,0,1-4.2.79h-3.23v-6.44l1.26,0c.83,0,1.35,0,1.68-.08,0-.14,0-.33,0-.57v-8l-2.14-2.59,2.14-2.59v-6.23a4.63,4.63,0,0,0,0-.57c-.31,0-.83-.06-1.67-.08l-1.26,0v-6.44h3.22a9,9,0,0,1,4.2.79,8.08,8.08,0,0,1,4.46-1.11,11,11,0,0,1,6.11,2.06c2.08,1.39,3.16,3.68,3.19,6.83a4.58,4.58,0,0,1-1.49,3.45,4.92,4.92,0,0,1-2,1.16l-.83,6.35h-4.92v3.35a5.27,5.27,0,0,1,.87-1.4,4.46,4.46,0,0,1,3.47-1.58,5,5,0,0,1,4,2,4.66,4.66,0,0,1,1.12,3.17,8.76,8.76,0,0,1-3.56,6.43,9.79,9.79,0,0,1-6.22,2.47m1.7-21.55-.43-.4a4.63,4.63,0,0,1-1-1.37v1.77Z"/><path class="cls-8" d="M312,160.5a7.57,7.57,0,0,1-3.1,5.49,8.52,8.52,0,0,1-5.4,2.17,5.76,5.76,0,0,1-4.16-1.43c-.73.74-2.15,1.11-4.24,1.11h-1.94V164a7.41,7.41,0,0,0,2.67-.28c.19-.15.28-.7.28-1.66v-8.45l-1.75-2.12,1.75-2.13v-6.69c0-.92-.1-1.47-.3-1.64a7,7,0,0,0-2.65-.3v-3.88h1.93c2.12,0,3.53.37,4.24,1.11a6,6,0,0,1,4.42-1.43,9.64,9.64,0,0,1,5.39,1.85c1.72,1.13,2.59,3.06,2.62,5.77a3.29,3.29,0,0,1-1.08,2.49,3.61,3.61,0,0,1-2.56,1,3.25,3.25,0,0,1-2.43-1,3.38,3.38,0,0,1-1-2.45,5.59,5.59,0,0,1,1.15-3,3,3,0,0,0-1.56-.46c-.74,0-1.22.15-1.44.46a3,3,0,0,0-.32,1.62v6.42h5.68l-.6,4.57h-5.08v7.63a5.92,5.92,0,0,0,.23,2.13,1,1,0,0,0,1,.44,2.53,2.53,0,0,0,1.8-.88,5.09,5.09,0,0,1-.83-2.58,4,4,0,0,1,1-2.66,3.15,3.15,0,0,1,2.49-1.13,3.7,3.7,0,0,1,3,1.48,3.44,3.44,0,0,1,.84,2.31"/><path class="cls-7" d="M126.23,203.67a7.34,7.34,0,0,1-3.13-.56,7.17,7.17,0,0,1-3.09.56h-2.77V198.2h1.29a4.49,4.49,0,0,0,.91-.11v-4.61l-1.69-2,1.69-2.05v-1.65a3.83,3.83,0,0,1-2.87,1.27,4,4,0,0,1-2.9-1.22,3.94,3.94,0,0,1-1.18-2.93,7.91,7.91,0,0,1,2.52-5.11l0-.06.06-.05A7.63,7.63,0,0,1,120,177.7a6,6,0,0,1,3.09.74,6,6,0,0,1,3.1-.74,7.63,7.63,0,0,1,4.88,1.94l.06.05.05.06a7.87,7.87,0,0,1,2.52,5.11,3.86,3.86,0,0,1-1.18,2.93,4,4,0,0,1-2.89,1.22,3.81,3.81,0,0,1-2.84-1.24v1.62l1.69,2.05-1.69,2v4.68l.94,0,1.26,0v5.45Z"/><path class="cls-8" d="M132.42,184.9a2.56,2.56,0,0,1-.8,2,2.74,2.74,0,0,1-2,.84,2.5,2.5,0,0,1-1.93-.86,2.84,2.84,0,0,1-.79-2,3.75,3.75,0,0,1,.79-2.1,1.85,1.85,0,0,0-1.32-.65.71.71,0,0,0-.68.37,4,4,0,0,0-.2,1.55v5.82l1.31,1.58L125.51,193v5c0,.67.08,1.07.24,1.21a5.17,5.17,0,0,0,2,.24v2.89h-1.48c-1.56,0-2.6-.28-3.13-.83a4.31,4.31,0,0,1-3.09.83h-1.48v-2.89a6.74,6.74,0,0,0,2-.35,2,2,0,0,0,.21-1.1v-5l-1.31-1.58,1.31-1.58V184a3.73,3.73,0,0,0-.21-1.55.73.73,0,0,0-.69-.37,1.89,1.89,0,0,0-1.34.65,3.75,3.75,0,0,1,.79,2.1,2.84,2.84,0,0,1-.79,2,2.5,2.5,0,0,1-1.92.86,2.71,2.71,0,0,1-2-.84,2.6,2.6,0,0,1-.81-2,6.7,6.7,0,0,1,2.17-4.27A6.39,6.39,0,0,1,120,179a4.19,4.19,0,0,1,3.09,1.07,4.2,4.2,0,0,1,3.1-1.07,6.41,6.41,0,0,1,4.06,1.65,6.73,6.73,0,0,1,2.16,4.27"/><path class="cls-7" d="M149.62,203.67a8.1,8.1,0,0,1-3.25-.52,6.48,6.48,0,0,1-2.8.52h-3.85a5,5,0,0,1-2.07-.39,6.64,6.64,0,0,1-2.51.39h-2.8v-5.45l1.26,0a8,8,0,0,0,1.16-.1,5,5,0,0,0,.3-.92l1.24-5.33L135.08,190l2.18-2.24,1-4.29h-1.39v-5.5H140a7.12,7.12,0,0,1,3.25.66,6.87,6.87,0,0,1,3.18-.66h2.73v5.5h-1.6l.79,4.47,1.95,2.08L149,191.93,150,198.2h1.87v5.47Zm-7.36-5.47h.31l-.22-1.54h-.89c-.16.7-.26,1.19-.32,1.54h1.12Z"/><path class="cls-8" d="M150.62,202.38h-1c-1.65,0-2.74-.26-3.27-.76a4.11,4.11,0,0,1-2.78.76h-1.31v-2.89c1.1,0,1.65-.19,1.65-.55a6.65,6.65,0,0,0,0-.73l-.42-2.85h-3a21.94,21.94,0,0,0-.69,3.61c0,.32.49.49,1.48.52v2.89h-1.51a2.94,2.94,0,0,1-2.07-.62,3.5,3.5,0,0,1-2.51.62h-1.51v-2.89a4.25,4.25,0,0,0,1.92-.32,3.12,3.12,0,0,0,.76-1.68l1.37-5.88-1-1.48,1.72-1.75,1.31-5.61a2.18,2.18,0,0,0,.07-.48c0-.09-.23-.14-.69-.14h-1v-2.93H140a4.92,4.92,0,0,1,3.26.93,4.69,4.69,0,0,1,3.17-.93h1.44v2.93H147c-.64,0-1,.14-1,.41a2.39,2.39,0,0,0,0,.31l1,5.64,1.51,1.62-1,1.51,1.17,6.92a1,1,0,0,0,1.1.93h.72ZM142.93,192l-.77-4.55-.95,4.55Z"/><path class="cls-7" d="M166.34,203.67a6.5,6.5,0,0,1-2.7-.48,6.1,6.1,0,0,1-2.6.48h-2.78a5.66,5.66,0,0,1-2.52-.49,5.17,5.17,0,0,1-2.33.49h-2.36v-5.43l1.37,0c.74,0,.83-.27.9-.48l2.22-6.11-1.11-1.5.94-1.33-1.91-5a3.26,3.26,0,0,0-.19-.38,7.55,7.55,0,0,0-1-.07l-1.25,0V178h2.73a6,6,0,0,1,2.58.48,4.84,4.84,0,0,1,2.24-.48h3.34a4.51,4.51,0,0,1,1.9.37,4.6,4.6,0,0,1,1.92-.37h2.63v5.5l-1.32,0h-.19a3.33,3.33,0,0,0-.85.08,3.55,3.55,0,0,0-.47,1l-1.48,4.12,1.22,1.54-1.21,1.53,2.45,6.3c.05.1.08.18.1.22a5.53,5.53,0,0,0,.9.06h1.29v5.4Z"/><path class="cls-8" d="M167.54,202.38h-1.2a4,4,0,0,1-2.72-.73,3.61,3.61,0,0,1-2.58.73H159.8v-2.83q.93-.06.93-.3a2.81,2.81,0,0,0-.2-.83l-1.17-3L158.08,199a3.29,3.29,0,0,0-.1.44c.12,0,.52.05,1.21.07v2.83h-.93a3.39,3.39,0,0,1-2.51-.76,3.23,3.23,0,0,1-2.34.76h-1.07v-2.83a2,2,0,0,0,2.2-1.34l2.44-6.74-1-1.31.8-1.13-2.16-5.61a2.12,2.12,0,0,0-.72-1,4.64,4.64,0,0,0-1.6-.22v-2.89h1.44a3.7,3.7,0,0,1,2.62.76,2.88,2.88,0,0,1,2.2-.76h1.55v2.89H159l0,0a1.21,1.21,0,0,0,.07.24l1.12,2.87,1-2.87a1.42,1.42,0,0,0,.06-.21h-.72v-2.89h1.48a2.81,2.81,0,0,1,1.89.58,2.94,2.94,0,0,1,1.93-.58h1.34v2.89a3,3,0,0,0-1.88.36,3.68,3.68,0,0,0-.87,1.57l-1.72,4.78,1,1.3-1,1.31,2.71,7a1.56,1.56,0,0,0,.69.92,4.3,4.3,0,0,0,1.51.18Z"/><path class="cls-7" d="M177,203.67a7.09,7.09,0,0,1-3.1-.57,7.17,7.17,0,0,1-3.13.57H168v-5.45l1.27,0c.41,0,.71,0,.94,0v-5.95l-1.69-2.05,1.69-2v-4.53a.53.53,0,0,0,0-.13l-.91,0H168V178h2.77a7.16,7.16,0,0,1,3.13.56A7.07,7.07,0,0,1,177,178h2.77v5.47h-1.29l-.91,0v4.66l1.69,2-1.69,2.05v5.95l.93,0,1.27,0v5.45Z"/><path class="cls-8" d="M178.45,202.38H177a4.41,4.41,0,0,1-3.1-.83,4.45,4.45,0,0,1-3.13.83h-1.48v-2.89a5.76,5.76,0,0,0,2-.21c.14-.11.21-.53.21-1.24v-6.29l-1.31-1.59,1.31-1.58v-5c0-.71-.08-1.13-.23-1.25a5,5,0,0,0-2-.19v-2.89h1.48c1.56,0,2.61.28,3.13.83a4.33,4.33,0,0,1,3.1-.83h1.48v2.89a4.63,4.63,0,0,0-2,.21c-.16.13-.24.55-.24,1.23v5l1.3,1.58-1.3,1.59V198c0,.69.07,1.1.22,1.22a5.29,5.29,0,0,0,2,.23Z"/><path class="cls-7" d="M187.84,203.91a5.91,5.91,0,0,1-3.13-.78,7.27,7.27,0,0,1-3.06.54h-2.77v-5.45l1.26,0c.41,0,.71,0,.94,0v-5.95l-1.69-2,1.69-2v-4.64c-.22,0-.52,0-.94,0l-1.26,0V178h2.77a7.33,7.33,0,0,1,3.08.54,6.28,6.28,0,0,1,3.25-.78c2.6,0,6,1.12,7.47,6.45a23.27,23.27,0,0,1,.69,4l1.48,2-1.44,2a26.51,26.51,0,0,1-.87,5,10.24,10.24,0,0,1-2.87,5.2,6.94,6.94,0,0,1-4.6,1.6m.43-7.16c0-.26,0-.58,0-.94V192.1l0,.05Zm0-8.52v-2.81c0-.62,0-1,0-1.31v4.07Z"/><path class="cls-8" d="M196,190.16l-1.1,1.52a26.16,26.16,0,0,1-.86,5.09,9.15,9.15,0,0,1-2.46,4.56,5.66,5.66,0,0,1-3.77,1.29,4.14,4.14,0,0,1-3.06-1.07,4.47,4.47,0,0,1-3.13.83h-1.48v-2.89a6,6,0,0,0,2-.21c.14-.11.21-.53.21-1.24v-6.29l-1.31-1.59,1.31-1.58v-5c0-.68-.08-1.09-.22-1.22a5.4,5.4,0,0,0-2-.22v-2.89h1.48c1.56,0,2.6.28,3.13.83A4.42,4.42,0,0,1,188,179q4.71,0,6.22,5.5a22.93,22.93,0,0,1,.69,4.1Zm-6.44,5.65v-4.06l-.93-1.59.93-1.58v-3.16a10.72,10.72,0,0,0-.13-2.14,1.4,1.4,0,0,0-1.48-1.13c-.44,0-.71.1-.83.29a2.66,2.66,0,0,0-.17,1.15v5l1.1,1.58-1.1,1.59V198c0,1,.32,1.45,1,1.45,1.1,0,1.65-1.23,1.65-3.68"/><path class="cls-7" d="M205.38,203.91a6.1,6.1,0,0,1-3.15-.78,7.49,7.49,0,0,1-3.11.54h-2.73v-5.45l1.26,0c.41,0,.71,0,.94,0v-5.95l-1.69-2.05,1.69-2v-4.64c-.22,0-.53,0-.94,0l-1.26,0V178h2.73a7.49,7.49,0,0,1,3.11.54,6.5,6.5,0,0,1,3.34-.78,8.48,8.48,0,0,1,4.73,1.59,6.09,6.09,0,0,1,2.53,5.36,3.73,3.73,0,0,1-1.22,2.81,4.08,4.08,0,0,1-1.4.88l-.59,4.49a4.14,4.14,0,0,1,2.47,1.51A3.85,3.85,0,0,1,213,197a6.89,6.89,0,0,1-2.77,5,7.64,7.64,0,0,1-4.85,1.92m.57-9.74.07-.08a3.9,3.9,0,0,1,1.16-.92H206Z"/><path class="cls-8" d="M211.71,196.91a5.65,5.65,0,0,1-2.3,4.09,6.37,6.37,0,0,1-4,1.62,4.25,4.25,0,0,1-3.09-1.07,4.53,4.53,0,0,1-3.17.83h-1.44v-2.89a5.68,5.68,0,0,0,2-.21c.14-.11.21-.53.21-1.24v-6.29l-1.31-1.58,1.31-1.59v-5c0-.68-.08-1.09-.22-1.22a5.4,5.4,0,0,0-2-.22v-2.89h1.44c1.58,0,2.63.27,3.16.83a4.46,4.46,0,0,1,3.29-1.07,7.27,7.27,0,0,1,4,1.37,4.83,4.83,0,0,1,2,4.3,2.43,2.43,0,0,1-.81,1.86,2.67,2.67,0,0,1-1.91.76,2.4,2.4,0,0,1-1.8-.76,2.47,2.47,0,0,1-.74-1.82,4.14,4.14,0,0,1,.86-2.24,2.28,2.28,0,0,0-1.17-.34c-.55,0-.91.11-1.07.34a2.24,2.24,0,0,0-.24,1.21v4.78h4.23l-.45,3.4h-3.78v5.69a4.51,4.51,0,0,0,.17,1.59.74.74,0,0,0,.72.33,1.93,1.93,0,0,0,1.35-.66,3.72,3.72,0,0,1-.62-1.92,3,3,0,0,1,.72-2,2.34,2.34,0,0,1,1.86-.84,2.74,2.74,0,0,1,2.23,1.1,2.51,2.51,0,0,1,.62,1.72"/><path class="cls-7" d="M221.1,203.67a7.1,7.1,0,0,1-3.13-.59,7.07,7.07,0,0,1-3.13.59h-2.77v-5.45l1.27,0,.93,0a.49.49,0,0,0,0-.12v-5.86l-1.7-2.05,1.7-2v-4.52c0-.05,0-.09,0-.14h-2.2v-5.47h2.78a7.23,7.23,0,0,1,3.2.58,7.89,7.89,0,0,1,3.82-.82,6.59,6.59,0,0,1,5.46,2.3,7.37,7.37,0,0,1,1.53,4.76,7.5,7.5,0,0,1-1.4,4.57,4.69,4.69,0,0,1,1.47,3.62v4.78c0,.17,0,.31,0,.43h1.71v5.51Z"/><path class="cls-8" d="M229.36,202.38h-6.5V193.8a3.7,3.7,0,0,0-.21-1.71c-.14-.16-.6-.24-1.37-.24h-.9v6.21q0,1,.24,1.2a5.21,5.21,0,0,0,2,.24v2.88H221.1a4.44,4.44,0,0,1-3.13-.86,4.41,4.41,0,0,1-3.13.86h-1.48v-2.89a5.29,5.29,0,0,0,2-.23c.15-.12.22-.53.22-1.22v-6.33l-1.3-1.58,1.3-1.58v-5c0-.69-.08-1.1-.24-1.24a4.63,4.63,0,0,0-2-.21v-2.89h1.49q2.42,0,3.18.87a5.71,5.71,0,0,1,3.84-1.11,5.36,5.36,0,0,1,4.46,1.83,6.1,6.1,0,0,1,1.24,3.95,6,6,0,0,1-2.1,4.82,3.36,3.36,0,0,1,2.17,3.37v4.78a3.57,3.57,0,0,0,.17,1.46c.12.18.4.26.86.26h.69Zm-6.5-16.31v-1.79c0-1.44-.45-2.17-1.35-2.17a1.16,1.16,0,0,0-.92.28,2.62,2.62,0,0,0-.21,1.34v4.71h.53a2,2,0,0,0,1.54-.46,3.1,3.1,0,0,0,.41-1.91"/><path class="cls-7" d="M250.07,203.67a7.17,7.17,0,0,1-3.13-.57,7.09,7.09,0,0,1-3.1.57h-2.77v-3.24h-.52v3.24H238.3a7.3,7.3,0,0,1-3.11-.56,7.16,7.16,0,0,1-3.15.56h-2.25v-5.45l1.26,0c.41,0,.71,0,.94,0v-5.94l-1.74-2.06,1.74-2v-4.65l-.91,0h-1.29V178H232a7.25,7.25,0,0,1,3.14.55,7.33,7.33,0,0,1,3.12-.55h2.25v5.47H240l1,3.23h0c.07.2.16.49.3.91l1.35-4.14h-1.52V178h2.77a7.07,7.07,0,0,1,3.1.56,7.16,7.16,0,0,1,3.13-.56h2.77v5.47h-1.29l-1,0v4.65l1.74,2-1.74,2.06v5.94l1,0,1.27,0v5.45Z"/><path class="cls-8" d="M251.55,202.38h-1.48a4.45,4.45,0,0,1-3.13-.83,4.41,4.41,0,0,1-3.1.83h-1.48v-2.89a5.29,5.29,0,0,0,2-.23c.15-.12.22-.53.22-1.22v-5.3l-2.54,6.4h-2.41l-2.51-6.09v5q0,1.07.27,1.26a4.58,4.58,0,0,0,1.76.19h.14v2.89h-1a4.47,4.47,0,0,1-3.13-.83c-.5.55-1.55.83-3.13.83h-1v-2.89a5.68,5.68,0,0,0,2-.21c.14-.11.21-.53.21-1.24v-6.29l-1.34-1.59,1.34-1.58v-5c0-.71-.07-1.13-.22-1.25a5,5,0,0,0-2-.19v-2.89h1c1.58,0,2.63.28,3.13.83.53-.55,1.57-.83,3.13-.83h1v2.89h-1l1.44,4.88s.52,1.64,1.48,4.85l3.06-9.39a.93.93,0,0,0,.07-.31l-.24,0h-1.72v-2.89h1.48a4.33,4.33,0,0,1,3.1.83c.52-.55,1.57-.83,3.13-.83h1.48v2.89a4.82,4.82,0,0,0-2,.21c-.16.13-.24.55-.24,1.23v5l1.34,1.58-1.34,1.59V198c0,.69.07,1.1.22,1.22a5.46,5.46,0,0,0,2,.23Z"/><path class="cls-7" d="M263.9,203.67a7.06,7.06,0,0,1-3.1-.57,7.2,7.2,0,0,1-3.13.57H254.9v-5.45l1.26,0,1,0V192.3l-2-2,1.14-1.57a55.67,55.67,0,0,0-2.24-5.24,6.26,6.26,0,0,0-.84-.12l-1.19-.09v-5.37h2.42a6.48,6.48,0,0,1,3,.64,4.78,4.78,0,0,1,2.51-.64H263a5,5,0,0,1,2.29.47,4.67,4.67,0,0,1,2.18-.47h2.15v5.39l-1.22.07a4.51,4.51,0,0,0-.86.11,3,3,0,0,0-.26.49l-2.07,4.61,1.29,1.66-2,2v5.88l.94,0,1.26,0v5.45Z"/><path class="cls-8" d="M268.3,182.11a3.37,3.37,0,0,0-1.55.33,2.62,2.62,0,0,0-.69,1.05l-2.37,5.3,1.07,1.38-1.59,1.58V198c0,.67.08,1.07.24,1.21a5.21,5.21,0,0,0,2,.24v2.89H263.9a4.39,4.39,0,0,1-3.1-.83,4.45,4.45,0,0,1-3.13.83h-1.48v-2.89a5.3,5.3,0,0,0,2-.24c.17-.14.25-.54.25-1.21v-6.28l-1.62-1.58.89-1.23a44.35,44.35,0,0,0-2.78-6.39,2.79,2.79,0,0,0-1.65-.45v-2.89h1.13a4.64,4.64,0,0,1,3.06.93,3.35,3.35,0,0,1,2.44-.93h1.66v2.89h-.83q-.72,0-.72.18a1.64,1.64,0,0,0,.14.41l1.27,3.23,1.34-3.23a2.86,2.86,0,0,0,.21-.55s-.11,0-.31,0h-.9v-2.89H263a3.14,3.14,0,0,1,2.3.76,3,3,0,0,1,2.17-.76h.86Z"/><text class="cls-9" transform="translate(157.4 222.43)">TOOELE, UT</text></svg>