<svg id="Layer_1" data-name="Layer 1" xmlns="http://www.w3.org/2000/svg" viewBox="0 0 253.57 286.14"><defs><style>.cls-1{fill:#603913;}.cls-2{fill:#fbb040;}.cls-3{fill:#c2b59b;}.cls-4{fill:#fff;}</style></defs><title>taxidermy logo</title><polygon class="cls-1" points="35.03 173.83 35.03 62.1 122.09 27.94 209.14 62.1 209.14 173.83 171.33 189.21 114.3 185.35 61.52 187 35.03 173.83"/><polygon class="cls-2" points="206.25 63.12 206.25 170.87 123.15 195.45 58.83 178.54 37.92 170.87 37.92 63.12 122.09 30.09 206.25 63.12"/><polygon class="cls-3" points="116.76 115.88 37.92 124.62 37.92 107.13 116.76 115.88"/><polygon class="cls-3" points="117.22 118.04 37.92 164.44 37.92 143.3 117.22 118.04"/><polygon class="cls-3" points="117.22 113.71 37.92 88.45 37.92 67.31 117.22 113.71"/><polygon class="cls-3" points="118.52 119.83 72.75 183.6 58.83 178.49 54.43 176.88 118.52 119.83"/><polygon class="cls-3" points="118.52 111.92 55.77 56.07 73.46 49.13 118.52 111.92"/><polygon class="cls-3" points="89.35 189.69 120.44 120.94 105.05 195.45 89.35 189.69"/><polygon class="cls-3" points="105.14 36.7 120.44 110.81 89.67 42.77 105.14 36.7"/><polyline class="cls-3" points="122.64 110.58 122.18 30.09 138.81 36.61"/><polygon class="cls-3" points="124.75 111.26 154.73 42.86 170.5 49.05 124.75 111.26"/><polygon class="cls-3" points="124.75 120.49 171.22 183.67 155.04 189.61 124.75 120.49"/><polygon class="cls-3" points="206.25 63.07 206.25 67.25 126.4 112.74 188.55 56.13 206.25 63.07"/><polygon class="cls-3" points="127.3 114.77 206.25 88.61 206.25 106.93 127.3 114.77"/><polygon class="cls-3" points="127.3 116.98 206.25 124.82 206.25 143.14 127.3 116.98"/><polygon class="cls-3" points="126.4 119 206.25 164.5 206.25 170.82 189.87 176.83 126.4 119"/><path class="cls-4" d="M206.25,82.92V161.8c-22.69,2.47-97.92,11.19-147.42,16.68l-20.91-7.67V102.17l4-4.37.92-1,.93-1,.9-1h3.09l.33.27.79.62.16.13.07,0,2.08,1.31h0l.46.29,6.05,5.35,7.39.27H67v1.33l5.51.27L75,106.15l1.61,4.15,6.86.8,4-2.41.68-2.54L90.1,105l2.28-5.08L95.88,98,102.46,91l1-1.87h2.15L107,88.1h6l1.43-2.41h1.67l1.07-2.94,3.36,1.07,1.08-1.07h4l1.61,1.6,1.21,1.34,4.3-.54,3.5,3.48,5.78,3.48L144,94.52l1.48.8L149.92,90l6.18-7.22L164,69.1l4-5.88h7.53s2.69,1.07,2.69,1.87A3,3,0,0,0,179,66.7h4.3l2.16-2.15,1.34-1.33,6.45,4.55,4.31,4.54Z"/><path class="cls-1" d="M51.31,97.07l.07-.07-.07.07"/><path class="cls-1" d="M55.4,124.67c0-.12-.18,0-.21.23.13-.1.21-.17.21-.23"/><path class="cls-1" d="M59.82,136.19c-.32.62,0,2.6-1.9,2.91s-.71,1.27-.39,1.11,1.42-.32-.48.7-2.68,1.58-3.86,1.35-1.42-.87-2.76-.32-.71.16-1.34.55c-.23.15-.82,0-1.52-.19l.1,12h-3L45,141.6a1.51,1.51,0,0,0-.75,0c-.86.4-2.36,2-5.28,1.27-.37-.1-.73-.2-1.07-.31v-1.65A14.76,14.76,0,0,0,42,140.6c2.36-.71,2.52-.87,2.2-1.18s-1-.63-1.26-1.34c-.07-.24.05-.31.13-.32a13.7,13.7,0,0,1-2.34-.39c-1.13-.25-2-.39-2.8-.5v-4.52a8.94,8.94,0,0,0,2,.29c.5-.09-.7-1.06-2-2.15v-4.84a10.82,10.82,0,0,0,1.54.6c2.76.87,3.39.24,3.63.24s2.21.16,1.58-.87-3.16-1.42-3.87-1.34a5.91,5.91,0,0,1-2.88-1.71v-1.63a3.06,3.06,0,0,0,.52.19c.46.1-.08-.91-.52-1.62l-.41-.66a2.57,2.57,0,0,0,.41.36,4.18,4.18,0,0,0,2.65.89c1.81-.08,1.65-.71,1.65-.71a23.06,23.06,0,0,1-3.31-2.28,6.79,6.79,0,0,1-1-1.21v-1.25a14.53,14.53,0,0,0,3.83,1.19c1.26,0,1.66-.55.79-.86-.72-.27-3.6-1.34-4.62-1.83V112a8.91,8.91,0,0,0,3,1c1.34,0,1,.39-.71-1.74s-.71-2.92-.71-2.92h1.26a10.89,10.89,0,0,0,2.13,1.5c.47.08,2.21.63,2.21.63a4,4,0,0,0,.85-.43l0-1.54a4.31,4.31,0,0,0-.73-.39c-2.92-1.27-5.21-1.42-5.68-2.6s.24-1.27.24-1.27,1.1,1.27,1.73,1.19,1.5-1,.71-1.66A6.07,6.07,0,0,1,41,100.55c-.16-.87.79-.55.79-.55l-.55-1.35.79-.39-.08-.46-.16-1s.08-.16,1-.08l.14,0c.78.16,1.31.91,1.83.54S44,96,43.77,95.77l0,0s-.79-.87-.47-1.66c.23-.57.74-.1,1.1.31a1.43,1.43,0,0,1,.32-1.33c.94-1.26.71-1.11.86-.63s.33-.18,1.12-.2l.31-.46.15-.21v.71a2.88,2.88,0,0,1,.54.16c1,.39.79,1.58,1.18,1.18.19-.19-.3.62-.75,1.44s-1,1.9-.43,1.48l1.21-.86c.38-.27.62-.44.68-.47s-.25.28-.52.6a10.29,10.29,0,0,0-1.37,1.91c-.16.55,1.26-.31,1.89-1s.64,1,.4,1.21.73-.33,1.23-.73l.06,0,0,0a29.26,29.26,0,0,1-2.35,2c-1.18.86-.15,1.42,1,.55s1.74-.08.55,1.1.56.71,1.74-.71.86,1.74-1,3-2.84,1-2.84,1-.87,2,.08,1.82,2.68-1.34,3.24-1.5.28.16,1.24-.55,2.15-1.1.8.55-3.46,2.21-3.31,3.15-.61,1,.48.63,1.12-.23,0,.79-2.21.71-2.61,1.5-1.26,1.74,0,1.42a18.11,18.11,0,0,0,5-2.13c1.18-.87,1.44-.63,1.07-.08s-2.87,2.68-3.35,4.1-1.35,2-.4,2.13.63.47,2.21,0a8.48,8.48,0,0,0,2.92-1.73s1.41-.63,0,1.49l-1.42,2.13,1.33-.39a6.24,6.24,0,0,1-.78,2.68c-.71,1.1-1.66,2.29-.08,1.34a5.44,5.44,0,0,1,2.44-1,10.66,10.66,0,0,1-1.26,2c-.86,1.1-3.94,2.2-5,2.28s-1.74.55-1.58,1,1.31,1.18,3,.47a24.68,24.68,0,0,0,2.92-1.35c0,.18,0,.42.45.56.86.32.78.32.63.71s.86,1,.86.37.95-1.08.95-1.08a30.21,30.21,0,0,0-2.53,5.13c-.54,1.89,1.19,1.1,1.82.87s1.66-.79,1.58-.56a6.69,6.69,0,0,1-2.45,2.53c-1.42.78-2.47,1.57-3.32,1.1s-.38-.47-.86-.47-2.91.63-1.26,2.05,2.37,1.73,3.39,1.42A27.85,27.85,0,0,1,58.4,136c1.42-.24,1.73-.47,1.42.16"/><path class="cls-1" d="M70.6,105.6l.07,0-.07,0"/><path class="cls-1" d="M75,125.89c0-.09-.19,0-.23.17.15-.07.23-.12.23-.17"/><path class="cls-1" d="M78.21,134.24a41.16,41.16,0,0,0-4.23,1.1c-1.1.23-1.87,0-3.65-1s.85-1.51,1.36-1.51,0,0,.92.35,2-.23,3.57-.81a6.17,6.17,0,0,0,2.62-1.86c.09-.17-1,.24-1.69.41s-2.54.75-2-.64a20.47,20.47,0,0,1,2.71-3.77s-1,.35-1,.79-1.11,0-.94-.26.26-.29-.67-.53c-.44-.1-.52-.28-.49-.41a29,29,0,0,1-3.13,1c-1.84.53-3.07,0-3.24-.34s.51-.64,1.69-.7,4.49-.87,5.42-1.68a8.37,8.37,0,0,0,1.36-1.45,7.74,7.74,0,0,0-2.63.7c-1.69.69-.68-.18.08-1a3.53,3.53,0,0,0,.85-2l-1.44.29,1.53-1.56c1.52-1.57,0-1.11,0-1.11a10.43,10.43,0,0,1-3.14,1.28,3.9,3.9,0,0,1-2.37,0c-1-.12-.08-.52.43-1.57s3.21-2.6,3.61-3,.11-.58-1.16.06a24.79,24.79,0,0,1-5.33,1.56c-1.36.24-.43-.46,0-1s1.61-.35,2.8-1.1,1.18-.81,0-.58-.35.23-.52-.46,2.12-1.11,3.56-2.32.17-.93-.86-.41a2.42,2.42,0,0,1-1.34.41c-.6.11-2.46,1-3.47,1.1s-.09-1.33-.09-1.33a5.94,5.94,0,0,0,3-.76c2-.93,2.37-3.24,1.1-2.2s-3.13,1.39-1.86.52.67-1.45-.6-.81-2.37.23-1.1-.41c1-.47,2.22-1.3,2.64-1.57a5.06,5.06,0,0,1-1.45.6c.25-.16.25-1.4-.42-.88s-2.21,1.16-2,.75a13.76,13.76,0,0,1,2-1.85l-2,1c-1.18.58,1.7-2.43,1.27-2.14s-.17-.58-1.27-.87a5.48,5.48,0,0,0-.58-.12v-.52l-.16.16-.34.33c-.85,0-1.07.41-1.19.15s.08-.46-.93.46c-.45.41-.46.75-.34,1-.39-.31-.94-.65-1.19-.23-.34.58.51,1.21.51,1.21s1.61.87,1,1.16-1.19-.35-2.12-.4-1,.05-1,.05l.26,1-.85.29.59,1s-1-.23-.85.41a3.83,3.83,0,0,0,1.36,2.32c.85.52-.08,1.16-.76,1.21s-1.87-.86-1.87-.86-.76,0-.25.92,3,1,6.1,1.92a4.32,4.32,0,0,1,.79.29l0,1.12a5.48,5.48,0,0,1-.91.32s-1.86-.4-2.37-.46a12.67,12.67,0,0,1-2.29-1.1H57.89s-1,.58.76,2.14,2.2,1.28.76,1.28a19,19,0,0,1-4.49-1.16s.85,1,.93,1.16,4.41,1.27,5.34,1.51.51.63-.85.63a29.1,29.1,0,0,1-5.08-1.16,7.74,7.74,0,0,0,2,2.09A28.2,28.2,0,0,0,60.85,122s.17.47-1.78.52a5.76,5.76,0,0,1-3.3-.92s1.78,1.79,1,1.68-2.28-.93-1.61.11a7.45,7.45,0,0,0,4.16,2.21c.76-.06,3.47.23,4.15,1s-1.44.64-1.7.64-.93.46-3.89-.18-3-1.21-3-1.21a1.51,1.51,0,0,0,.51,1.5c.76.7.85,1,0,.82s-3-.82-1.86.29,5.76,3.18,4.82,3.3-6.69-1.1-6.6-.46,1.27,1.79,1.27,1.79L50.69,133s1.69.92,2.37,1.39,2.28.29,6.18.87a21.75,21.75,0,0,0,2.51.28c-.09,0-.22.07-.14.24.26.52,1,.75,1.36,1s.17.35-2.37.87-8.39.06-8.39.06a18,18,0,0,0,5.17,1.62,9,9,0,0,0,5.67-.92,2.08,2.08,0,0,1,.81,0l-.38,9.35h3.21l-.11-8.84a4,4,0,0,0,1.64.14c.68-.29,0,0,1.44-.4s1.69.06,3,.23,2.12-.23,4.15-1,.85-.64.51-.53-1.61-.58.42-.81,1.7-1.68,2-2.14,0-.29-1.52-.12"/><path class="cls-1" d="M82.08,114.22l0,0c0-.06,0,0,0,0"/><path class="cls-1" d="M84.18,128.38c0-.06-.09,0-.11.12.07-.05.11-.09.11-.12"/><path class="cls-1" d="M85.72,134.21a12.79,12.79,0,0,0-2,.77c-.53.16-.89,0-1.74-.73s.4-1.05.64-1.05,0,0,.44.24,1-.16,1.71-.57A3.35,3.35,0,0,0,86,131.58c0-.12-.48.16-.81.28s-1.21.53-.93-.44a15.83,15.83,0,0,1,1.3-2.63s-.49.24-.49.55-.52,0-.44-.19.12-.2-.33-.36c-.21-.08-.24-.2-.23-.29a11.34,11.34,0,0,1-1.49.69c-.88.37-1.47,0-1.55-.24s.24-.44.81-.49a5.19,5.19,0,0,0,2.59-1.17,5.34,5.34,0,0,0,.64-1,2.78,2.78,0,0,0-1.25.49c-.81.48-.33-.13,0-.69a3.3,3.3,0,0,0,.4-1.38l-.68.21.72-1.1c.73-1.09,0-.77,0-.77a4.25,4.25,0,0,1-1.49.89c-.81.25-.65.09-1.14,0s0-.36.21-1.09,1.53-1.82,1.72-2.1.06-.41-.55,0a9.43,9.43,0,0,1-2.55,1.09c-.65.16-.2-.32,0-.73s.77-.24,1.34-.77.56-.56,0-.4-.17.16-.25-.32,1-.77,1.7-1.62.08-.65-.41-.28-.36.2-.64.28a12.57,12.57,0,0,1-1.66.77c-.48.08,0-.93,0-.93s.49.12,1.46-.53,1.13-2.26.52-1.54-1.49,1-.89.37.33-1-.28-.57-1.13.16-.52-.28a15.15,15.15,0,0,0,1.25-1.1c-.23.21-.8.53-.69.42s.12-1-.2-.62-1,.81-1,.53a8.21,8.21,0,0,1,1-1.29l-1,.68c-.57.41.81-1.7.61-1.49s-.09-.41-.61-.61a1.21,1.21,0,0,0-.28-.08v-.37l-.08.11-.16.24c-.41,0-.51.28-.57.1s0-.32-.45.32a.76.76,0,0,0-.16.69c-.18-.22-.45-.45-.57-.16s.25.85.25.85.76.6.48.81-.56-.25-1-.29-.49,0-.49,0l.13.73-.41.21.28.68s-.48-.16-.4.29a3.05,3.05,0,0,0,.65,1.61c.4.37,0,.81-.37.85s-.89-.6-.89-.6-.36,0-.12.64,1.42.69,2.91,1.34a2.56,2.56,0,0,1,.38.2l0,.79a2,2,0,0,1-.44.22s-.89-.28-1.13-.32a5.55,5.55,0,0,1-1.09-.77H76s-.48.4.37,1.5,1.05.89.36.89a6.88,6.88,0,0,1-2.14-.81s.4.68.44.81a21.06,21.06,0,0,0,2.55,1c.44.16.24.44-.41.44a10.39,10.39,0,0,1-2.42-.81,5.09,5.09,0,0,0,1,1.46,11,11,0,0,0,1.7,1.17s.08.33-.85.37a2.24,2.24,0,0,1-1.58-.65s.85,1.25.49,1.17-1.1-.64-.77.08a3.38,3.38,0,0,0,2,1.54c.36,0,1.66.16,2,.69s-.69.44-.81.44-.44.33-1.86-.12-1.41-.85-1.41-.85a1.36,1.36,0,0,0,.24,1c.36.49.4.69,0,.57s-1.42-.57-.89.2,2.75,2.23,2.3,2.31-3.19-.77-3.15-.33a3.9,3.9,0,0,0,.61,1.26l-1.14-.08s.81.65,1.14,1,1.09.2,3,.61a6.1,6.1,0,0,0,1.2.19s-.11,0-.07.17c.12.36.49.53.65.69s.08.24-1.13.6a14.39,14.39,0,0,1-4,0,7.13,7.13,0,0,0,2.47,1.13,3.26,3.26,0,0,0,2.71-.65.67.67,0,0,1,.38,0l-.18,6.52h1.54l-.06-6.16c.36.1.67.17.79.09.32-.2,0,0,.68-.28s.81,0,1.42.16,1-.16,2-.68.41-.45.24-.37-.76-.4.21-.56.81-1.18,1-1.5,0-.2-.73-.08"/><path class="cls-1" d="M164.49,106.92l0,0c0-.06,0,0,0,0"/><path class="cls-1" d="M162.4,124c0-.08.09,0,.11.13-.07-.05-.11-.1-.11-.13"/><path class="cls-1" d="M160.87,131a13.57,13.57,0,0,1,2,.93c.53.2.89,0,1.74-.88s-.41-1.27-.65-1.27,0,0-.44.3-1-.2-1.7-.69a3.91,3.91,0,0,1-1.25-1.56c0-.15.49.2.81.34s1.21.64.93-.53A19.9,19.9,0,0,0,161,124.5s.48.3.48.67.53,0,.44-.23-.12-.24.33-.44a.32.32,0,0,0,.23-.35A10.37,10.37,0,0,0,164,125a1.09,1.09,0,0,0,1.54-.29c.08-.25-.24-.54-.8-.59a4.79,4.79,0,0,1-2.58-1.41,7,7,0,0,1-.65-1.22,2.51,2.51,0,0,1,1.25.58c.81.59.32-.14,0-.83a4.59,4.59,0,0,1-.4-1.66l.68.25-.72-1.32c-.73-1.32,0-.93,0-.93a4.35,4.35,0,0,0,1.49,1.08c.8.29.64.09,1.13,0s0-.44-.21-1.32a12.29,12.29,0,0,0-1.71-2.54c-.19-.34-.06-.49.55,0a8.7,8.7,0,0,0,2.54,1.32c.64.19.2-.39,0-.88s-.77-.3-1.34-.93-.56-.68,0-.49.17.2.25-.39-1-.93-1.69-2-.09-.78.41-.34.35.24.63.34a12.31,12.31,0,0,0,1.66.93c.48.09,0-1.13,0-1.13s-.49.15-1.46-.63-1.12-2.74-.52-1.86,1.49,1.17.89.44-.32-1.22.28-.68,1.13.19.52-.34a16.65,16.65,0,0,1-1.25-1.33c.23.25.8.64.69.51s-.12-1.18.2-.74,1.05,1,1,.63a9.92,9.92,0,0,0-1-1.56l1,.83c.56.49-.81-2-.61-1.81s.08-.49.61-.73a1.19,1.19,0,0,1,.28-.1v-.44l.08.13.16.29c.4,0,.51.34.57.12s0-.39.44.39a1.06,1.06,0,0,1,.16.83c.18-.26.45-.55.57-.2a1.31,1.31,0,0,1-.25,1s-.76.73-.48,1,.56-.3,1-.35.48,0,.48,0l-.12.88.4.25-.28.83s.49-.2.4.34a4.29,4.29,0,0,1-.64,2,.63.63,0,0,0,.36,1c.32,0,.89-.73.89-.73s.36.05.12.78-1.41.83-2.9,1.61a2.78,2.78,0,0,0-.38.25l0,1a1.9,1.9,0,0,0,.44.27s.89-.34,1.13-.39a5.76,5.76,0,0,0,1.09-.93h.64s.48.49-.36,1.81-1.05,1.07-.37,1.07a6.26,6.26,0,0,0,2.14-1s-.4.82-.44,1A18.63,18.63,0,0,1,169,118c-.44.2-.24.54.4.54a9.08,9.08,0,0,0,2.42-1,6.43,6.43,0,0,1-1,1.76,11.9,11.9,0,0,1-1.69,1.41s-.08.39.85.44a2.1,2.1,0,0,0,1.57-.78s-.85,1.52-.49,1.42,1.09-.78.77.1-1.61,1.9-2,1.85-1.66.2-2,.83.69.54.81.54.44.39,1.85-.15,1.41-1,1.41-1a2,2,0,0,1-.24,1.27c-.36.58-.4.83,0,.68s1.41-.68.89.24-2.74,2.69-2.3,2.79,3.18-.93,3.14-.4a5.25,5.25,0,0,1-.6,1.52L174,130s-.81.78-1.13,1.17-1.09.25-2.94.73a4.85,4.85,0,0,1-1.2.24s.11.06.07.2c-.12.44-.49.64-.65.83s-.08.3,1.13.74a11.85,11.85,0,0,0,4,0,6.58,6.58,0,0,1-2.46,1.37,2.86,2.86,0,0,1-2.7-.78.58.58,0,0,0-.38,0l.18,7.88h-1.53l.05-7.44c-.36.13-.66.21-.78.12-.32-.25,0,0-.68-.34s-.81,0-1.41.19-1-.19-2-.83-.4-.54-.24-.44.77-.49-.2-.68-.81-1.42-1-1.81,0-.24.73-.1"/><path class="cls-1" d="M185.22,99.17l.05-.06c.08-.07,0,0-.05.06"/><path class="cls-1" d="M188.42,120.77c0-.1-.14,0-.17.17.11-.07.17-.13.17-.17"/><path class="cls-1" d="M190.76,129.65a23,23,0,0,0-3.08,1.17c-.8.25-1.36,0-2.65-1.11s.61-1.6,1-1.6,0,0,.67.37,1.49-.25,2.6-.87a5.25,5.25,0,0,0,1.92-2c.06-.18-.74.25-1.24.43s-1.85.8-1.42-.68a23.18,23.18,0,0,1,2-4s-.74.37-.74.84-.81,0-.68-.28.18-.31-.5-.56c-.31-.11-.37-.3-.35-.44A17.65,17.65,0,0,1,186,122c-1.34.56-2.24-.06-2.36-.37s.37-.68,1.23-.74a7.83,7.83,0,0,0,3.95-1.79,8.39,8.39,0,0,0,1-1.54,4.3,4.3,0,0,0-1.92.74c-1.23.74-.49-.19.06-1a4.9,4.9,0,0,0,.62-2.1l-1,.31,1.11-1.66c1.11-1.67,0-1.18,0-1.18a6.66,6.66,0,0,1-2.28,1.36c-1.23.37-1,.13-1.73,0s-.06-.55.32-1.66,2.34-2.78,2.62-3.21.09-.62-.84.06a14.21,14.21,0,0,1-3.89,1.67c-1,.24-.3-.5,0-1.11s1.18-.37,2-1.18.86-.86,0-.61-.26.24-.38-.5,1.54-1.17,2.59-2.46.12-1-.63-.44-.54.31-1,.44a21.29,21.29,0,0,1-2.53,1.17c-.74.12-.06-1.42-.06-1.42s.74.18,2.22-.8,1.73-3.46.8-2.35-2.28,1.48-1.36.56.5-1.54-.43-.87-1.73.25-.8-.43a23.38,23.38,0,0,0,1.92-1.67c-.36.31-1.23.8-1.06.64s.19-1.5-.31-.94-1.6,1.23-1.48.8a12.93,12.93,0,0,1,1.48-2l-1.48,1c-.86.62,1.24-2.59.93-2.28s-.12-.62-.93-.92a2.83,2.83,0,0,0-.42-.13v-.55l-.11.17-.25.35c-.62,0-.78.43-.87.16s.06-.5-.68.49a1.12,1.12,0,0,0-.25,1c-.28-.33-.68-.69-.86-.25-.25.62.37,1.3.37,1.3s1.17.92.74,1.23-.86-.37-1.54-.43-.74.06-.74.06l.18,1.11-.61.31.43,1s-.74-.25-.62.43a4.73,4.73,0,0,0,1,2.47c.61.55-.07,1.23-.56,1.29s-1.35-.92-1.35-.92-.56.06-.19,1,2.16,1,4.44,2a3.73,3.73,0,0,1,.58.31l0,1.2a3.24,3.24,0,0,1-.66.34s-1.36-.43-1.73-.49a8.28,8.28,0,0,1-1.66-1.17h-1s-.74.61.55,2.28,1.61,1.36.56,1.36a10.54,10.54,0,0,1-3.27-1.24s.62,1,.68,1.24a33.85,33.85,0,0,0,3.88,1.6c.68.25.37.68-.61.68a15.67,15.67,0,0,1-3.7-1.24,7.78,7.78,0,0,0,1.48,2.23,17.69,17.69,0,0,0,2.59,1.78s.12.5-1.3.56a3.39,3.39,0,0,1-2.4-1s1.29,1.91.74,1.79-1.67-1-1.18.12a5.16,5.16,0,0,0,3,2.35c.55-.06,2.53.25,3,1.05s-1.05.68-1.23.68-.68.49-2.84-.19-2.16-1.29-2.16-1.29a2.11,2.11,0,0,0,.37,1.6c.55.74.62,1,0,.86s-2.16-.86-1.36.31,4.2,3.39,3.52,3.52-4.87-1.17-4.81-.5a6,6,0,0,0,.92,1.92l-1.73-.13s1.24,1,1.73,1.48,1.67.31,4.51.93a10.55,10.55,0,0,0,1.82.3c-.06,0-.16.07-.1.25.19.56.74.81,1,1.05s.12.37-1.73.93-6.1.06-6.1.06a10.61,10.61,0,0,0,3.76,1.73c2.28.55,3.45-.68,4.13-1a1.11,1.11,0,0,1,.59,0L180,144h2.34l-.08-9.4a2.07,2.07,0,0,0,1.19.15c.5-.31,0,0,1.05-.43s1.24.06,2.16.24,1.54-.24,3-1,.62-.68.37-.56-1.17-.62.31-.86,1.24-1.79,1.48-2.29,0-.3-1.11-.12"/><path class="cls-1" d="M191.06,92.11l-.07-.06c-.11-.11-.07-.06.07.06"/><path class="cls-1" d="M186.77,119.74c0-.12.19,0,.23.22-.15-.09-.23-.16-.23-.22"/><path class="cls-1" d="M205.87,121.71c-.75,1-.83,1.35,0,1.11l.41-.13v1.9c-1.68,1.42-4,3-3.31,3.12a18.79,18.79,0,0,0,3.31-.53v4.62c-.94.12-2.27.26-4.13.65a15.52,15.52,0,0,1-2.45.38c.08,0,.21.09.13.33-.25.7-1,1-1.32,1.34s-.17.47,2.31,1.18a19.78,19.78,0,0,0,5.46.29v1.26A15.49,15.49,0,0,1,204,138c-3.06.71-4.63-.87-5.53-1.26a1.53,1.53,0,0,0-.79,0l.37,12.73h-3.14l.11-12a2.86,2.86,0,0,1-1.6.19c-.66-.39,0,0-1.4-.55s-1.65.08-2.9.32S187,137,185,136s-.83-.87-.5-.72,1.57-.78-.41-1.1-1.65-2.29-2-2.92,0-.39,1.49-.16a30.68,30.68,0,0,1,4.13,1.5c1.08.32,1.82,0,3.56-1.42s-.83-2.05-1.33-2.05,0,0-.89.47-2-.31-3.49-1.1a6.89,6.89,0,0,1-2.56-2.53c-.08-.23,1,.32,1.65.56s2.49,1,1.91-.87a29.22,29.22,0,0,0-2.65-5.13s1,.47,1,1.07,1.08,0,.91-.36-.25-.39.66-.71c.43-.15.51-.38.48-.56a25.4,25.4,0,0,0,3.05,1.35c1.8.71,3-.08,3.17-.47s-.5-.87-1.65-.95-4.38-1.19-5.29-2.29a10.89,10.89,0,0,1-1.33-2,5.86,5.86,0,0,1,2.56,1c1.66.94.66-.24-.08-1.35a6.1,6.1,0,0,1-.82-2.68l1.4.4-1.49-2.13c-1.48-2.14,0-1.5,0-1.5a9,9,0,0,0,3.06,1.73c1.65.48,1.32.16,2.31,0s.09-.71-.41-2.13-3.14-3.55-3.52-4.1-.11-.79,1.12.08a19.81,19.81,0,0,0,5.21,2.13c1.32.31.42-.63,0-1.42s-1.57-.48-2.73-1.5-1.15-1.1,0-.79.33.31.5-.63-2.07-1.5-3.47-3.16-.17-1.26.84-.55.73.39,1.31.55,2.4,1.34,3.39,1.5.08-1.81.08-1.81-1,.23-3-1-2.31-4.42-1.07-3,3.06,1.9,1.82.71-.66-2,.57-1.1,2.32.31,1.08-.56a27.27,27.27,0,0,1-2.56-2.14c.47.4,1.64,1,1.41.82s-.25-1.91.41-1.2,2.15,1.58,2,1a15.58,15.58,0,0,0-2-2.51c.09.06.89.59,2,1.33s-1.65-3.31-1.24-2.92.16-.79,1.24-1.18a3,3,0,0,1,.58-.16V86.6l.16.22.32.45c.83,0,1,.56,1.18.2s-.09-.63.9.63a1.37,1.37,0,0,1,.33,1.34c.38-.42.92-.89,1.16-.31.33.79-.5,1.65-.5,1.65s-1.57,1.19-1,1.58,1.16-.47,2.07-.55,1,.08,1,.08l-.25,1.42.83.39L201.07,95s1-.31.83.56a6,6,0,0,1-1.32,3.15c-.83.71.08,1.58.74,1.66s1.82-1.18,1.82-1.18.74.07.24,1.26-2.89,1.34-5.95,2.6a5.36,5.36,0,0,0-.77.4l.05,1.53a4.1,4.1,0,0,0,.89.44s1.82-.55,2.31-.63a11.3,11.3,0,0,0,2.24-1.5h1.32s1,.79-.75,2.92S200.58,108,202,108s3.83-1.3,4.3-1.54l.08,0-.08.12c-.21.34-.76,1.26-.83,1.46a47,47,0,0,1-5.21,2.05c-.91.31-.49.86.83.86s4.8-1.5,5-1.57a10,10,0,0,1-2,2.84,24.68,24.68,0,0,1-3.47,2.28s-.17.64,1.73.71a4.59,4.59,0,0,0,3.22-1.26c-.08.13-1.71,2.45-1,2.29s2.23-1.26,1.57.16-3.3,3.07-4.05,3-3.39.31-4.05,1.34,1.41.87,1.66.87.91.63,3.8-.24c2-.61,2.63-1.18,2.81-1.47a.39.39,0,0,0,.08-.19,2.65,2.65,0,0,1-.08,1.25,2.34,2.34,0,0,1-.41.8"/><path class="cls-1" d="M206.25,151.56v21L118.52,189l-80.6-16.47V156.09c18.85-11.36,51.45-18.87,88.51-18.87,31.88,0,60.46,5.56,79.82,14.34"/><path class="cls-1" d="M130,65.18a20.46,20.46,0,0,0-2.88.32,4.93,4.93,0,0,0-.77.36l-.11.06-.1.14s-2.81,4-2.81,4L122,72c-1,1.45-2.39,3.37-3.17,4.49a2.64,2.64,0,0,1,.93-.81.61.61,0,0,1,.41-.09l1.24.44S120,77,119.8,77.17s.07.48.18.53a1.79,1.79,0,0,0,1.8.23,1.33,1.33,0,0,1-1.52.4s-.52-.42-.92-.7-.75,0-1,.13a4.29,4.29,0,0,0,2.58,2l2.82-1.42.66-.33.74-.37,2.62-1.31a3.22,3.22,0,0,1,1.37.6l0,0v0a13.88,13.88,0,0,1,1.54,6.46,12.45,12.45,0,0,1-4.32,9.85c-.29.4-.6.78-.91,1.17a15.22,15.22,0,0,1-7.43,4.58,54.58,54.58,0,0,0-7.18,2.42c-3,1.49-5.71.88-8.26-1.05-.56-.43-1.06-.95-1.69-1.52a6,6,0,0,0,1,3.29c.13.18.62.48,0,.66s-.31.45-.09.7a6.58,6.58,0,0,0,2.44,1.69c.31.13.7.16.48.69-1.11,2.59-1.36,5.41-2.25,8.06-1.23,3.66-3,6.8-6.88,8.26-.42.16-.48.41-.49.79a25.64,25.64,0,0,1-1.49,7.61c-.58,1.71-1.28,3.38-2,5a1.46,1.46,0,0,1-1.44,1c-3.86.29-6,2-6.49,5.32-.27,1.6-.18,1.71,1.41,1.71h76.36c.23,0,.47,0,.7,0,.58,0,.68-.18.58-.75a31.78,31.78,0,0,0-4.44-11.75c-3.77-5.68-8.76-7.41-15.23-5.25-.7.23-1,.09-1.27-.55-.4-.86-.76-1.73-1.07-2.6A26.73,26.73,0,0,1,139.18,111a10.44,10.44,0,0,1,2-5.88,19.46,19.46,0,0,0,3.3-6.78,3,3,0,0,1,.68-1.3c.3-.32.62-.61.94-.89a14.68,14.68,0,0,1,3.87-2.4.87.87,0,0,1,1.24.34,13.17,13.17,0,0,1,2.62,5.81c.08.5.13.87.8.79s.73.37.58.89a4.82,4.82,0,0,1-2.28,2.91c-.45.26-.73.51-.61,1.07a11.72,11.72,0,0,0,1.95,4.7,5.85,5.85,0,0,0,.43-.88,55,55,0,0,1,2.57-7.92,6.16,6.16,0,0,0,.31-1.57,1.12,1.12,0,0,0-.31-1,17.5,17.5,0,0,1-4.56-9c-.17-.82-.4-1.06-1.27-.72a37.19,37.19,0,0,0-5.77,2.93,46.58,46.58,0,0,0-7.61-19.8,67.41,67.41,0,0,0-5.24-6h0m4.38,62.19a80.27,80.27,0,0,1-8.08,2.65c-2.07.57-4.17,1-6.25,1.52-.37.09-.73.23-1.08-.08-2.37-2.08-4.5-4.32-5.09-7.58a4.08,4.08,0,0,1,1-3.9,24.58,24.58,0,0,0,5-9c.25-.73.15-1-.7-1a14.93,14.93,0,0,0-4.57.28,4.31,4.31,0,0,0-3.21,3.11,31.28,31.28,0,0,1-2.82,7.63.48.48,0,0,0,.12.69,17.47,17.47,0,0,1,3.36,5,35.48,35.48,0,0,0,3.59,5.67c-2.47.3-4.74.59-7,.83-4.15.44-8.29.85-12.44,1.28l-2.44.26c-.7.07-1.09.06-1-.82.08-.69.17-1.37.28-2.05a19.21,19.21,0,0,1,1.87-6.12,7.17,7.17,0,0,1,4.91-4,12.29,12.29,0,0,0,8.24-6.1c.7-1.14,1.57-2.17,2.38-3.25,2.39-3.21,5.69-4.4,9.35-3.14s7,.67,10.48,0c.91-.19,1.2.06,1.49.84a15.27,15.27,0,0,1,1.14,7.64,1.21,1.21,0,0,0,.2,1,52.59,52.59,0,0,1,3.33,5.69c.32.57.66,1.14,1,1.7-1,.47-2.05.9-3.09,1.31"/><path class="cls-2" d="M206.74,207.89a320.83,320.83,0,0,0-169.31,0Q32.52,190,27.61,172a358,358,0,0,1,189,0q-4.91,17.94-9.82,35.88"/><path class="cls-2" d="M186.17,236.84a242.76,242.76,0,0,0-128.16,0q-3.72-13.59-7.43-27.16a270.93,270.93,0,0,1,143,0q-3.72,13.57-7.43,27.16"/><path class="cls-1" d="M125,62.76a8.06,8.06,0,0,0,0,1l-.06,0c-.78-.41-3.85-1-4.55-2.57s-.23-3.14-.2-4.11-.31-1.15.13-2.08,1.06-7.18,1.14-7.84-.91-1.25-.71-.19-1.11,5.56-1.32,6.2-.84.63-1.65.3-3.13-3.79-4.22-5.86-1-4.39-1.21-4.31c-1.47.67.56,6.65,1.26,8a16.79,16.79,0,0,0,2.5,3.65c.44.34,1.54,5,2,6.25s-.8,1.37-1.18,1.38a32.38,32.38,0,0,1-4.74-1.16c-.4-.23-.4-.74-.71-2.59s-.54-2.84-.64-2.43l-.55,2.3s-.16.25-.64-.2a5.2,5.2,0,0,1-.76-2.9c.05-.71-.63-1.86-.63-.84s-.3,2.78.22,3.85,1.13,1.17,1.61,1.94a7.68,7.68,0,0,0,1.43,2.14,31.8,31.8,0,0,0,5.85,2.08,66.81,66.81,0,0,1,7.18,1.53,9.64,9.64,0,0,1,2.4,1.9s2.21-.88,1.9-1.4a18,18,0,0,0-2.94-2.46,2.59,2.59,0,0,0-.91-1.57"/><path class="cls-1" d="M141.37,40.43a9,9,0,0,0-1.75-2.33,23.83,23.83,0,0,1,.64,2.43c.21,1.06-.59,4.91-.59,4.91s-2.64-5.94-3.13-6.58a8.5,8.5,0,0,0-2.64-2.13c-.72-.24.24,1,.72,1.57a8.39,8.39,0,0,1,1.27,2.07c.57,1.19,3,8.17,3.24,9.08a9.74,9.74,0,0,1-1.55,6.28,1.28,1.28,0,0,1-1.35.12c-.57-.35-3.29-1.19-4.35-2.51a49.42,49.42,0,0,1-4.06-5.28c-.68-1.34-.7.51,0,1.58a14.65,14.65,0,0,1,1.27,2.57,2,2,0,0,1-1.7-.83c-.52-.88-1.06-.62-.67.25a10,10,0,0,0,4,4c2.17,1.23,5.31,2.16,5.64,2.55C136.1,59.26,134,62,134,62s-2-1.88-2.86-1.55a8.3,8.3,0,0,1,1.57,2.34,4.55,4.55,0,0,1-.63,2.26l-.76.86s.35,1,1.06,1.13a2.09,2.09,0,0,0,1.38-.2s4.82-7.55,5.69-9.47a25.58,25.58,0,0,0,1.88-7.1c-.07-1.05.35-4.19.3-5.19s.43-3.27-.27-4.66"/><path class="cls-1" d="M132.44,66.31s2.05.38,2.24-.14.19-1.62,1.2-2.25,3.68-2,3.68-2l.43.83s.84,2.69-.78,4.22-2.55,2.45-2.58,3.08-1.13.88-1.13.88-3.4-4.13-3.06-4.61"/><path class="cls-1" d="M124.86,62s-1.23,5,0,6,4.33-1.27,4.33-1.27S126.26,62,124.86,62"/><path class="cls-1" d="M81.52,236.5l-.48.09a6.57,6.57,0,0,0-1.8.56,9.4,9.4,0,0,0-.95,1.71c0,.07-.06.12-.11.12l-.32,0a.09.09,0,0,1-.08-.11c0-.57.14-2.36.14-2.63s.07-.24.16-.26.15,0,.31.14a1.21,1.21,0,0,0,1,.14c.74-.1,1.32-.18,2.76-.44l.79-.15c1.51-.27,2.09-.42,2.67-.54a2.19,2.19,0,0,0,1-.5c.11-.15.19-.23.28-.24s.15,0,.2.18c.28.84.56,1.68.83,2.52a.09.09,0,0,1,0,.12l-.27.15c-.05,0-.08,0-.15-.09A8.57,8.57,0,0,0,86,236,6.51,6.51,0,0,0,84,236l-.45.08.63,3.56c0,.19.67,3.81.72,4s.23.5.55.44l.59-.1c.12,0,.14,0,.16.1s0,.2.05.3,0,.11-.12.13-.56,0-2,.32-1.94.4-2.13.44-.13,0-.15-.13,0-.17,0-.25,0-.13.06-.15l.68-.13a.43.43,0,0,0,.38-.47c0-.27-.77-4.24-.82-4.49l-.6-3.19"/><path class="cls-1" d="M91.47,243a4.64,4.64,0,0,1-2.55-3.57A4.9,4.9,0,0,1,89.7,236a5,5,0,0,1,3.79-2.21,5.2,5.2,0,0,1,3.51.61,4.83,4.83,0,0,1,1.6,6.68,5,5,0,0,1-3.89,2.33,6.37,6.37,0,0,1-3.24-.41m5.71-4.55c-.32-2.87-2.5-4.2-3.67-4a2.32,2.32,0,0,0-1.72,1,4.5,4.5,0,0,0-.76,3.33c.49,3.33,2.61,4.24,3.71,4.1,2.46-.32,2.57-3.27,2.44-4.34"/><path class="cls-1" d="M103.17,241.62a4.63,4.63,0,0,1-2.34-3.7,4.88,4.88,0,0,1,1-3.38,5,5,0,0,1,3.9-2,5.11,5.11,0,0,1,3.47.81,4.75,4.75,0,0,1,2.1,3.82,4.82,4.82,0,0,1-.87,2.93,4.94,4.94,0,0,1-4,2.12,6.28,6.28,0,0,1-3.21-.6m6-4.22c-.16-2.88-2.26-4.33-3.44-4.24a2.33,2.33,0,0,0-1.76.85,4.51,4.51,0,0,0-1,3.29c.3,3.35,2.37,4.37,3.47,4.29,2.47-.17,2.74-3.11,2.68-4.19"/><path class="cls-1" d="M115.68,236.5a10.09,10.09,0,0,0,1.39-.12,1.15,1.15,0,0,0,.62-.42,1.55,1.55,0,0,0,.3-.82c0-.09,0-.12.11-.12l.37,0c.07,0,.13,0,.11.11s0,.9,0,1.36.07,1.23.1,1.5c0,.08,0,.09-.11.11l-.32.07c-.06,0-.08,0-.11-.1a3.75,3.75,0,0,0-.29-.67,1.05,1.05,0,0,0-.76-.44,9.32,9.32,0,0,0-1.39-.05c0,.27,0,.53,0,.79,0,.71.13,2,.13,2.22,0,.69.18.92.36,1a2.81,2.81,0,0,0,1.12.09c.23,0,.79,0,1.08-.06a2.13,2.13,0,0,0,1-.45,16.49,16.49,0,0,0,1.36-1.42.12.12,0,0,1,.14,0,1.71,1.71,0,0,0,.23.13.09.09,0,0,1,0,.11c-.2.66-.4,1.32-.59,2a.29.29,0,0,1-.3.2l-1.21,0c-.87,0-2.29,0-4.6.1l-1.14.06c-.28,0-.45.05-.57.05s-.12,0-.13-.14,0-.18,0-.27,0-.12.13-.13h.4c.62,0,.67-.12.65-.58-.06-1.47-.12-2.94-.17-4.4,0-1.1-.14-2.71-.15-2.84-.08-.42-.22-.51-.59-.49l-.55,0s-.07,0-.07-.13,0-.21,0-.31,0-.09.1-.1c.3,0,.79,0,2.06,0,1.64-.06,3.27-.1,4.9-.13.23,0,.49,0,.56,0s.1,0,.11.07.53,2,.59,2.11,0,.09,0,.13l-.22.11a.14.14,0,0,1-.17-.05,14.22,14.22,0,0,0-1.65-1.46,2.4,2.4,0,0,0-1.07-.33H115.6c0,1.28.05,2.55.08,3.83"/><path class="cls-1" d="M124.93,237.34c0,.23,0,3.07,0,3.59l.77,0c.63,0,1.23,0,2,0s1.68-1.59,1.91-2.07c0-.08.08-.12.16-.07l.27.11s0,0,0,.12-.66,2.24-.75,2.59c-.35,0-4.2-.15-5.43-.15s-1.8,0-2,0-.1,0-.1-.12V241c0-.06,0-.09.09-.09h.41c.5,0,.58-.18.58-.33s.06-3.52.06-4.32v-.74c0-.84,0-2.23,0-2.44s-.1-.48-.42-.48h-.51c-.08,0-.1-.07-.1-.13v-.32c0-.06,0-.09.1-.09s.65,0,1.93,0c1.63,0,2.22,0,2.34,0s.13,0,.12.14v.3c0,.06,0,.1-.14.1h-.66c-.43,0-.49.12-.49.48,0,.17-.07,2.15-.08,3.07,0,.38,0,.76,0,1.13"/><path class="cls-1" d="M133.64,236.72a10.21,10.21,0,0,0,1.4,0,1.17,1.17,0,0,0,.66-.37,1.69,1.69,0,0,0,.37-.79c0-.1.05-.12.11-.12l.37.07c.07,0,.13,0,.11.11a11.27,11.27,0,0,0-.14,1.36c0,.59,0,1.23,0,1.5,0,.08,0,.09-.11.1l-.33,0c-.06,0-.08,0-.1-.12a3.87,3.87,0,0,0-.23-.68,1.13,1.13,0,0,0-.72-.51,11.47,11.47,0,0,0-1.39-.16c0,.27,0,.53,0,.79,0,.71,0,2-.05,2.22,0,.69.09.93.26,1a3.17,3.17,0,0,0,1.12.18c.23,0,.79,0,1.07,0A2.12,2.12,0,0,0,137,241a17,17,0,0,0,1.48-1.3c.06-.05.1-.06.14,0l.21.15c.06,0,.07.07,0,.11-.25.64-.51,1.28-.76,1.93a.29.29,0,0,1-.31.17l-1.21-.11c-.87-.06-2.28-.17-4.59-.28-.5,0-.87,0-1.14,0s-.45,0-.57,0-.12,0-.12-.15v-.27a.12.12,0,0,1,.14-.12l.4,0c.62,0,.68-.06.7-.52.06-1.47.13-2.94.19-4.4,0-1.09.09-2.71.09-2.84,0-.42-.18-.52-.55-.54l-.54,0c-.06,0-.07,0-.07-.13s0-.22,0-.32a.1.1,0,0,1,.11-.09c.3,0,.79.07,2.06.13,1.63.08,3.26.17,4.89.28.23,0,.49,0,.56,0s.1,0,.11.07c0,.19.36,2,.41,2.15s0,.1,0,.13l-.23.09a.13.13,0,0,1-.16-.07,13.71,13.71,0,0,0-1.53-1.58,2.3,2.3,0,0,0-1-.42l-1.84-.16c-.08,1.27-.16,2.54-.25,3.82"/><path class="cls-1" d="M139.87,244.6a.8.8,0,0,1-.31,0c-.1,0-.15-.06-.15-.14s.07-.11.15-.19a2.5,2.5,0,0,0,1.14-1.56.47.47,0,0,0-.26-.42.93.93,0,0,1-.66-.93,1,1,0,0,1,1.06-1c.77.07,1.29.82,1.19,1.84-.13,1.37-1.74,2.19-2.16,2.37"/><path class="cls-1" d="M147.09,234.74c0-.46,0-.68-.31-.71l-.65-.08c-.09,0-.1,0-.09-.12s0-.21,0-.32,0-.1.13-.09.82.13,2.28.3c1.22.15,1.89.2,2,.22s.13,0,.12.12,0,.23-.05.34,0,.09-.12.08l-.47-.06c-.47-.06-.74.16-.8.41s-.16,1-.24,1.7c0,.28-.07.57-.11.86-.08.69-.24,2.35-.28,2.77a2.68,2.68,0,0,0,.24,1.61,2.15,2.15,0,0,0,1.57.95,2.82,2.82,0,0,0,1.66-.36,2.75,2.75,0,0,0,1.15-2c.1-.66.19-1.33.29-2a21.85,21.85,0,0,0,.22-2.85.61.61,0,0,0-.42-.65l-.45-.06c-.08,0-.09-.05-.08-.12s0-.22.05-.34,0-.09.11-.07.77.14,1.71.28c.75.12,1.2.15,1.32.17s.13.07.12.13,0,.2,0,.29,0,.13-.11.12l-.42-.07a.53.53,0,0,0-.67.4c-.06.18-.33,2-.36,2.16s-.39,2.45-.51,2.95a3.5,3.5,0,0,1-1.51,2.32,3.85,3.85,0,0,1-2.46.48,6.37,6.37,0,0,1-2-.59,3,3,0,0,1-1.34-1.91,9.25,9.25,0,0,1,.08-3.18c.11-1,.23-2,.35-3.08"/><path class="cls-1" d="M160.55,236.14l-.48-.09a6.25,6.25,0,0,0-1.88-.11,9.08,9.08,0,0,0-1.49,1.26c0,.06-.1.09-.15.07l-.29-.15a.09.09,0,0,1,0-.12c.23-.53,1-2.17,1.06-2.42s.15-.2.25-.18.13.07.23.23a1.19,1.19,0,0,0,.86.48c.72.16,1.29.3,2.73.56l.8.14c1.5.28,2.1.35,2.69.44a2.3,2.3,0,0,0,1.07-.12c.16-.1.26-.15.35-.13s.13.08.13.24l-.12,2.65a.1.1,0,0,1-.08.1l-.31,0s-.07,0-.11-.14a8.84,8.84,0,0,0-.88-1.68,6.57,6.57,0,0,0-1.83-.61l-.46-.09-.66,3.56c0,.18-.72,3.8-.74,4s0,.54.35.6l.6.12c.12,0,.12.06.1.15s0,.2,0,.3,0,.1-.16.08-.54-.15-2-.42-2-.31-2.15-.34-.11-.07-.09-.18a2,2,0,0,0,0-.24c0-.09,0-.13.12-.12l.67.12a.43.43,0,0,0,.53-.31c.07-.27.78-4.24.82-4.49l.57-3.19"/><path class="cls-4" d="M39.38,195.43l.59-.15a14,14,0,0,0,1.37-.4,4.46,4.46,0,0,0-.12-.65l-1.28-5.53-1.75-1.35,1-2-1-4.34a3.76,3.76,0,0,0-.18-.61,10.28,10.28,0,0,0-1.41.22l-.59.13-.88-3.84,2-.45a8.05,8.05,0,0,1,1.8-.24,3.5,3.5,0,0,1,1.18.17,5.24,5.24,0,0,1,2.82-1.5,7.48,7.48,0,0,1,1.72-.21,5.69,5.69,0,0,1,3.88,1.43,6.73,6.73,0,0,1,2.14,3.62,5.91,5.91,0,0,1-.74,4.69,6.75,6.75,0,0,1,3,4.59,7.56,7.56,0,0,1-.91,5.89,6.15,6.15,0,0,1-4,2.8,6.65,6.65,0,0,1-1.35.17,4.37,4.37,0,0,1-1.68-.32,5.71,5.71,0,0,1-2.71,1.24l-1.95.45Zm7.45-2.36c.12.53.29.53.36.53l.14,0a.84.84,0,0,0,.35-.14,9.22,9.22,0,0,0-.31-1.82L47,189.83a4.64,4.64,0,0,0-.59-1.77,1.14,1.14,0,0,0-.6-.13h-.13Zm-3.18-14a2.17,2.17,0,0,0,.08.57l.91,3.93c.52-.17.63-.3.63-.31a3,3,0,0,0-.15-1.39l-.39-1.7a5.84,5.84,0,0,0-.4-1.27A1.24,1.24,0,0,0,44,179a1.51,1.51,0,0,0-.37.12"/><path class="cls-1" d="M52.25,189.17a6.91,6.91,0,0,1-.84,5.43,5.52,5.52,0,0,1-3.59,2.51,4,4,0,0,1-3-.32,4.23,4.23,0,0,1-2.69,1.42l-1.35.31-.61-2.64a5.46,5.46,0,0,0,1.78-.61c.1-.13.08-.53-.07-1.17l-1.33-5.76L39,187.17l.86-1.72-1.06-4.56c-.14-.63-.29-1-.46-1.07a5,5,0,0,0-1.85.22l-.61-2.64,1.35-.32a4.09,4.09,0,0,1,3,.1A4.24,4.24,0,0,1,43,175.51a5.4,5.4,0,0,1,5,1.09,6.14,6.14,0,0,1,2,3.29,5.26,5.26,0,0,1-1.08,4.78c1.68.68,2.79,2.17,3.33,4.5m-6.52-7.43-.4-1.7a4,4,0,0,0-.61-1.65c-.12-.12-.4-.14-.84,0s-.73.26-.8.45a1.89,1.89,0,0,0,0,1l1.06,4.56c.9-.21,1.44-.46,1.61-.74a2.94,2.94,0,0,0-.06-1.87M48,191.48l-.42-1.79c-.29-1.26-.56-2-.82-2.13a2.35,2.35,0,0,0-1.85-.13l1.33,5.78c.19.8.61,1.12,1.26,1s.79-.35.81-.7a8.63,8.63,0,0,0-.31-2"/><path class="cls-4" d="M53.78,192.08l.6-.12a3.56,3.56,0,0,0,1.41-.45,2.84,2.84,0,0,0,.24-1.27l.28-5.39L55,183.48l1.48-2.17.26-5-1.44.26-.7-3.92,2.26-.41a8.84,8.84,0,0,1,1.38-.14,4.61,4.61,0,0,1,1.76.31,5.35,5.35,0,0,1,2.8-1.23l1.94-.35.71,3.92-1.34.24-.25.05,1.77,4.81,1.91,1.43L66.79,183l2.15,6c.1.29.23.29.33.29l.14,0,1.28-.23.7,3.89-1.53.27a11.06,11.06,0,0,1-1.74.19,4.24,4.24,0,0,1-1.38-.2,5.06,5.06,0,0,1-2.47,1l-3.56.63a4.88,4.88,0,0,1-.89.09,3,3,0,0,1-1.08-.17,5,5,0,0,1-2.25.84l-2,.36Zm7-1.32c.17,0,.39,0,.64-.07l.33-.05h0l.61-.11a3.53,3.53,0,0,0,.9-.24,2.91,2.91,0,0,0-.09-.39l-.69-2.06-1.78.32a25.79,25.79,0,0,0-.05,2.6h.13"/><path class="cls-1" d="M70.67,192.42l-.92.16q-2.3.42-3.15-.15a3.87,3.87,0,0,1-2.44,1.16L63,193.8l-.48-2.67c1-.18,1.5-.44,1.43-.78a4.81,4.81,0,0,0-.15-.66l-.85-2.57-2.79.5a20.9,20.9,0,0,0,0,3.46c0,.29.54.37,1.45.23L62,194l-1.4.25a2.72,2.72,0,0,1-2-.23c-.27.45-1,.77-2.21,1l-1.4.25-.48-2.67a4,4,0,0,0,1.73-.61,3,3,0,0,0,.42-1.67l.29-5.66-1.13-1.21,1.3-1.9.28-5.39a2,2,0,0,0,0-.46c0-.08-.23-.09-.66,0l-.89.16-.48-2.7,1.65-.3a4.55,4.55,0,0,1,3.17.32,4.29,4.29,0,0,1,2.77-1.38l1.33-.24.49,2.7-.73.13c-.6.1-.87.28-.82.54a1.41,1.41,0,0,0,.08.28l1.85,5,1.67,1.24L66.13,183l2.22,6.19a1,1,0,0,0,1.17.68l.67-.12Zm-8.82-8.36L60.38,180l-.13,4.35Z"/><path class="cls-4" d="M78.07,192c-2.09,0-3.85-1.13-5.2-3.39a18.27,18.27,0,0,1-2.19-6.36l-1.61-1.53,1.3-1.95a16.21,16.21,0,0,1,.9-5.85c.92-2.52,2.49-3.95,4.67-4.24l.43,0a5.19,5.19,0,0,1,3.09,1.21,6,6,0,0,1,2.67,4,3,3,0,0,1-.65,2.3,3.19,3.19,0,0,1-2.12,1.19l-.4,0a2.77,2.77,0,0,1-1.82-.64,3,3,0,0,1-1.12-2,4,4,0,0,1,.22-1.87.4.4,0,0,0-.38.28,2.79,2.79,0,0,0-.06,1.36l.48,3.58,1.66,1.51-1.21,1.88.61,4.61c.14,1.07.43,1.71.77,1.71a.6.6,0,0,0,.58-.47,6.51,6.51,0,0,0,0-2.79l-.28-2.15,4.52-.6.34,2.53a10.49,10.49,0,0,1-.1,4.07,4.73,4.73,0,0,1-4.36,3.59,5,5,0,0,1-.76.06"/><path class="cls-1" d="M81.52,173.88a2.36,2.36,0,0,1-.52,1.84,2.53,2.53,0,0,1-1.72,1,2.2,2.2,0,0,1-1.75-.48,2.41,2.41,0,0,1-.9-1.61,3.86,3.86,0,0,1,.38-2.07,1,1,0,0,0-.86-.34q-1.25.16-1,2.34l.5,3.81,1.45,1.3-1.06,1.64.64,4.83c.21,1.6.72,2.35,1.54,2.24a1.18,1.18,0,0,0,1-.89,7.38,7.38,0,0,0,0-3.06l-.21-1.54,3.3-.43.25,1.92a10,10,0,0,1-.08,3.81,4.14,4.14,0,0,1-3.84,3.15q-3.27.44-5.35-3a18,18,0,0,1-2.15-6.36l-1.37-1.31L71,178.92a15.71,15.71,0,0,1,.86-5.81q1.26-3.45,4.17-3.84a4.23,4.23,0,0,1,3.07,1.06,5.4,5.4,0,0,1,2.43,3.55"/><path class="cls-4" d="M84.57,187.27l.6-.06a10.26,10.26,0,0,0,1.41-.2,4.09,4.09,0,0,0,0-.66l-.48-5.67-1.59-1.58,1.3-1.83-.37-4.45a4.23,4.23,0,0,0-.1-.67H85c-.28,0-.66,0-1.13.06l-.61,0L83,168.33l2-.17a8.45,8.45,0,0,1,.85,0,4.58,4.58,0,0,1,2.13.39,5.52,5.52,0,0,1,2.84-.85l2.31-.19.67,0a3.76,3.76,0,0,1,1.61.27,3,3,0,0,1,1.56-.57l1.9-.16.33,3.94-.62.05a3.39,3.39,0,0,0-1,.18s-.15.1-.37.63l-2.34,4.66c.38.12.85.29,1.4.49l.56.21L96,179.41l2.69,6c.17.45.29.53.29.53a2,2,0,0,0,.63.06H100l.6,0,.33,3.91-1.74.15-.65,0a4.31,4.31,0,0,1-1.8-.31,4.13,4.13,0,0,1-1.7.63l-.51.08,0,0-1.75.15-.77,0a4.61,4.61,0,0,1-2.18-.42,5.5,5.5,0,0,1-2.87.88l-2,.17Zm7.85-.78a3.57,3.57,0,0,0,.4,0H93l-.83-1.82.09,1.15a1.4,1.4,0,0,0,.16.65h0m-1.29-14.83a2.48,2.48,0,0,0,0,.68l.15,1.72,1.33-2.58-.3,0-.36,0h0a3.79,3.79,0,0,0-.81.13"/><path class="cls-1" d="M100.22,189.28l-1.12.09a3.81,3.81,0,0,1-2.46-.4,3.26,3.26,0,0,1-1.75.76l-1-2.67-2.54-5.58-.09.2.36,4.21c0,.62.2,1,.45,1.13a2.89,2.89,0,0,0,1.37.08l.16,0,.23,2.7-1.19.1a4.05,4.05,0,0,1-3-.56,4.16,4.16,0,0,1-2.86,1l-1.38.12-.23-2.7a5.5,5.5,0,0,0,1.85-.35c.12-.12.15-.51.09-1.18l-.5-5.89L85.3,179l1.13-1.59-.4-4.67c0-.66-.16-1.05-.3-1.16a5,5,0,0,0-1.87,0l-.23-2.7,1.39-.12a4.14,4.14,0,0,1,3,.53,4,4,0,0,1,2.82-1l1.19-.1.23,2.7a3.37,3.37,0,0,0-1.56.31c-.18.16-.24.56-.19,1.2l.33,3.86,2.36-4.57a1.47,1.47,0,0,0,.2-.7c0-.13-.3-.17-.88-.12l-.23-2.7.87-.07a3.13,3.13,0,0,1,2.28.39,2.35,2.35,0,0,1,1.55-.72l1.28-.11.23,2.7a3.74,3.74,0,0,0-1.22.25,1.81,1.81,0,0,0-.66.93l-2.43,4.84v.52c.42.12,1,.32,1.83.62l-.65,1.93,2.8,6.19a1.43,1.43,0,0,0,.57.83,2.82,2.82,0,0,0,1.25.12Z"/><path class="cls-4" d="M122.17,189.33a5.65,5.65,0,0,1-2.94-.59,5.51,5.51,0,0,1-2.85.61h-2.06V185.4h.62a5,5,0,0,0,1.41-.22,2.68,2.68,0,0,0,0-.52v-4.49l-1.42-1.7,1.41-1.71v-5.23a3.12,3.12,0,0,0-.12-1.16s0,0-.1,0a1,1,0,0,0-.44.14,3.81,3.81,0,0,1,.55,1.83,3.32,3.32,0,0,1-.91,2.29,3,3,0,0,1-2.24,1,3.14,3.14,0,0,1-2.31-1,3.06,3.06,0,0,1-1-2.31,6.92,6.92,0,0,1,2.2-4.41,6.62,6.62,0,0,1,4.23-1.75,5,5,0,0,1,2.93.8,4.8,4.8,0,0,1,2.87-.81,6.52,6.52,0,0,1,4.23,1.68,7,7,0,0,1,2.27,4.45,3.06,3.06,0,0,1-.93,2.32,3.14,3.14,0,0,1-2.28,1,3,3,0,0,1-2.28-1,3.29,3.29,0,0,1-.91-2.29,3.74,3.74,0,0,1,.54-1.83.82.82,0,0,0-.42-.13l-.09,0a3,3,0,0,0-.12,1.16v5.23l1.42,1.7-1.41,1.71v4.49a3.29,3.29,0,0,0,.05.64,9.17,9.17,0,0,0,1.41.09h.61v3.94Z"/><path class="cls-1" d="M127.94,172.31a2.47,2.47,0,0,1-.75,1.86,2.54,2.54,0,0,1-1.86.79,2.33,2.33,0,0,1-1.81-.8,2.7,2.7,0,0,1-.74-1.87,3.49,3.49,0,0,1,.74-2,1.77,1.77,0,0,0-1.24-.61.67.67,0,0,0-.64.36,3.53,3.53,0,0,0-.19,1.45l0,5.45,1.22,1.48-1.22,1.49v4.71c0,.63.08,1,.23,1.13a4.56,4.56,0,0,0,1.84.22v2.71h-1.38a4.13,4.13,0,0,1-2.94-.77,4.13,4.13,0,0,1-2.9.78h-1.39V186a6.15,6.15,0,0,0,1.87-.33,1.83,1.83,0,0,0,.2-1V180l-1.23-1.48L117,177v-5.45a3.45,3.45,0,0,0-.2-1.45.67.67,0,0,0-.64-.36,1.84,1.84,0,0,0-1.26.62,3.56,3.56,0,0,1,.75,2,2.7,2.7,0,0,1-.74,1.87,2.37,2.37,0,0,1-1.81.81,2.51,2.51,0,0,1-1.85-.79,2.41,2.41,0,0,1-.77-1.85,6.3,6.3,0,0,1,2-4,5.93,5.93,0,0,1,3.8-1.55,4,4,0,0,1,2.91,1,3.9,3.9,0,0,1,2.9-1,5.91,5.91,0,0,1,3.81,1.54,6.3,6.3,0,0,1,2,4"/><path class="cls-4" d="M136.43,189.77h-.28a5.41,5.41,0,0,1-4.2-2.56c-1.43-2-2.12-4.91-2.07-8.57l-1.33-1.79,1.59-1.68c.56-3.77,1.87-6.47,3.91-8a5.07,5.07,0,0,1,3.06-1.11h.28a5.38,5.38,0,0,1,4.17,2.55,13.43,13.43,0,0,1,2.05,7.28l1.45,1.85-1.55,1.64c-.4,4.45-1.75,7.58-4,9.3a5,5,0,0,1-3,1.11m-.67-6.65a12.58,12.58,0,0,0,0,1.57c.06.57.29.69.65.71h0c.26,0,.49-.05.64-.55a10.51,10.51,0,0,0,.17-1.66l.21-4.14-.67-.88L136,179Zm1.07-6.68.76-.8.16-2.93a11.32,11.32,0,0,0,0-1.57c-.07-.6-.33-.66-.61-.68h-.06c-.21,0-.44,0-.6.56a7.16,7.16,0,0,0-.19,1.62l-.16,2.92Z"/><path class="cls-1" d="M144.24,177.68l-1.33,1.42q-.54,6.59-3.8,9.07a4.4,4.4,0,0,1-2.93,1,4.79,4.79,0,0,1-3.72-2.3q-2.09-3-2-8.4l-1.14-1.55,1.37-1.45c.51-3.72,1.75-6.32,3.7-7.82a4.34,4.34,0,0,1,2.93-1,4.75,4.75,0,0,1,3.69,2.29A13,13,0,0,1,143,176.1Zm-6.43,5.55.23-4.38-1.18-1.54,1.34-1.41.16-3.15a12.62,12.62,0,0,0,0-1.68,1.25,1.25,0,0,0-2.48-.23,7.89,7.89,0,0,0-.22,1.77l-.17,3.15,1.18,1.54-1.33,1.42-.23,4.37a13.74,13.74,0,0,0,0,1.67,1.22,1.22,0,0,0,1.22,1.26,1.18,1.18,0,0,0,1.28-1,9.74,9.74,0,0,0,.19-1.79"/><path class="cls-4" d="M162.16,192.42a6.33,6.33,0,0,1-.76,0,4.83,4.83,0,0,1-2.78-1.21,4.09,4.09,0,0,1-1.67.3,10.56,10.56,0,0,1-1.31-.09l-2-.27.53-3.9.6.07a12.49,12.49,0,0,0,1.34.1h.08a4,4,0,0,0,.12-.64l.76-5.63-1.17-1.88,1.63-1.5.59-4.45a2.8,2.8,0,0,0,0-.64,10.11,10.11,0,0,0-1.38-.28l-.6-.1.52-3.9,2,.27a5.62,5.62,0,0,1,2.83,1,4,4,0,0,1,1.66-.3,7.62,7.62,0,0,1,1.3.09l2,.27-.53,3.91-.61-.08a4.12,4.12,0,0,0-.62,0,6,6,0,0,0-.81.06,3,3,0,0,0-.1.51l-.6,4.45,1.17,1.88-1.63,1.5-.69,5.19a2.8,2.8,0,0,0,0,1.16s0,0,.1,0h.1a.93.93,0,0,0,.35-.08,3.84,3.84,0,0,1-.26-1.88,3.3,3.3,0,0,1,1.18-2.15,3,3,0,0,1,1.92-.73l.44,0a3.17,3.17,0,0,1,2.15,1.27,3.08,3.08,0,0,1,.62,2.42,6.88,6.88,0,0,1-2.77,4.07,7,7,0,0,1-3.69,1.21"/><path class="cls-1" d="M168,187a6.29,6.29,0,0,1-2.55,3.69,5.94,5.94,0,0,1-4,1,4,4,0,0,1-2.74-1.38,4.18,4.18,0,0,1-3,.37l-1.37-.18.36-2.69a4.82,4.82,0,0,0,1.87,0c.15-.1.27-.46.36-1.11l.78-5.85-1-1.63,1.41-1.31.63-4.67c.08-.62.06-1-.08-1.15a4.74,4.74,0,0,0-1.79-.47l.36-2.68,1.38.18a4.15,4.15,0,0,1,2.81,1.16,4.08,4.08,0,0,1,3-.38l1.37.19-.36,2.68a6.56,6.56,0,0,0-1.9.07,1.93,1.93,0,0,0-.33,1l-.62,4.67,1,1.63-1.41,1.31-.73,5.4a3.43,3.43,0,0,0,0,1.47.68.68,0,0,0,.59.44,1.82,1.82,0,0,0,1.33-.44,3.53,3.53,0,0,1-.44-2.05,2.72,2.72,0,0,1,1-1.76,2.36,2.36,0,0,1,1.88-.56,2.54,2.54,0,0,1,1.73,1A2.38,2.38,0,0,1,168,187"/><path class="cls-4" d="M175.64,194.43a5.51,5.51,0,0,1-2.76-1.11,3.86,3.86,0,0,1-1.43.24,8.26,8.26,0,0,1-1.56-.14l-2-.35.68-3.88.61.09a11.74,11.74,0,0,0,1.41.17,4.4,4.4,0,0,0,.15-.64l1-5.59-1.1-1.93,1.69-1.44.77-4.38a4.52,4.52,0,0,0,.08-.67,9.57,9.57,0,0,0-1.37-.31l-.61-.11.68-3.89,2,.35a5.66,5.66,0,0,1,2.78,1.11,3.73,3.73,0,0,1,1.42-.24,9.26,9.26,0,0,1,1.55.15l2,.35-.69,3.88-.61-.1a11.52,11.52,0,0,0-1.39-.18,3.67,3.67,0,0,0-.16.65l-.77,4.39,1.09,1.92-1.69,1.44-1,5.6a5,5,0,0,0-.07.64,11.51,11.51,0,0,0,1.38.33l.6.12-.69,3.88Z"/><path class="cls-1" d="M177.11,194.06l-1.36-.24a4.14,4.14,0,0,1-2.73-1.27,4.14,4.14,0,0,1-3,.25l-1.36-.24.47-2.67A5.4,5.4,0,0,0,171,190q.21-.12.39-1.11l1-5.82-.95-1.67,1.47-1.25.81-4.61c.12-.65.12-1,0-1.19a4.83,4.83,0,0,0-1.8-.5l.48-2.67,1.36.24a4.13,4.13,0,0,1,2.76,1.28,4,4,0,0,1,3-.26l1.37.24-.47,2.67a4.43,4.43,0,0,0-1.85-.13c-.17.1-.31.47-.42,1.1l-.81,4.61.95,1.68-1.47,1.24-1,5.82c-.11.63-.11,1,0,1.16a5,5,0,0,0,1.79.53Z"/><path class="cls-4" d="M185.36,196.43a5.44,5.44,0,0,1-2.7-1.24,3.8,3.8,0,0,1-1.27.2,8.2,8.2,0,0,1-1.73-.21l-2-.42.84-3.85.59.12a11.54,11.54,0,0,0,1.41.21,5,5,0,0,0,.18-.62l1.21-5.58-1-2,1.74-1.37,1-4.35a3.18,3.18,0,0,0,.1-.66,8.73,8.73,0,0,0-1.35-.37l-.61-.13.84-3.86,2,.43a5.57,5.57,0,0,1,2.72,1.21,4.17,4.17,0,0,1,1.66-.33,7.21,7.21,0,0,1,1.53.18,6.33,6.33,0,0,1,3.83,2.31,5.42,5.42,0,0,1,1,4.6,3.3,3.3,0,0,1-1.16,1.94,3.1,3.1,0,0,1-1.88.68l-1.49,4.16-3.4-.74-1.1,5.08a2.86,2.86,0,0,0-.09.64,6.49,6.49,0,0,0,.84.23l1.71.38-.85,3.89Zm5.26-13.5a2.87,2.87,0,0,1-1-1,3,3,0,0,1-.37-2.27,4.16,4.16,0,0,1,.82-1.66l-.12,0a2.09,2.09,0,0,0-.38,0,.26.26,0,0,0-.13,0,1.75,1.75,0,0,0-.26.71l-.82,3.78Z"/><path class="cls-1" d="M193.79,182.18a2.48,2.48,0,0,1-2.15.49,2.29,2.29,0,0,1-1.49-1,2.41,2.41,0,0,1-.3-1.82,4.13,4.13,0,0,1,1.19-2,2.09,2.09,0,0,0-.95-.48,1.17,1.17,0,0,0-1.05.11,2,2,0,0,0-.46,1.05l-1,4.38,3.88.85-1.09,3-3.47-.76-1.24,5.68c-.13.61-.14,1,0,1.15a2.63,2.63,0,0,0,1.25.47l1.11.24-.59,2.68-1.95-.43a4,4,0,0,1-2.67-1.4,4.15,4.15,0,0,1-3,.16l-1.35-.3.57-2.65a5,5,0,0,0,1.86.2q.24-.14.45-1.08l1.27-5.8-.88-1.71,1.51-1.19,1-4.57a1.83,1.83,0,0,0,0-1.18,4.3,4.3,0,0,0-1.76-.58l.58-2.65,1.35.29a4.18,4.18,0,0,1,2.71,1.39,4.16,4.16,0,0,1,3.2-.33,5.72,5.72,0,0,1,3.48,2.08,4.79,4.79,0,0,1,.92,4.1,2.69,2.69,0,0,1-.94,1.58"/><path class="cls-4" d="M200,200.1a5.54,5.54,0,0,1-1.47-.19,4.9,4.9,0,0,1-2.61-1.56,3.12,3.12,0,0,1-1,.13,8,8,0,0,1-2-.31l-1.91-.52,1-3.8.59.15a13.07,13.07,0,0,0,1.4.29,3.72,3.72,0,0,0,.2-.62l1.48-5.49-.92-2,1.81-1.29,1.15-4.3a3.59,3.59,0,0,0,.13-.63,11.11,11.11,0,0,0-1.34-.46l-.58-.17,1-3.8,1.9.51a5.74,5.74,0,0,1,2.69,1.35,4,4,0,0,1,1.42-.25,6.67,6.67,0,0,1,1.79.26,7.44,7.44,0,0,1,3.61,2.41,5.16,5.16,0,0,1,.86,4.94,2.92,2.92,0,0,1-1.5,1.88,3.17,3.17,0,0,1-1.49.38h-.11l-1.7,4.08-3.35-.9-1.23,4.55a5.21,5.21,0,0,0-.22,1.15l.13,0a.69.69,0,0,0,.2,0,1,1,0,0,0,.29,0,4,4,0,0,1,0-1.7,3.42,3.42,0,0,1,1.39-2,2.79,2.79,0,0,1,1.58-.5,2.61,2.61,0,0,1,.82.11,3.19,3.19,0,0,1,2.16,1.88,3.06,3.06,0,0,1,.17,2.15,5.9,5.9,0,0,1-3.42,3.52,7.52,7.52,0,0,1-3,.71m4.51-13.59a2.91,2.91,0,0,1-1-1,3,3,0,0,1-.29-2.3,3.87,3.87,0,0,1,1-1.59.49.49,0,0,0-.17-.06,1.57,1.57,0,0,0-.42-.07h-.1a2,2,0,0,0-.28.7l-1,3.74Z"/><path class="cls-1" d="M205.83,195.69a5.32,5.32,0,0,1-3.09,3.14,6,6,0,0,1-4,.48,4,4,0,0,1-2.54-1.72,4.22,4.22,0,0,1-3.07,0l-1.31-.35.7-2.62a5.44,5.44,0,0,0,1.86.3c.15-.07.32-.43.49-1.07l1.54-5.7-.8-1.76,1.57-1.11,1.21-4.52c.17-.62.2-1,.1-1.16a4.89,4.89,0,0,0-1.74-.68l.71-2.62,1.3.35c1.43.39,2.32.89,2.66,1.52a4.17,4.17,0,0,1,3.24-.16,6.76,6.76,0,0,1,3.3,2.22,4.53,4.53,0,0,1,.73,4.37,2.31,2.31,0,0,1-1.19,1.49,2.55,2.55,0,0,1-1.91.22,2.24,2.24,0,0,1-1.45-1.13,2.34,2.34,0,0,1-.23-1.83,3.89,3.89,0,0,1,1.33-1.81,2.09,2.09,0,0,0-1-.6,1.16,1.16,0,0,0-1.05.05,2.07,2.07,0,0,0-.51,1l-1.17,4.33,3.84,1-1.24,3-3.43-.92-1.38,5.15a4.08,4.08,0,0,0-.24,1.48c.05.22.25.38.58.47a1.83,1.83,0,0,0,1.37-.26,3.69,3.69,0,0,1-.09-1.9,2.83,2.83,0,0,1,1.14-1.62,2.21,2.21,0,0,1,1.89-.31,2.6,2.6,0,0,1,1.75,1.55,2.45,2.45,0,0,1,.15,1.71"/><path class="cls-4" d="M66.81,226.68l.6-.14a4.47,4.47,0,0,0,1-.37c0-.08,0-.18-.06-.32l-.81-3.45L66,221.29l.82-1.64-.59-2.52a2.85,2.85,0,0,1-.36,1.1,2.54,2.54,0,0,1-1.66,1.26,2.85,2.85,0,0,1-.64.07,2.77,2.77,0,0,1-1.42-.43A2.58,2.58,0,0,1,61,217.42a5.62,5.62,0,0,1,.93-3.92A5.37,5.37,0,0,1,65,211.31a5.25,5.25,0,0,1,1.2-.15,3.66,3.66,0,0,1,1.21.22,4,4,0,0,1,2.12-1.13,4.81,4.81,0,0,1,1.07-.12,5.89,5.89,0,0,1,2.59.68A5.69,5.69,0,0,1,75.81,214a2.55,2.55,0,0,1-.33,2.07,2.64,2.64,0,0,1-1.68,1.23,2.68,2.68,0,0,1-.62.07,2.55,2.55,0,0,1-1.43-.46,2.93,2.93,0,0,1-.77-.76l.58,2.45L73,219.66l-.81,1.64.81,3.45a2.6,2.6,0,0,0,.11.39c.18,0,.48-.06,1-.17l.6-.13.77,3.3-1.68.4a6.77,6.77,0,0,1-1.54.2,2.88,2.88,0,0,1-.86-.12,4.59,4.59,0,0,1-2.15,1l-1.69.4ZM65.5,214.89a4.76,4.76,0,0,1,.35.47,2.15,2.15,0,0,0-.21-.57l-.14.1m5-1.18a2.57,2.57,0,0,0,.06.47,2.73,2.73,0,0,1,.1-.48h-.16"/><path class="cls-1" d="M75.21,214.11a1.93,1.93,0,0,1-.25,1.58,2.05,2.05,0,0,1-1.3,1,1.9,1.9,0,0,1-1.56-.3,2.17,2.17,0,0,1-.92-1.32,2.86,2.86,0,0,1,.22-1.67,1.43,1.43,0,0,0-1.08-.26.55.55,0,0,0-.43.4,3,3,0,0,0,.12,1.16l1,4.25,1.22.93-.68,1.38.86,3.67c.11.49.24.77.38.84a3.69,3.69,0,0,0,1.47-.16l.49,2.11-1.08.26a3.31,3.31,0,0,1-2.42-.07A3.27,3.27,0,0,1,69.13,229l-1.09.25-.49-2.11a5.08,5.08,0,0,0,1.4-.59,1.45,1.45,0,0,0,0-.84L68.05,222l-1.22-.93.68-1.38-1-4.25a2.76,2.76,0,0,0-.42-1.09.52.52,0,0,0-.57-.16,1.43,1.43,0,0,0-.86.7,2.86,2.86,0,0,1,.93,1.4,2.16,2.16,0,0,1-.23,1.59,1.9,1.9,0,0,1-1.26,1,2,2,0,0,1-1.59-.28,1.92,1.92,0,0,1-.93-1.3,5,5,0,0,1,.85-3.49,4.76,4.76,0,0,1,2.69-1.9,3.14,3.14,0,0,1,2.44.25,3.15,3.15,0,0,1,2.08-1.31,4.84,4.84,0,0,1,3.25.51,5.06,5.06,0,0,1,2.31,2.75"/><path class="cls-4" d="M75.45,224.75l.6-.12a3.38,3.38,0,0,0,1.07-.32h0a3.65,3.65,0,0,0,.16-.94l.24-4.25L76.46,218l1.23-1.78.22-3.84-1.12.19-.58-3.38,1.93-.33a6.22,6.22,0,0,1,1.17-.11,3.76,3.76,0,0,1,1.34.23,4.58,4.58,0,0,1,2.25-1l1.67-.29.59,3.38-1.25.22L85.25,215l1.57,1.18-.64,1.48,1.67,4.73c.05.15.09.15.14.15h.1l1.14-.2.59,3.36-1.35.23a8.2,8.2,0,0,1-1.46.14,3.15,3.15,0,0,1-1-.15,4.17,4.17,0,0,1-2,.79l-2.85.49a4.13,4.13,0,0,1-.76.07,2.55,2.55,0,0,1-.81-.12,4.23,4.23,0,0,1-1.81.64l-1.73.3Zm5.81-2.91c-.06,1-.06,1.56-.05,1.85a3.1,3.1,0,0,0,.49,0l.13,0h0l.61-.1a3.11,3.11,0,0,0,.6-.15.83.83,0,0,0-.05-.2l-.5-1.55Z"/><path class="cls-1" d="M89.1,225.19l-.74.13a3.68,3.68,0,0,1-2.51-.14,3.1,3.1,0,0,1-2,.92l-1,.17-.37-2.14c.81-.14,1.2-.35,1.15-.62a3.62,3.62,0,0,0-.12-.53l-.67-2.06-2.24.39a16.08,16.08,0,0,0,0,2.76c0,.24.43.3,1.16.19l.37,2.14-1.12.19a2.21,2.21,0,0,1-1.61-.19c-.21.35-.81.61-1.77.78l-1.12.19-.37-2.13a3.13,3.13,0,0,0,1.38-.49,2.3,2.3,0,0,0,.34-1.33l.27-4.53-.91-1,1-1.51.25-4.32a1.9,1.9,0,0,0,0-.36c0-.07-.19-.08-.53,0l-.71.13-.38-2.16,1.33-.23a3.68,3.68,0,0,1,2.53.26A3.48,3.48,0,0,1,83,208.62l1.07-.18.37,2.16-.58.1c-.47.08-.69.22-.66.43a1.28,1.28,0,0,0,.07.22l1.46,4,1.32,1-.54,1.25,1.75,5a.77.77,0,0,0,.94.55l.53-.09Zm-7-6.72-1.15-3.26-.13,3.48Z"/><path class="cls-4" d="M89.67,222.28l.62-.06c.74-.06.92-.39,1-.7l1.2-4.91-.91-1,.56-1-1.92-3.71a1.45,1.45,0,0,0-.3-.44H89.6a4.64,4.64,0,0,0-.62,0l-.6.05L88,207.15l1.69-.18a5.76,5.76,0,0,1,.69,0,3.23,3.23,0,0,1,1.29.24,3.07,3.07,0,0,1,1.61-.59l2.49-.28.46,0a2.57,2.57,0,0,1,1,.18,3.1,3.1,0,0,1,1.4-.47l1.62-.17.37,3.4-.64.05c-.8.07-1,.23-1,.23a2.37,2.37,0,0,0-.37,1l-.82,3.37,1,1L98.08,216l2.43,4.68c.14.27.23.32.23.32a1.62,1.62,0,0,0,.27,0c.17,0,.37,0,.61,0l.62-.07.36,3.34-1.51.16a5.5,5.5,0,0,1-.79,0,3.21,3.21,0,0,1-1.27-.22,4,4,0,0,1-1.89.61L95.6,225l-.54.06a5.16,5.16,0,0,1-.66,0,3.19,3.19,0,0,1-1.26-.23,3.33,3.33,0,0,1-1.7.59l-1.41.16Zm5.63-.61.39,0,.13,0-.35-.67Z"/><path class="cls-1" d="M101.92,223.71l-.9.1a3,3,0,0,1-2.08-.32,2.72,2.72,0,0,1-1.87.75l-.92.1-.23-2.11q.69-.12.66-.3a1.78,1.78,0,0,0-.21-.6l-1.12-2.14-.66,2.8a2.56,2.56,0,0,0,0,.33,7.78,7.78,0,0,0,.91,0l.23,2.11-.7.07a2.5,2.5,0,0,1-1.93-.36,2.42,2.42,0,0,1-1.69.76l-.79.08-.23-2.1a1.51,1.51,0,0,0,1.53-1.18l1.28-5.23-.83-.9.5-.91-2.07-4a1.53,1.53,0,0,0-.62-.72,3.51,3.51,0,0,0-1.21,0l-.23-2.16,1.08-.12a2.75,2.75,0,0,1,2,.36,2.16,2.16,0,0,1,1.58-.75l1.15-.12.24,2.15-.87.1,0,0a.46.46,0,0,0,.06.18L95,211.52l.5-2.22a1.57,1.57,0,0,0,0-.16l-.54.06L94.75,207l1.11-.12a2.09,2.09,0,0,1,1.46.28,2.16,2.16,0,0,1,1.39-.59l1-.11.23,2.16a2.26,2.26,0,0,0-1.37.42,2.75,2.75,0,0,0-.52,1.24l-.9,3.7.88.89L97.36,216l2.6,5a1.14,1.14,0,0,0,.59.63,3.12,3.12,0,0,0,1.14,0Z"/><path class="cls-4" d="M102.18,220.87l.6-.05c.55,0,.85-.08,1-.11,0-.1,0-.23,0-.42l-.28-4.49-1.25-1.33,1.07-1.49-.22-3.51c0-.2,0-.33,0-.42h-.17l-.85,0-.61,0-.22-3.4,1.73-.11.62,0a4.06,4.06,0,0,1,1.75.34,4.72,4.72,0,0,1,2.29-.61l1.73-.11.21,3.4-.62,0a9.11,9.11,0,0,0-1,.11,2.83,2.83,0,0,0,0,.42l.22,3.52,1.25,1.33-1.08,1.48.28,4.49c0,.19,0,.32,0,.41h.3l.73,0,.6,0,.21,3.39-1.72.11-.6,0a4.12,4.12,0,0,1-1.75-.34,4.7,4.7,0,0,1-2.31.61l-1.73.11Z"/><path class="cls-1" d="M109.85,223.17l-1.11.07a3.3,3.3,0,0,1-2.36-.47,3.3,3.3,0,0,1-2.3.76l-1.11.07-.14-2.16a4.28,4.28,0,0,0,1.49-.25c.1-.09.13-.4.1-.94l-.3-4.71-1.05-1.12.9-1.25-.23-3.74c0-.53-.11-.84-.23-.93a4.09,4.09,0,0,0-1.49-.05l-.13-2.16,1.11-.07a3.33,3.33,0,0,1,2.38.47,3.27,3.27,0,0,1,2.28-.76l1.11-.07.13,2.17a3.57,3.57,0,0,0-1.46.24c-.11.11-.15.42-.12.94l.23,3.74,1.06,1.12-.91,1.25L108,220c0,.52.1.82.22.9a3.8,3.8,0,0,0,1.49.08Z"/><path class="cls-4" d="M116.52,223.79a4,4,0,0,1-2.19-.6,4.92,4.92,0,0,1-2.32.49l-1.73,0,0-3.39.61,0c.54,0,.85,0,1-.07a2.46,2.46,0,0,0,0-.41l-.07-4.5-1.18-1.4,1.14-1.42-.05-3.52c0-.19,0-.32,0-.41a8.17,8.17,0,0,0-1,0h-.6l-.09-.6,0-2.79,2,0a4.6,4.6,0,0,1,2.11.42,4.26,4.26,0,0,1,2.41-.67h.15c2.58,0,4.32,1.53,5.19,4.5a18,18,0,0,1,.57,3l1,1.38-1,1.37a19.76,19.76,0,0,1-.6,3.77,7.29,7.29,0,0,1-2,3.76,4.9,4.9,0,0,1-3.21,1.17Zm0-4.06a1,1,0,0,0,.09.48c.1,0,.24,0,.38-.34a4.8,4.8,0,0,0,.23-1.82l0-2.88-.33-.55-.39.59Zm.3-6.72.31-.55,0-2.21a6.64,6.64,0,0,0-.11-1.44.43.43,0,0,0-.49-.38v-.62l0,.62h-.1a4.17,4.17,0,0,0,0,.46l.06,3.55Z"/><path class="cls-1" d="M122.65,213.73l-.81,1.15a18.86,18.86,0,0,1-.59,3.83,6.78,6.78,0,0,1-1.79,3.44,4.23,4.23,0,0,1-2.81,1,3.11,3.11,0,0,1-2.31-.77,3.36,3.36,0,0,1-2.34.66h-1.11l0-2.16a4.17,4.17,0,0,0,1.49-.18c.11-.09.15-.4.14-.93l-.07-4.73-1-1.17,1-1.2,0-3.74c0-.52-.07-.82-.19-.92a3.92,3.92,0,0,0-1.48-.14l0-2.17,1.11,0a3.31,3.31,0,0,1,2.36.59,3.34,3.34,0,0,1,2.39-.84c2.36,0,3.94,1.32,4.73,4.06a16.1,16.1,0,0,1,.57,3.06ZM117.89,218l0-3-.71-1.18.67-1.19,0-2.38a8.53,8.53,0,0,0-.13-1.6,1,1,0,0,0-1.12-.83c-.33,0-.54.08-.62.23a2,2,0,0,0-.12.86l.06,3.75.85,1.17-.81,1.2.07,4.72c0,.73.26,1.08.74,1.08.83,0,1.23-.94,1.2-2.78"/><path class="cls-4" d="M129.49,223.94a4,4,0,0,1-2.32-.73,4.38,4.38,0,0,1-2.06.38h-.31l-1.7-.06.13-3.4.9,0,.74,0c0-.09,0-.22,0-.41l.18-4.5L124,213.76l1.22-1.37.13-3.51a2.71,2.71,0,0,0,0-.41,8.47,8.47,0,0,0-1-.1l-.61,0,.13-3.4,1.7.07a4.8,4.8,0,0,1,2.33.55,4.29,4.29,0,0,1,2.29-.55h.23a6,6,0,0,1,3.31,1.27,4.21,4.21,0,0,1,1.59,3.79,2.43,2.43,0,0,1-.87,1.83,2.62,2.62,0,0,1-1.16.59l-.6,3.51-2.76-.11-.11,2.74a2.79,2.79,0,0,1,.73-1.45,2.33,2.33,0,0,1,1.8-.78h.09a2.69,2.69,0,0,1,2.12,1.14,2.53,2.53,0,0,1,.53,1.73,4.81,4.81,0,0,1-2.08,3.44,5.44,5.44,0,0,1-3.33,1.23Zm.27-3.58a.6.6,0,0,0,.22,0,3.15,3.15,0,0,1-.24-.91v.13a5.94,5.94,0,0,0,0,.82h0m1.46-8.2a2.67,2.67,0,0,1-.47-.42,2.41,2.41,0,0,1-.65-1.44l-.07,1.81Zm-1-3.52a4.26,4.26,0,0,0-.06.5v.43a3.12,3.12,0,0,1,.35-1l-.28,0"/><path class="cls-1" d="M134.43,219.23a4.26,4.26,0,0,1-1.85,3,4.79,4.79,0,0,1-3.07,1.1,3.24,3.24,0,0,1-2.29-.89,3.39,3.39,0,0,1-2.39.52l-1.09,0,.09-2.17a4.41,4.41,0,0,0,1.5-.09c.11-.08.17-.39.19-.93l.19-4.71-.94-1.23,1-1.15.14-3.74c0-.51,0-.82-.13-.92a4.1,4.1,0,0,0-1.48-.23l.09-2.16,1.08,0a3.33,3.33,0,0,1,2.34.71,3.35,3.35,0,0,1,2.5-.7,5.41,5.41,0,0,1,3,1.15,3.6,3.6,0,0,1,1.34,3.28,1.82,1.82,0,0,1-.66,1.37,2,2,0,0,1-1.45.51,1.82,1.82,0,0,1-1.33-.62,1.87,1.87,0,0,1-.5-1.39,3.1,3.1,0,0,1,.71-1.65,1.77,1.77,0,0,0-.87-.29,1,1,0,0,0-.81.22,1.67,1.67,0,0,0-.22.9l-.13,3.58,3.17.13-.44,2.54-2.83-.11-.17,4.26a3.43,3.43,0,0,0,.08,1.2c.08.17.26.25.53.26a1.38,1.38,0,0,0,1-.45,2.8,2.8,0,0,1-.41-1.46,2.18,2.18,0,0,1,.6-1.46,1.76,1.76,0,0,1,1.42-.58,2.07,2.07,0,0,1,1.64.89,2,2,0,0,1,.42,1.31"/><path class="cls-4" d="M141,224.53a4.56,4.56,0,0,1-2.29-.7,3.84,3.84,0,0,1-1.7.3,5.49,5.49,0,0,1-.68,0l-1.73-.16.32-3.38.61,0c.34,0,.61,0,.84,0h.18a3.83,3.83,0,0,0,.06-.41l.42-4.5-1-1.52,1.29-1.29.33-3.51a3.84,3.84,0,0,0,0-.42c-.16,0-.45-.08-1-.14l-.62,0,.32-3.39,1.73.16a4.73,4.73,0,0,1,2.35.71,4.73,4.73,0,0,1,2.19-.44,6,6,0,0,1,.72,0,4.61,4.61,0,0,1,3.66,2,5.75,5.75,0,0,1-.75,6.79,3.16,3.16,0,0,1,1,2.77l-.33,3.57a5.26,5.26,0,0,0,0,.67l.13,0,1.13.1-.32,3.42Zm.42-3.44a4.81,4.81,0,0,0,.6.11l.33-3.62a5.83,5.83,0,0,0,0-.82,3.6,3.6,0,0,0-.52-.08h-.05l-.38,4a3.3,3.3,0,0,0,0,.39m.77-8.2a.84.84,0,0,0,.46-.08s.17-.18.25-1l.12-1.34a1.78,1.78,0,0,0-.07-.9.23.23,0,0,0-.22-.13h-.2a3.64,3.64,0,0,0-.09.58l-.27,2.89h0"/><path class="cls-1" d="M147.19,224.49l-4.86-.45.6-6.4a2.88,2.88,0,0,0,0-1.3c-.09-.13-.43-.22-1-.28l-.67-.06-.44,4.64c0,.49,0,.8.1.91a3.55,3.55,0,0,0,1.45.32l-.2,2.15-1.11-.1a3.38,3.38,0,0,1-2.28-.86,3.39,3.39,0,0,1-2.4.42l-1.1-.11.2-2.15a4.11,4.11,0,0,0,1.49,0c.12-.09.21-.38.26-.9l.44-4.73-.87-1.27,1.09-1.09.35-3.73c.05-.51,0-.83-.09-.94a3.66,3.66,0,0,0-1.45-.29l.2-2.16,1.11.1a3.23,3.23,0,0,1,2.31.87,4.37,4.37,0,0,1,2.95-.56,4,4,0,0,1,3.2,1.68,5,5,0,0,1-1.25,6.49,2.52,2.52,0,0,1,1.38,2.67l-.33,3.58a2.68,2.68,0,0,0,0,1.1c.08.14.29.22.63.25l.51.05Zm-3.72-12.63.13-1.34c.1-1.08-.19-1.65-.85-1.71-.36,0-.59,0-.71.14a1.87,1.87,0,0,0-.25,1l-.33,3.52.39,0a1.54,1.54,0,0,0,1.19-.24,2.33,2.33,0,0,0,.43-1.4"/><path class="cls-4" d="M162.13,227.42a4.73,4.73,0,0,1-2.25-.83,3.42,3.42,0,0,1-1.27.2,9.34,9.34,0,0,1-1.1-.1l-1.71-.28.39-2.39-1.07-.17-.39,2.39-1.32-.21a4.69,4.69,0,0,1-2.24-.83,3.29,3.29,0,0,1-1.25.19,7.06,7.06,0,0,1-1.15-.1l-1.32-.21.53-3.36.6.09c.53.07.85.1,1,.11,0-.09,0-.22.08-.41l.71-4.44-1-1.58,1.4-1.21.56-3.47c0-.2,0-.33,0-.43a10.07,10.07,0,0,0-1-.19l-.61-.1.54-3.37,1.33.22a4.72,4.72,0,0,1,2.24.82,3.59,3.59,0,0,1,1.26-.19,8.25,8.25,0,0,1,1.13.11l1.33.21-.54,3.37-.53-.09.38,3h0c.05.24.12.72.26,1.8l2.22-4.31-1.26-.2.54-3.37,1.71.27a4.86,4.86,0,0,1,2.22.83,3.32,3.32,0,0,1,1.25-.19,8.26,8.26,0,0,1,1.14.1l1.71.28-.54,3.36-.61-.1a9.32,9.32,0,0,0-1-.12,2.66,2.66,0,0,0-.09.41l-.55,3.48,1,1.58-1.41,1.21-.71,4.44c0,.18,0,.31,0,.4a9.47,9.47,0,0,0,1,.23l.6.1-.54,3.36Zm-4.62-4.2.46,0c0-.09.05-.21.08-.4l.12-.73Zm-3.81-.63.41.09-.27-1.13-.1.61a3.31,3.31,0,0,0,0,.43"/><path class="cls-1" d="M163.32,227l-1.1-.18a3.33,3.33,0,0,1-2.22-1,3.31,3.31,0,0,1-2.39.24l-1.1-.17.35-2.14a4.14,4.14,0,0,0,1.49.07c.12-.08.23-.37.31-.88l.63-3.93-2.65,4.44-1.78-.28-1.14-4.81-.59,3.69c-.09.53-.07.85.05,1a3.35,3.35,0,0,0,1.28.34l.1,0-.34,2.14-.71-.11a3.33,3.33,0,0,1-2.22-1,3.32,3.32,0,0,1-2.42.24l-.71-.12.34-2.14a4.49,4.49,0,0,0,1.5.09c.12-.07.21-.37.3-.9L151,217l-.8-1.33,1.18-1,.59-3.69c.08-.53.08-.85,0-1a3.64,3.64,0,0,0-1.44-.37l.34-2.15.72.12a3.23,3.23,0,0,1,2.22,1,3.29,3.29,0,0,1,2.42-.24l.71.11-.34,2.15-.74-.12.49,3.79s.19,1.27.52,3.77l3.38-6.6a.84.84,0,0,0,.09-.22l-.17,0-1.28-.21.34-2.14,1.1.18a3.25,3.25,0,0,1,2.2,1,3.26,3.26,0,0,1,2.41-.25l1.1.18-.34,2.14a3.5,3.5,0,0,0-1.51-.08c-.13.08-.24.38-.32.89l-.59,3.69.8,1.33-1.18,1-.74,4.66c-.09.51-.08.82,0,.93a4,4,0,0,0,1.46.41Z"/><path class="cls-4" d="M171.89,229.59a4.63,4.63,0,0,1-2.16-1,3.25,3.25,0,0,1-1,.13,6.79,6.79,0,0,1-1.43-.19l-1.68-.38.74-3.31.6.12a8.8,8.8,0,0,0,1,.17c0-.08.06-.2.11-.38l1-4.35L168,218.78l1-.89a29.75,29.75,0,0,0-.87-4.6h0a5.18,5.18,0,0,0-.77-.3l-.55-.17.74-3.28,1.44.33a4.51,4.51,0,0,1,2.09,1,3.08,3.08,0,0,1,1.14-.21,3.72,3.72,0,0,1,.79.1l2.25.5a3.35,3.35,0,0,1,1.59.78,2.8,2.8,0,0,1,.88-.14,4.6,4.6,0,0,1,.8.1l1.23.28-.74,3.29-.58-.1a5,5,0,0,0-.66-.07.55.55,0,0,0-.18,0,1.6,1.6,0,0,0-.42.44l-2.39,3.2.63,1.34-1.67,1.05-1,4.36c0,.19-.06.31-.07.4a10.1,10.1,0,0,0,1,.28l.59.15-.75,3.31Zm1.42-14.66.37-.52-.47-.11Z"/><path class="cls-1" d="M178.59,214.88a2.37,2.37,0,0,0-1.18,0,1.89,1.89,0,0,0-.68.65L174.12,219l.55,1.18-1.42.9-1,4.6c-.1.49-.11.8,0,.92a3.54,3.54,0,0,0,1.4.5l-.48,2.12L172,229a3.3,3.3,0,0,1-2.13-1.12,3.38,3.38,0,0,1-2.43.09l-1.08-.25.48-2.11a3.54,3.54,0,0,0,1.5.15c.13-.07.26-.35.37-.84l1-4.6-.93-1.42.86-.76a33.24,33.24,0,0,0-1-5.13,2.13,2.13,0,0,0-1.14-.6l.48-2.11.83.18a3.47,3.47,0,0,1,2.09,1.19,2.46,2.46,0,0,1,1.94-.28l1.21.27-.48,2.12-.6-.14c-.36-.08-.54-.07-.56,0a1.17,1.17,0,0,0,0,.32l.4,2.58,1.52-2.14a3.88,3.88,0,0,0,.24-.37s-.07-.05-.23-.08l-.65-.15.48-2.11.88.2a2.35,2.35,0,0,1,1.56.93,2.24,2.24,0,0,1,1.71-.2l.63.15Z"/></svg>