<svg id="Layer_1" data-name="Layer 1" xmlns="http://www.w3.org/2000/svg" viewBox="0 0 441.39 428.77"><defs><style>.cls-1{fill:#aaa;}.cls-2{fill:#353535;}.cls-3{fill:#898989;}.cls-4{fill:#686868;}.cls-5{fill:#fff;}.cls-6{fill:#262626;}.cls-7{fill:#7f7f7f;}.cls-8{font-size:42.54px;font-family:RubikMonoOne-Regular, Rubik Mono One;}</style></defs><title>VulpineLOGO</title><path d="M217.54,327.8,93.17,263.89l5-187.83,82.77,56.36a287.55,287.55,0,0,1,73.84,0l82.76-56.36,4.57,187.83Z"/><path d="M328.45,94.35l-71.23,48.5a277.21,277.21,0,0,0-78.74,0l-71.23-48.5-3.66,72.18h0v.1l-.42-.11V257.9l46.57,25h0l4.64,2.49,30.44,16.33,30.53,16.38,2.08,1.11,2.34-1.25.43-.23c0,.08,0,.15,0,.22l30.71-16.47,36.48-19.57,10-5.37L332.1,257.9V166.53h0Z"/><path class="cls-1" d="M332.11,165.86l-3.66-72.18-71.23,48.5a277.21,277.21,0,0,0-78.74,0l-71.23-48.5-3.66,72.18h0v91.38l46.57,25L162,288.54,185.24,301l24.17,13,3.3,1.76,3.06,1.64a183,183,0,0,0-3.29-35.24,37.61,37.61,0,0,1,5.66-.41,37.19,37.19,0,0,1,5.31.36,183.8,183.8,0,0,0-3.26,35.15L250.9,300.8l36.48-19.56,10-5.38,34.73-18.62V165.86Z"/><path class="cls-2" d="M223,282.12a183.8,183.8,0,0,0-3.26,35.15h0l-2.34,1.25-2.08-1.11h0a183,183,0,0,0-3.29-35.24,37.61,37.61,0,0,1,5.66-.41A37.19,37.19,0,0,1,223,282.12Z"/><polygon class="cls-3" points="268.35 165.77 260.58 178.7 260.6 178.7 268.35 165.77"/><path class="cls-3" d="M310.27,253.63c0,.25-.06.5-.11.74l-14.93-2a72.53,72.53,0,0,1-6.87,22q-1.47,3-3.21,5.8l1.81,1.1L250.48,300.8l-30.71,16.47A183.8,183.8,0,0,1,223,282.12a37.19,37.19,0,0,0-5.31-.36,37.61,37.61,0,0,0-5.66.41,183,183,0,0,1,3.29,35.24l-3.06-1.64.17-1.21c-1.17-.16-2.32-.34-3.47-.55l-24.17-13-23.29-12.5,2.6-2a74.11,74.11,0,0,1-13-26.47l-14.64,3.66a88.35,88.35,0,0,1-2.05-33.38l14.93,2c0-.25,0-.5.09-.74A73.4,73.4,0,0,1,159,204.29l-12.92-7.77a89,89,0,0,1,22.3-25.17l6.09,8,3,4a73.86,73.86,0,0,1,26.87-13.08l-3.64-14.62a88.06,88.06,0,0,1,33.7-1.87l-2,14.94a74.49,74.49,0,0,1,14.84,3.61,73.26,73.26,0,0,1,13.37,6.36h0v0l7.74-12.9h0a89.12,89.12,0,0,1,25,22.63l-1.42,1.08-6.59,5-4,3a73.72,73.72,0,0,1,12.68,27l14.62-3.64A88.29,88.29,0,0,1,310.27,253.63Z"/><polygon class="cls-4" points="233.93 188.56 232.05 201.26 232.06 201.25 233.93 188.56"/><path class="cls-4" d="M297.24,274.86l0,.15-9.93,5.48-36.25,20L220.51,317.3a183.93,183.93,0,0,1,2.85-35.18,38.44,38.44,0,0,0-11,.17,183.62,183.62,0,0,1,3.69,35.2l-3.08-1.6-3.32-1.73-23.63-14-23.39-12.27-12.1-7.35,9.21,0,2.42-.64c-.06-.2-.11-.41-.16-.61a62.56,62.56,0,0,1-1.51-24.63l-12.69-1.89a75.54,75.54,0,0,1,9.3-27.08l7.4,4.3,3.7,2.16A63,63,0,0,1,185.09,213l-3.82-5.14-3.83-5.16a75.21,75.21,0,0,1,25.89-12.49l3.28,12.41A62.84,62.84,0,0,1,232,201.26h0v0l1.87-12.67h0a75.61,75.61,0,0,1,27,9.63l-.75,1.31-3.55,6.09-2.15,3.69a62.8,62.8,0,0,1,18.79,17.06l10.3-7.64a75.39,75.39,0,0,1,12,25.22c.05.21.1.41.16.62l-12.42,3.28A61.93,61.93,0,0,1,284.54,273l4.06.6Z"/><path class="cls-5" d="M332.11,165.86l-.43,91.48-81.19,43.49-30.72,16.45h0A183.8,183.8,0,0,1,223,282.12C241.45,187.55,332.11,165.86,332.11,165.86Z"/><path class="cls-5" d="M215.35,317.41h0L184.82,301l-81.65-43.8.42-91.38s90,21.76,108.47,116.31A183,183,0,0,1,215.35,317.41Z"/><circle class="cls-6" cx="303.83" cy="243.3" r="9.23"/><circle class="cls-6" cx="131.87" cy="243.3" r="9.23"/><path class="cls-7" d="M115.24,159.8l2.43-43.69L161,145.21C149.29,147.47,122.28,155.77,115.24,159.8Z"/><path class="cls-7" d="M319.62,159.8l-2.44-43.69-43.35,29.1C285.57,147.47,312.58,155.77,319.62,159.8Z"/><text class="cls-8" transform="translate(94.17 374.18)">VULPINE</text></svg>