<svg id="Layer_1" data-name="Layer 1" xmlns="http://www.w3.org/2000/svg" xmlns:xlink="http://www.w3.org/1999/xlink" viewBox="0 0 525.91 720"><defs><style>.cls-1{fill:#2d2d2d;}.cls-2{fill:#fff;}.cls-3{fill:url(#linear-gradient);}.cls-4{fill:url(#linear-gradient-2);}.cls-5{fill:url(#linear-gradient-3);}.cls-6{fill:url(#linear-gradient-4);}</style><linearGradient id="linear-gradient" x1="396.27" y1="234.65" x2="456.42" y2="288.01" gradientUnits="userSpaceOnUse"><stop offset="0" stop-color="#b4b4b4"/><stop offset="0.14" stop-color="#cdcdcd"/><stop offset="0.31" stop-color="#e3e3e3"/><stop offset="0.49" stop-color="#f3f3f3"/><stop offset="0.7" stop-color="#fcfcfc"/><stop offset="1" stop-color="#fff"/></linearGradient><linearGradient id="linear-gradient-2" x1="-2357.56" y1="222.87" x2="-2297.4" y2="276.24" gradientTransform="matrix(-1, -0.01, -0.01, 1, -2205.58, -9.43)" xlink:href="#linear-gradient"/><linearGradient id="linear-gradient-3" x1="219.01" y1="451.45" x2="110.31" y2="568.94" xlink:href="#linear-gradient"/><linearGradient id="linear-gradient-4" x1="317.8" y1="433.81" x2="420.09" y2="555.88" gradientUnits="userSpaceOnUse"><stop offset="0.16" stop-color="#b4b4b4"/><stop offset="0.26" stop-color="#cdcdcd"/><stop offset="0.39" stop-color="#e3e3e3"/><stop offset="0.52" stop-color="#f3f3f3"/><stop offset="0.68" stop-color="#fcfcfc"/><stop offset="0.9" stop-color="#fff"/></linearGradient></defs><title>VulpineLOGO</title><path class="cls-1" d="M426.35,282.41q0-6.09-.46-12.06l46-21.35a199.92,199.92,0,0,0-10-37.52L411.34,216a152.17,152.17,0,0,0-12.08-20.88l29.15-41.48a203.88,203.88,0,0,0-27.48-27.48l-41.48,29.15a152.17,152.17,0,0,0-20.88-12.08l4.51-50.51a200.25,200.25,0,0,0-37.53-10l-21.35,46q-6-.45-12.06-.46t-12.05.46l-21.36-46a200.25,200.25,0,0,0-37.53,10l4.51,50.51a152.87,152.87,0,0,0-20.89,12.08l-41.47-29.15a203.23,203.23,0,0,0-27.47,27.48L145,195.1A153.2,153.2,0,0,0,132.94,216l-50.52-4.5A199.9,199.9,0,0,0,72.4,249l46,21.35q-.47,6-.47,12.06t.47,12.06l-46,21.36a199.36,199.36,0,0,0,10,37.52l50.51-4.5A153.81,153.81,0,0,0,145,369.73L115.88,411.2a202.58,202.58,0,0,0,27.47,27.47l41.47-29.14a153.2,153.2,0,0,0,20.88,12.08h0l-4.49,50.5a199.36,199.36,0,0,0,37.52,10l21.36-46q6,.45,12.05.46t12.06-.46l21.35,46a199.46,199.46,0,0,0,37.53-10l-4.51-50.5a153.92,153.92,0,0,0,20.89-12.08l41.47,29.13a203.23,203.23,0,0,0,27.48-27.47l-29.15-41.47a152.76,152.76,0,0,0,12.08-20.88l50.51,4.5a200.14,200.14,0,0,0,10-37.52l-46-21.36Q426.34,288.5,426.35,282.41ZM272.14,389a106.6,106.6,0,1,1,106.6-106.6A106.6,106.6,0,0,1,272.14,389Z"/><path class="cls-2" d="M269.4,572.44a51.47,51.47,0,0,1-9.15-2.69,48.39,48.39,0,0,1-7.3-3.84,7.86,7.86,0,0,1-3-3c-1-2-.65-4.44-1-6.59s-.72-4.4-1.19-6.58a101.57,101.57,0,0,0-3.32-12.24,94.72,94.72,0,0,0-11-22.62c-9.62-14.21-23.15-23.9-38.92-30.24-6.6-2.66-15.31-5.84-24.05-6.73-7.5-.76-14.57,1.33-22,1.62-9.13.35-17.72-2.79-25.82-6.69a14.22,14.22,0,0,1-1.84-1c2-1.1,7.08-2,9.27-2.84a35.56,35.56,0,0,0,8.48-4.34,41.37,41.37,0,0,0,7.15-6.52l.36-1.76-.88.43A111.54,111.54,0,0,1,132.06,460a101.74,101.74,0,0,1-14.44,1.7c-1.14.05-2.26.08-3.35.08a54.45,54.45,0,0,1-11.14-1.1,30.22,30.22,0,0,1-6.83-2.38,21.33,21.33,0,0,1-5.49-4.73c2.13-1.91,4.47-3,6.6-4.88,4.49-4,9.13-8.18,13.65-12.3,1.1-1,2.18-2,3.27-3l1.77-1.65c1.64-1.5,3.24-3,5-4.71l.76-.71c1.39-1.3,2.83-2.65,4.2-4l1.48-1.44c1.12-1.09,2.28-2.22,3.39-3.38a189.31,189.31,0,0,0,17.85-20.35,71.11,71.11,0,0,0,6.71-11.3,29.79,29.79,0,0,0,2.93-12.1c.18-8.72-5.07-16.86-9.66-23-2.75-3.65-5.75-7.15-8.6-10.41L131,330a176.42,176.42,0,0,1-29.37-47.4A172.54,172.54,0,0,1,93,256.05a194.18,194.18,0,0,1-4.52-27.51,234,234,0,0,1,1.94-55.41A292.73,292.73,0,0,1,104,119.63c3.08-8.72,6.52-17.33,10.21-25.59A241.94,241.94,0,0,1,125.77,71.2c1.79,27.72,7.15,55.84,19.35,81a158.57,158.57,0,0,0,41.8,53.07A161.58,161.58,0,0,0,212.18,222,183.16,183.16,0,0,0,240,234c10.92,3.68,22.71,7.41,34.36,6.92a71.52,71.52,0,0,0,12.07-1.74c27-5.82,53-18.14,74.05-36.07a156.14,156.14,0,0,0,31.38-36.42c15.07-24.2,22.78-52.18,26.05-80.33q.89-7.56,1.37-15.15a251.21,251.21,0,0,1,11.38,22.87c3.64,8.28,7,16.9,10.06,25.62a290.86,290.86,0,0,1,13.19,53.5,234.36,234.36,0,0,1,1.87,55.24,194.55,194.55,0,0,1-4.56,27.4,172.19,172.19,0,0,1-8.6,26.45,176,176,0,0,1-29.26,47.17l-9.13,10.28c-2.86,3.29-5.88,6.81-8.63,10.47-4.67,6.23-10,14.54-9.78,23.53a30.44,30.44,0,0,0,3,12.39,70.77,70.77,0,0,0,6.83,11.4c14.3,19.35,32.94,34.78,51,50.47l2.94,2.3,4.94,3.53c-3.82,4.85-11.08,6.77-16.92,7.45a78.58,78.58,0,0,1-19.74-.35c-6.56-.9-12.62-3.15-19-4.55a6.31,6.31,0,0,0,.67,2.09,15.06,15.06,0,0,0,2.4,2.94,25.94,25.94,0,0,0,6,4.39c3.54,1.94,8.93,4.82,13,5.18,1.16.1,2.28.53,3.45.66-8.49,4.4-17.82,7.42-27.48,6.94-5.62-.29-11.15-1.65-16.78-1.91-12.74-.57-25,4.23-36.42,9.44a79.27,79.27,0,0,0-33,28.14,96.29,96.29,0,0,0-10.95,23,102,102,0,0,0-3.18,12.38,103.72,103.72,0,0,0-1.33,10.4,7.78,7.78,0,0,1-.52,2.62,7.4,7.4,0,0,1-2.8,2.89,43.79,43.79,0,0,1-18.39,7.29.44.44,0,0,1-.32,0c-.16-.12-.11-.36-.14-.56a.56.56,0,0,0-1.05,0c-.05.22,0,.51-.16.63a.5.5,0,0,1-.36,0C270.78,572.72,270.09,572.59,269.4,572.44Z"/><path class="cls-3" d="M436.36,144.34S469.61,273,370.91,338c-.57.67-19.29-28.59-2.8-50.37C395.93,250.87,443,199.84,436.36,144.34Z"/><path class="cls-4" d="M110.66,143S76.32,271.3,174.45,337.12c.57.68,19.54-28.42,3.24-50.34C150.18,249.82,103.57,198.38,110.66,143Z"/><path class="cls-1" d="M405,339.81l9.13-10.29a177.32,177.32,0,0,0,29.44-47.47,172.23,172.23,0,0,0,8.66-26.61,195,195,0,0,0,4.58-27.55,234.68,234.68,0,0,0-1.87-55.5,291.92,291.92,0,0,0-13.24-53.69q-4.53-13-10.09-25.7a248,248,0,0,0-12.4-24.65l-.82-1.69-.11,1.94C417,89.39,413.85,110,407.48,129.43l-1.15,3.65c-.43,1.2-.91,2.39-1.36,3.58l-2.74,7.13-3.2,6.92c-.55,1.15-1,2.32-1.64,3.44l-1.82,3.33-1.82,3.33-.91,1.66-1,1.61-4,6.42c-2.92,4.11-5.76,8.27-9.07,12.08a158.69,158.69,0,0,1-21.35,21.16,160.35,160.35,0,0,1-25.08,16.58c-2.21,1.19-4.49,2.26-6.71,3.41s-4.55,2.13-6.84,3.17c-4.63,2-9.29,3.85-14.07,5.42s-9.58,3-14.45,4.22c-1.21.3-2.43.6-3.65.85s-2.44.53-3.66.75-2.44.45-3.65.66-2.23.33-3.18.45c-2.4,0-4.81,0-7.21,0-.94-.12-2.1-.28-3.17-.45s-2.43-.41-3.65-.66-2.44-.48-3.66-.75-2.44-.55-3.66-.85c-4.86-1.19-9.7-2.58-14.45-4.22a182.25,182.25,0,0,1-27.62-12,158.78,158.78,0,0,1-25.08-16.59,157.1,157.1,0,0,1-21.37-21.16c-3.3-3.8-6.14-8-9.06-12.08l-4-6.42-1-1.6-.91-1.67-1.82-3.33-1.82-3.33c-.62-1.11-1.09-2.29-1.64-3.44l-3.2-6.92L140,136.67c-.45-1.2-.94-2.38-1.36-3.58l-1.15-3.66c-6.37-19.46-9.56-40-10.79-60.83l-.11-1.92s-.83,1.67-.83,1.69a241.79,241.79,0,0,0-12.57,24.57q-5.64,12.61-10.25,25.67a293.76,293.76,0,0,0-13.58,53.71,234.91,234.91,0,0,0-2,55.66A195.63,195.63,0,0,0,92,255.65a173.14,173.14,0,0,0,8.66,26.75,178.29,178.29,0,0,0,29.56,47.7l9.13,10.29c3,3.41,5.91,6.83,8.55,10.35,5.27,7,9.61,14.52,9.45,22.31a28.9,28.9,0,0,1-2.83,11.66,70.55,70.55,0,0,1-6.6,11.12,190.45,190.45,0,0,1-17.76,20.24c-1.57,1.64-3.23,3.2-4.85,4.8s-3.28,3.15-4.94,4.71-3.3,3.16-5,4.7-3.33,3.12-5,4.64c-6.76,6.17-13.61,12.25-20.44,18.4l-.45.41.42.34a18.69,18.69,0,0,0,6,4.53,30.89,30.89,0,0,0,7.07,2.46,57.31,57.31,0,0,0,14.76,1.05,101.86,101.86,0,0,0,14.6-1.71,114.4,114.4,0,0,0,13.28-3.28,11.21,11.21,0,0,1-1.46,2.33,16.72,16.72,0,0,1-1.28,1.39l-.68.66-.73.61a33.46,33.46,0,0,1-6.49,4.08c-1.15.56-2.34,1.07-3.52,1.57s-2.4.93-3.63,1.32-2.46.8-3.7,1.14l-3.75,1-1.51.39,1.44.56c1.94.92,3.88,1.88,5.84,2.79,1,.48,2,.83,3,1.22l3.06,1.14a30.85,30.85,0,0,0,3.15.94c1.07.28,2.12.6,3.2.84a44.85,44.85,0,0,0,6.66.79l1.69.08c.56,0,1.12,0,1.69-.06a33.43,33.43,0,0,0,3.34-.25c2.22-.25,4.34-.63,6.42-.93a45.32,45.32,0,0,1,12.11-.43c8,.81,16,3.52,23.76,6.66l2.92,1.17,1.46.58,1.4.64,2.81,1.29,2.73,1.44,1.36.73,1.32.8c.87.54,1.77,1,2.63,1.61,1.69,1.16,3.4,2.3,5,3.59a77.41,77.41,0,0,1,16.79,18,93.6,93.6,0,0,1,10.87,22.37,102.78,102.78,0,0,1,3.3,12.12c.43,2.05.78,4.12,1.08,6.19.16,1,.29,2.08.4,3.11a23.19,23.19,0,0,0,.35,3.35,7.16,7.16,0,0,0,2.57,3.29,24.1,24.1,0,0,0,2.79,1.94,44.54,44.54,0,0,0,5.91,2.94,48.35,48.35,0,0,0,6.18,2.1,27.86,27.86,0,0,0,3.19.67,16.58,16.58,0,0,0,3.41.48,5.67,5.67,0,0,0,.72-.1,56.5,56.5,0,0,0,5.61-1.19,51.15,51.15,0,0,0,6.11-2.2,45,45,0,0,0,5.81-3,23,23,0,0,0,2.72-2,12,12,0,0,0,1.26-1.22,5.45,5.45,0,0,0,1.4-3.5,45,45,0,0,1,.35-4.78c.27-2.09.59-4.18,1-6.25a99.14,99.14,0,0,1,3.15-12.25,95.4,95.4,0,0,1,10.82-22.69,76.72,76.72,0,0,1,16.92-18.34c1.62-1.32,3.37-2.47,5.09-3.65.87-.58,1.78-1.09,2.67-1.64l1.33-.81L339,489l2.77-1.46,2.85-1.3,1.42-.65,1.47-.6,2.94-1.2c7.81-3.15,15.88-5.94,24.12-6.62l1.54-.12a9.91,9.91,0,0,1,1.54-.05l3.08,0,3.09.27c1,.1,2.07.3,3.11.44,4.15.69,8.54,1.52,13,1.37a42.26,42.26,0,0,0,6.56-.65c1.08-.21,2.13-.5,3.19-.76a30.27,30.27,0,0,0,3.14-.85l3.07-1.05c1-.35,2.06-.66,3-1.11l5.92-2.56,1.43-.62-1.51-.33-3.75-1c-1.25-.34-2.47-.76-3.7-1.14s-2.43-.89-3.64-1.33-2.37-1-3.52-1.57a33.42,33.42,0,0,1-6.49-4.07l-.73-.61-.68-.67a14,14,0,0,1-1.28-1.39,13.17,13.17,0,0,1-1.06-1.54c-.14-.25-.28-.52-.4-.79a115.1,115.1,0,0,0,13.3,3.25,102,102,0,0,0,14.6,1.69,57.19,57.19,0,0,0,14.75-1,30.94,30.94,0,0,0,7.08-2.45,20,20,0,0,0,3.21-2c.5-.41,1-.77,1.48-1.21a10.71,10.71,0,0,0,1.13-1.34,1.56,1.56,0,0,0-.61-1.21L450.1,449l-2.74-2.42-2.6-2.25c-3.47-3-6.89-6-10.3-9.08-1.72-1.51-3.39-3.08-5.08-4.61s-3.36-3.1-5-4.67-3.35-3.09-5-4.68-3.31-3.15-4.89-4.77a186.31,186.31,0,0,1-17.95-20.21A70.57,70.57,0,0,1,389.81,385a29.46,29.46,0,0,1-2.94-12c-.2-8.1,4.27-15.8,9.56-22.86C399.09,346.66,402,343.23,405,339.81ZM251.41,545c0,2.27-.16,4.53-.36,6.79-.12-1.09-.27-2.17-.44-3.25a104.1,104.1,0,0,0-2.77-12.79,93.8,93.8,0,0,0-10.66-24,85.12,85.12,0,0,0-8-10.57c-.75-.81-1.47-1.66-2.25-2.45l-2.36-2.34c-.8-.77-1.66-1.48-2.49-2.22s-1.69-1.44-2.57-2.12c-1.72-1.41-3.56-2.66-5.38-3.92-.92-.63-1.88-1.18-2.82-1.77l-1.42-.87-1.46-.8-2.93-1.58-3-1.4L201,481l-1.51-.61-3-1.21c-8.09-3.12-16.52-6-25.61-6.52l-1.7-.09a12,12,0,0,0-1.7,0l-3.4.15c-1.12.14-2.24.31-3.35.46s-2.17.42-3.26.63a71,71,0,0,1-12.25,2,48.29,48.29,0,0,1-6.12-.18c-1-.12-2-.31-3.08-.46a29.76,29.76,0,0,1-3.08-.57c-2-.54-4.12-.89-6.14-1.53-1.48-.47-3-.91-4.48-1.35l2.06-.54c1.26-.35,2.49-.78,3.74-1.16s2.46-.9,3.69-1.34,2.42-1,3.6-1.6a35.07,35.07,0,0,0,6.68-4.21c2-1.71,4-3.62,4.79-6.42v0l.18-.75-.82.18c-4.7,1.08-9.47,1.95-14.24,2.66a133.72,133.72,0,0,1-14.37,1.34c-2.4.08-4.79,0-7.17-.08a50.64,50.64,0,0,1-7.08-.81,27.22,27.22,0,0,1-11.94-5,131.22,131.22,0,0,0,14.88-3.19c5.26-1.41,10.46-3,15.63-4.68s10.29-3.54,15.38-5.44c2.52-.94,5.14-2,7.55-2.81a54.46,54.46,0,0,1,7.56-2,69.63,69.63,0,0,1,15.68-1,95.47,95.47,0,0,1,15.68,2A110.49,110.49,0,0,1,199,441.48,108.1,108.1,0,0,1,213.4,448a89,89,0,0,1,13.12,8.69,60.53,60.53,0,0,1,10.94,11,38.35,38.35,0,0,1,6.64,13.5c1.21,5.21,2.36,10.45,3.21,15.75a285.83,285.83,0,0,1,3.76,32C251.34,534.29,251.54,539.67,251.41,545Zm21.11,27.34-.47-.13a9.78,9.78,0,0,0,1,0ZM453.07,454.49c-.44.31-1,.65-1.44,1a27.12,27.12,0,0,1-3.14,1.58,34.25,34.25,0,0,1-6.78,2,49.2,49.2,0,0,1-7.08.82c-2.39.15-4.78.17-7.18.1s-4.8-.24-7.2-.49-4.79-.5-7.18-.87c-4.77-.72-9.54-1.6-14.24-2.69h0l-.88-.25.24.82c.83,2.81,2.78,4.72,4.79,6.44a35,35,0,0,0,6.68,4.2c1.18.58,2.39,1.09,3.6,1.6s2.44.95,3.69,1.35,2.49.81,3.75,1.15l2.18.58-4.51,1.54c-1,.38-2,.62-3,.91l-3.06.83a27.33,27.33,0,0,1-3.09.64c-1,.18-2.06.4-3.09.55a51.9,51.9,0,0,1-6.21.33,63.62,63.62,0,0,1-12.43-1.8c-1.08-.19-2.13-.44-3.22-.58l-3.29-.42c-1.11-.05-2.22-.1-3.33-.13a11.51,11.51,0,0,0-1.66,0l-1.66.11c-8.87.63-17.21,3.44-25.24,6.55l-3,1.18-1.51.6-1.48.69-3,1.39-2.89,1.55-1.44.79-1.4.86c-.92.58-1.87,1.13-2.78,1.74-1.79,1.25-3.61,2.48-5.3,3.87a80.14,80.14,0,0,0-17.55,19.33A91.82,91.82,0,0,0,298,536a103.68,103.68,0,0,0-2.93,12.66c0,.23-.06.47-.1.7-.09-1.45-.14-2.9-.17-4.35-.13-5.37.07-10.75.34-16.12a285.81,285.81,0,0,1,3.75-32c.86-5.3,2-10.54,3.21-15.75a38.54,38.54,0,0,1,6.65-13.5,60.16,60.16,0,0,1,10.93-11A89.13,89.13,0,0,1,332.81,448a107.53,107.53,0,0,1,14.43-6.51A110.35,110.35,0,0,1,362.45,437a95.59,95.59,0,0,1,15.69-2,69.63,69.63,0,0,1,15.68,1,54,54,0,0,1,7.55,2c2.42.79,5,1.87,7.55,2.81,5.09,1.9,10.2,3.78,15.38,5.44s10.38,3.27,15.64,4.68A136.78,136.78,0,0,0,454,453.91,5.32,5.32,0,0,0,453.07,454.49Zm-69.71-96.06a32.91,32.91,0,0,0-3.06,14.8,36,36,0,0,0,3.83,14.47,69.24,69.24,0,0,0,7.74,12.1,171.41,171.41,0,0,0,19.34,20.12c1.7,1.58,3.46,3.06,5.19,4.58s3.5,3,5.27,4.48,3.55,2.93,5.36,4.35,3.58,2.88,5.41,4.28q5.44,4.23,10.94,8.37l2.75,2.08,2.64,1.85,3.51,2.42q-2-.52-4-1.11c-2.59-.75-5.16-1.55-7.73-2.38-5.13-1.68-10.2-3.54-15.22-5.49s-10-4-15-6.08l-3.72-1.6c-1.21-.54-2.52-1.05-3.84-1.56a54.63,54.63,0,0,0-8.09-2.36c-11-2.32-22.34-1.8-33.21.32-5.53,1.07-38,6.38-57,32.37A41.71,41.71,0,0,0,297,480c-1.12,5.37-2.16,10.74-2.91,16.16a243,243,0,0,0-2.43,32.65c0,5.46.21,10.93.69,16.37.27,2.57.57,5.15,1,7.71a37.32,37.32,0,0,0-3.86-7.58c-3.75-5.21-16.46-7.5-16.46-7.5s-12.7,2.29-16.45,7.5a36.33,36.33,0,0,0-3.86,7.58c.45-2.56.76-5.14,1-7.71.48-5.44.7-10.91.68-16.37a244.67,244.67,0,0,0-2.42-32.65c-.75-5.42-1.8-10.79-2.92-16.16a41.69,41.69,0,0,0-7.36-15.56,68.55,68.55,0,0,0-15.1-14.56c.54-.21-20.45-14-41.94-17.81-10.9-1.92-22.2-2.64-33.2-.32a54.63,54.63,0,0,0-8.09,2.36c-1.32.51-2.63,1-3.85,1.56l-3.72,1.6q-7.44,3.15-15,6.08c-5,1.95-10.1,3.81-15.22,5.49-2.57.83-5.15,1.63-7.74,2.38-1.78.52-3.59,1-5.4,1.46,6.85-4.8,13.64-9.68,20.27-14.79,1.83-1.39,3.63-2.84,5.44-4.25s3.62-2.85,5.4-4.32,3.56-2.93,5.3-4.45,3.52-3,5.23-4.55a168.14,168.14,0,0,0,19.54-20.09,69,69,0,0,0,7.87-12.2,36.92,36.92,0,0,0,3.94-14.77,33.73,33.73,0,0,0-3.09-15.18,69.51,69.51,0,0,0-7.59-12.53c-2.83-3.84-5.84-7.41-8.85-10.93l-4.58-5.26-4.52-5a170,170,0,0,1-28.37-45.24A180.58,180.58,0,0,1,95.12,227.2a233.75,233.75,0,0,1,.52-54,319.08,319.08,0,0,1,11.21-53.29q3.9-13.11,8.86-25.89c3.09-7.85,6.32-15.69,10-23.27A222.39,222.39,0,0,0,134,130.45l1.05,3.77c.4,1.24.85,2.46,1.28,3.69l2.58,7.39,3.05,7.18-.32.14c1.71,4,3.66,7.89,5.7,11.73s4.22,7.59,6.49,11.3A228.13,228.13,0,0,0,168.71,197a212.2,212.2,0,0,0,17.37,19.47,178.92,178.92,0,0,0,19.82,17c1.71,1.35,3.52,2.56,5.33,3.8s3.58,2.5,5.46,3.6,3.72,2.31,5.6,3.42l5.76,3.14,1.44.79,1.48.7,3,1.42,3,1.41c1,.48,2,.85,3,1.27l6.09,2.48,6.22,2.13c2.05.76,4.18,1.31,6.29,1.89l3.17.88c1.05.29,2.11.6,3.18.8l6.44,1.36,1.61.34c.54.1,1.08.16,1.62.25l3.26.48A174.22,174.22,0,0,0,304,265.54l20.54.26-20.12-4.75h0l-3-.69-3-.8a58.8,58.8,0,0,1-5.77-2,35.31,35.31,0,0,1-5.35-2.71c-.35-.21-.68-.44-1-.66,3.76-.69,7.46-1.49,11.16-2.39q7.89-1.92,15.6-4.5a152.7,152.7,0,0,0,15-6,101.45,101.45,0,0,0,14-8.1,100.67,100.67,0,0,1-14.42,7,148.56,148.56,0,0,1-15.24,4.91q-7.74,2-15.63,3.34c-5.24.88-10.57,1.61-15.77,2l-4,.3,2.33,3.26h0c.31.41.48.59.71.85l.66.66c.44.42.89.81,1.35,1.18a28.35,28.35,0,0,0,2.83,2,41.3,41.3,0,0,0,3.63,2c-3.4-.21-6.8-.53-10.18-1l-3.18-.41c-.53-.08-1.06-.13-1.59-.22l-1.57-.31-6.3-1.22c-1.05-.17-2.09-.45-3.12-.72l-3.11-.8c-2.07-.54-4.15-1-6.17-1.75l-6.11-2-6-2.32c-1-.4-2-.74-3-1.2l-2.93-1.33L232.4,246l-1.46-.66-1.42-.75-5.7-3c-1.87-1.06-3.7-2.18-5.55-3.26s-3.64-2.28-5.43-3.46-3.6-2.34-5.31-3.64a176.22,176.22,0,0,1-19.83-16.47,209.82,209.82,0,0,1-17.52-19c-1-1.25-2-2.52-3-3.79a153.74,153.74,0,0,0,16.64,16.24,166.37,166.37,0,0,0,25.83,17.55,176,176,0,0,0,28.56,12.6c4.92,1.72,9.93,3.18,15,4.43a131.35,131.35,0,0,0,15.34,2.95h8a132.88,132.88,0,0,0,15.33-2.95c5.06-1.26,10.07-2.71,15-4.43a177.67,177.67,0,0,0,28.56-12.6,166.28,166.28,0,0,0,25.82-17.55A154.13,154.13,0,0,0,383,185.91c3.33-4,6.19-8.39,9.11-12.71l4-6.72,1-1.68,2.66-5.24,1.77-3.48c.6-1.16,1.05-2.39,1.58-3.58l3.06-7.2,2.58-7.39c.42-1.23.88-2.45,1.27-3.69l1.05-3.77a222.33,222.33,0,0,0,8.23-59.73c3.77,7.54,7.08,15.34,10.21,23.17q5,12.75,9,25.85a321.26,321.26,0,0,1,11.55,53.32,234.11,234.11,0,0,1,.61,54.21,181.36,181.36,0,0,1-13.38,52.13,170.68,170.68,0,0,1-28.49,45.5L404.26,330l-4.57,5.23c-3,3.52-6,7.07-8.82,10.87A68.75,68.75,0,0,0,383.36,358.43Z"/><path class="cls-1" d="M183.4,293.3a81.11,81.11,0,0,0-7.26-14.16c-2.77-4.48-5.8-8.76-8.93-12.93s-6.34-8.27-9.57-12.33c-6.5-8.07-13.23-16-19.74-24a110.78,110.78,0,0,1-24.3-54.7,125,125,0,0,1-.51-30.45,132,132,0,0,1,2.45-15.15c.54-2.51,1.18-5,1.88-7.47s1.47-4.94,2.39-7.32l-.91-.42A95.13,95.13,0,0,0,113.33,129a126.45,126.45,0,0,0-3.49,15.3,118.79,118.79,0,0,0-.83,31.47,112.17,112.17,0,0,0,2.87,15.59c.33,1.28.73,2.54,1.1,3.81l.56,1.91.65,1.88c.45,1.25.87,2.5,1.33,3.75l1.51,3.68c.48,1.23,1,2.43,1.62,3.62s1.14,2.4,1.75,3.58l1.92,3.48,1,1.74,1,1.69,2.11,3.37c.73,1.11,1.51,2.18,2.27,3.26,1.47,2.21,3.15,4.26,4.78,6.34l19.91,23.83c6.61,7.91,13.07,15.94,18.8,24.34a81.31,81.31,0,0,1,7.39,13.15,44.91,44.91,0,0,1,2.44,7,36.38,36.38,0,0,1,.61,14.75,51.32,51.32,0,0,1-1.76,7.35A98.58,98.58,0,0,1,175,338.14l.87.49a85.53,85.53,0,0,0,7.2-13.91,44.91,44.91,0,0,0,3.36-15.59,42.94,42.94,0,0,0-.76-8.08A48.88,48.88,0,0,0,183.4,293.3Z"/><path class="cls-1" d="M417.5,227.17c.75-1.08,1.54-2.15,2.27-3.26l2.1-3.37,1.05-1.69,1-1.74,1.92-3.48c.6-1.18,1.16-2.38,1.74-3.58s1.15-2.39,1.63-3.62l1.5-3.68c.47-1.25.89-2.5,1.33-3.75l.66-1.88.56-1.91c.36-1.27.77-2.53,1.1-3.81a112.17,112.17,0,0,0,2.87-15.59,118.79,118.79,0,0,0-.84-31.47,122.78,122.78,0,0,0-3.49-15.3,95.08,95.08,0,0,0-5.56-14.63l-.91.42c.92,2.38,1.69,4.85,2.38,7.32s1.35,5,1.89,7.47a134.24,134.24,0,0,1,2.45,15.15,125,125,0,0,1-.51,30.45,110.71,110.71,0,0,1-24.31,54.7c-6.5,7.94-13.23,15.89-19.74,24-3.23,4.06-6.44,8.15-9.57,12.33s-6.15,8.45-8.92,12.93a80.43,80.43,0,0,0-7.26,14.16,47.85,47.85,0,0,0-2.26,7.75,42.12,42.12,0,0,0-.76,8.08,44.9,44.9,0,0,0,3.35,15.59,86.33,86.33,0,0,0,7.2,13.91l.88-.49a98.64,98.64,0,0,1-5.9-14.19,52.7,52.7,0,0,1-1.76-7.35,36.62,36.62,0,0,1,.62-14.75,45.92,45.92,0,0,1,2.43-7,80.62,80.62,0,0,1,7.4-13.15c5.72-8.4,12.19-16.43,18.79-24.34l19.91-23.83C414.35,231.43,416,229.38,417.5,227.17Z"/><path class="cls-5" d="M248,535.79a94.11,94.11,0,0,0-10.65-24,87.12,87.12,0,0,0-8-10.57c-.75-.81-1.47-1.66-2.25-2.45l-2.37-2.34c-.8-.77-1.65-1.48-2.48-2.22s-1.69-1.44-2.57-2.12c-1.72-1.41-3.56-2.66-5.38-3.92-.92-.63-1.89-1.18-2.83-1.77l-1.41-.87-1.46-.8-2.93-1.58-3-1.4-1.51-.71-1.51-.61-3-1.21c-8.08-3.12-16.51-6-25.6-6.52l-1.7-.09a12,12,0,0,0-1.7,0l-3.41.15c-1.12.14-2.23.31-3.35.46s-2.17.42-3.25.63a71,71,0,0,1-12.26,2,48.13,48.13,0,0,1-6.11-.18c-1-.12-2-.31-3.08-.46a29.76,29.76,0,0,1-3.08-.57c-2-.54-4.12-.89-6.14-1.53-1.49-.47-3-.91-4.49-1.35l2.06-.54c1.26-.35,2.5-.78,3.75-1.16s2.46-.9,3.69-1.34,2.41-1,3.59-1.6a34.45,34.45,0,0,0,6.68-4.21c2-1.71,4-3.62,4.8-6.42v0l.18-.75-.81.18c-4.71,1.08-9.48,1.95-14.25,2.66a133.77,133.77,0,0,1-14.36,1.34c-2.4.08-4.8,0-7.18-.08a50.5,50.5,0,0,1-7.07-.81,27.31,27.31,0,0,1-11.95-5,130.76,130.76,0,0,0,14.88-3.19c5.26-1.41,10.47-3,15.64-4.68s10.29-3.54,15.38-5.44c2.52-.94,5.13-2,7.55-2.81a53.74,53.74,0,0,1,7.56-2,69.58,69.58,0,0,1,15.67-1,95.59,95.59,0,0,1,15.69,2,110,110,0,0,1,15.21,4.45A107.53,107.53,0,0,1,213.55,448a89.13,89.13,0,0,1,13.13,8.69,60.53,60.53,0,0,1,10.94,11,38.52,38.52,0,0,1,6.64,13.5c1.21,5.21,2.35,10.45,3.21,15.75a285.81,285.81,0,0,1,3.75,32c.27,5.37.48,10.75.34,16.12q-.06,3.4-.35,6.79c-.13-1.09-.28-2.17-.44-3.25A102.32,102.32,0,0,0,248,535.79Z"/><path class="cls-6" d="M453.22,454.49c-.44.31-1,.65-1.44,1a25.61,25.61,0,0,1-3.14,1.58,34.36,34.36,0,0,1-6.77,2,49.5,49.5,0,0,1-7.09.82c-2.38.15-4.78.17-7.18.1s-4.8-.24-7.19-.49-4.8-.5-7.18-.87c-4.77-.72-9.55-1.6-14.24-2.69h0l-.87-.25.24.82c.83,2.81,2.78,4.72,4.79,6.44a34.41,34.41,0,0,0,6.68,4.2c1.18.58,2.39,1.09,3.59,1.6s2.45.95,3.69,1.35,2.49.81,3.75,1.15l2.18.58-4.5,1.54c-1,.38-2,.62-3,.91l-3.06.83a27.33,27.33,0,0,1-3.09.64c-1,.18-2.06.4-3.09.55a51.79,51.79,0,0,1-6.21.33,63.73,63.73,0,0,1-12.43-1.8c-1.07-.19-2.12-.44-3.22-.58l-3.28-.42c-1.11-.05-2.22-.1-3.33-.13a11.47,11.47,0,0,0-1.66,0l-1.66.11c-8.87.63-17.21,3.44-25.24,6.55l-3,1.18-1.51.6-1.49.69-3,1.39-2.88,1.55-1.44.79-1.4.86c-.93.58-1.88,1.13-2.78,1.74-1.8,1.25-3.61,2.48-5.3,3.87a80.14,80.14,0,0,0-17.55,19.33A91.85,91.85,0,0,0,298.15,536a103.65,103.65,0,0,0-2.92,12.66c0,.23-.07.47-.11.7-.08-1.45-.14-2.9-.16-4.35-.14-5.37.06-10.75.34-16.12a285.81,285.81,0,0,1,3.75-32c.86-5.3,2-10.54,3.21-15.75a38.35,38.35,0,0,1,6.64-13.5,60.53,60.53,0,0,1,10.94-11A88.6,88.6,0,0,1,333,448a107.41,107.41,0,0,1,14.42-6.51A110.49,110.49,0,0,1,362.61,437a95.47,95.47,0,0,1,15.68-2A69.63,69.63,0,0,1,394,436a54.1,54.1,0,0,1,7.56,2c2.42.79,5,1.87,7.55,2.81,5.09,1.9,10.19,3.78,15.38,5.44s10.37,3.27,15.63,4.68a137.36,137.36,0,0,0,14.08,3.07A5.32,5.32,0,0,0,453.22,454.49Z"/><ellipse class="cls-1" cx="208.06" cy="412.43" rx="14.24" ry="33.05" transform="translate(-207.82 211.35) rotate(-37.43)"/><ellipse class="cls-1" cx="332" cy="412.43" rx="33.05" ry="14.24" transform="translate(-197.3 425.44) rotate(-52.57)"/><path d="M182.63,600.2,169.72,675h-6.24L150.56,600.2h6.58l9.24,59.36.29,4.86q0-1.67.33-4.86l9.24-59.36Z"/><path d="M222.5,669.47a5.1,5.1,0,0,1-1.5,3.81,5.22,5.22,0,0,1-3.83,1.48h-20.3a5.07,5.07,0,0,1-5.29-5.29V600.2h6.63v68.7h17.67V600.2h6.62Z"/><path d="M258.23,674.76H234.41V600.2H241v68.7h17.19Z"/><path d="M296.82,639.84a5.13,5.13,0,0,1-5.33,5.33H273.91v29.59h-6.62V600.2h24.2a5.22,5.22,0,0,1,3.83,1.48,5.1,5.1,0,0,1,1.5,3.81Zm-6.62-.57V606.06H273.91v33.21Z"/><path d="M314.31,674.76h-6.62V600.2h6.62Z"/><path d="M357.47,674.76H352.9L333,619.92v54.84h-6.24V600.2h5l19.53,53.88V600.2h6.24Z"/><path d="M393.87,674.76H369.38V600.2h24.2v5.86H376v27.82h16v6H376V668.9h17.86Z"/></svg>